<?xml version="1.0" encoding="utf-8"?>
<!-- Generator: Adobe Illustrator 24.3.0, SVG Export Plug-In . SVG Version: 6.00 Build 0)  -->
<svg version="1.1" id="Layer_1" xmlns="http://www.w3.org/2000/svg" xmlns:xlink="http://www.w3.org/1999/xlink" x="0px" y="0px"
	 viewBox="0 0 255 255" style="enable-background:new 0 0 255 255;" xml:space="preserve">
<style type="text/css">
	.st0{fill:#EDEBFF;}
	.st1{fill:#FF0000;}
	.st2{fill:#FF6600;}
	.st3{fill:#EFE914;}
	.st4{fill:#66CC00;}
	.st5{fill:#0099FF;}
	.st6{fill:#734EF8;}
</style>
<circle class="st0" cx="409.5" cy="121.6" r="117"/>
<path class="st1" d="M1086.1-162.3c-53.7,0.7-97.4,44.9-97.6,98.6c-0.2,38.5,21.7,71.9,53.7,88.4c13.6,7,29,11,45.3,11
	s31.8-4,45.3-11c31.9-16.4,53.7-49.7,53.7-88C1186.5-118.5,1141.4-163.1,1086.1-162.3z M1087.5-117.3c39.8,0,72,32.2,72,72
	l-64.7-64.7c-4-4-10.5-4-14.6,0l-64.7,64.7C1015.5-85.1,1047.7-117.3,1087.5-117.3z M1017.8-27.3h15.7l5.9,35.6
	C1029-1.1,1021.3-13.4,1017.8-27.3z M1135.6,8.3l5.9-35.6h15.7C1153.6-13.4,1146-1.1,1135.6,8.3z"/>
<g>
	<path d="M999,82.5c0.2,0.2,0.3,0.4,0.3,0.7c0,0.4-0.1,0.6-0.3,0.9c-2.3,2.2-4.8,3.8-7.6,4.9c-2.8,1.1-5.7,1.6-8.7,1.6
		c-4.1,0-8-1-11.7-2.9s-6.6-4.7-8.9-8.2c-2.3-3.5-3.4-7.6-3.4-12.2c0-4.6,1.1-8.7,3.3-12.2c2.2-3.5,5.1-6.3,8.7-8.2S978,44,982.1,44
		c3,0,5.9,0.5,8.7,1.6c2.9,1.1,5.5,2.7,7.9,5c0.3,0.3,0.4,0.5,0.4,0.9s-0.1,0.6-0.3,0.8l-2.9,3.1c-0.2,0.3-0.5,0.4-0.9,0.4
		c-0.3,0-0.5-0.1-0.7-0.3c-1.9-1.5-3.9-2.7-6.1-3.5c-2.2-0.8-4.3-1.2-6.5-1.2c-2.9,0-5.6,0.7-8.1,2s-4.4,3.3-5.9,5.8
		s-2.2,5.4-2.2,8.7c0,3.2,0.8,6,2.5,8.5s3.8,4.4,6.5,5.8c2.7,1.4,5.5,2.1,8.5,2.1c4.4,0,8.3-1.4,11.7-4.2c0.2-0.2,0.4-0.3,0.7-0.3
		c0.3,0,0.6,0.1,0.8,0.3L999,82.5z"/>
	<path d="M1037.5,80.3c0,2.2,0,4.2-0.1,5.8s-0.2,2.7-0.2,3.2c0,0.4-0.1,0.7-0.4,0.9s-0.6,0.4-1,0.4h-3.5c-0.3,0-0.6-0.1-0.9-0.4
		s-0.4-0.6-0.5-0.9l-0.1-2.9c0-0.1,0-0.2-0.1-0.2s-0.1,0-0.2,0.1c-0.9,1.2-2.3,2.3-4.1,3.1c-1.9,0.8-3.7,1.3-5.4,1.3
		c-3,0-5.7-0.7-8.2-2.2c-2.5-1.5-4.5-3.4-6-6c-1.5-2.5-2.2-5.3-2.2-8.2s0.7-5.7,2.2-8.2s3.5-4.5,6-6s5.3-2.2,8.2-2.2
		c2.9,0,5.5,0.7,8,2.1c2.4,1.4,4.4,3.3,5.9,5.6c1.5,2.4,2.3,5,2.4,7.9C1037.4,75.8,1037.5,78.1,1037.5,80.3z M1025.9,82.7
		c1.5-0.9,2.7-2.1,3.5-3.6s1.3-3.1,1.3-4.9s-0.4-3.4-1.3-4.9c-0.9-1.5-2.1-2.7-3.6-3.5c-1.5-0.9-3.1-1.3-4.9-1.3
		c-1.7,0-3.3,0.4-4.8,1.3s-2.7,2.1-3.5,3.6c-0.9,1.5-1.3,3.1-1.3,4.9s0.4,3.4,1.3,4.9c0.9,1.5,2.1,2.7,3.5,3.6
		c1.5,0.9,3.1,1.3,4.9,1.3C1022.8,84,1024.4,83.5,1025.9,82.7z"/>
	<path d="M1067.4,78.6c0.3,0.9,0.5,1.9,0.5,2.8c0,1.8-0.6,3.4-1.7,4.8s-2.6,2.5-4.4,3.2s-3.8,1.1-5.9,1.1c-2.3,0-4.5-0.5-6.6-1.5
		c-2.1-1-3.8-2.5-5-4.5c-0.1-0.1-0.1-0.3-0.1-0.7c0-0.6,0.2-0.9,0.6-1.1l3.3-1.8c0.2-0.1,0.3-0.1,0.5-0.1c0.4,0,0.7,0.2,1,0.5
		c0.8,0.8,1.7,1.5,2.9,2.1c1.2,0.5,2.4,0.8,3.5,0.8c1.3,0,2.5-0.3,3.6-0.9c1.1-0.6,1.6-1.4,1.6-2.5s-0.4-1.8-1.3-2.3
		s-2.2-0.9-4.1-1.2c-2.2-0.5-3.8-0.9-4.8-1.3c-2.1-0.8-3.7-2-4.7-3.5c-1.1-1.5-1.6-3.1-1.6-4.8c0-2.3,0.8-4.3,2.6-6.2
		c1.7-1.9,4.1-3,7.1-3.5c0.9-0.1,1.8-0.2,2.7-0.2c4.8,0,8.5,2.1,11.2,6.2c0.1,0.2,0.2,0.4,0.2,0.7c0,0.5-0.2,0.9-0.7,1.1l-2.9,1.7
		c-0.3,0.1-0.5,0.1-0.6,0.1c-0.4,0-0.8-0.2-1.1-0.5c-1.8-2.2-3.9-3.2-6.5-3.2c-0.3,0-0.8,0-1.4,0.1c-1.1,0.2-2,0.6-2.7,1.1
		c-0.8,0.6-1.2,1.2-1.2,1.8c-0.1,1.1,0.1,2,0.7,2.7s1.2,1.2,2.1,1.5c0.9,0.3,2.2,0.7,3.8,1c1.8,0.4,3.2,0.9,4.3,1.3
		c1.1,0.4,2.1,1,3.1,1.8C1066.2,76.1,1066.9,77.2,1067.4,78.6z"/>
	<path d="M1107.3,80.3c0,2.2,0,4.2-0.1,5.8s-0.2,2.7-0.2,3.2c0,0.4-0.1,0.7-0.4,0.9s-0.6,0.4-1,0.4h-3.5c-0.3,0-0.6-0.1-0.9-0.4
		s-0.4-0.6-0.5-0.9l-0.1-2.9c0-0.1,0-0.2-0.1-0.2s-0.1,0-0.2,0.1c-0.9,1.2-2.3,2.3-4.1,3.1c-1.9,0.8-3.7,1.3-5.4,1.3
		c-3,0-5.7-0.7-8.2-2.2s-4.5-3.4-6-6c-1.5-2.5-2.2-5.3-2.2-8.2s0.7-5.7,2.2-8.2s3.4-4.5,6-6s5.3-2.2,8.2-2.2c2.9,0,5.5,0.7,8,2.1
		c2.4,1.4,4.4,3.3,5.9,5.6c1.5,2.4,2.3,5,2.4,7.9C1107.2,75.8,1107.3,78.1,1107.3,80.3z M1095.7,82.7c1.5-0.9,2.7-2.1,3.5-3.6
		s1.3-3.1,1.3-4.9s-0.4-3.4-1.3-4.9c-0.9-1.5-2.1-2.7-3.6-3.5c-1.5-0.9-3.1-1.3-4.9-1.3c-1.7,0-3.3,0.4-4.8,1.3
		c-1.5,0.9-2.7,2.1-3.6,3.6c-0.9,1.5-1.3,3.1-1.3,4.9s0.4,3.4,1.3,4.9c0.9,1.5,2.1,2.7,3.6,3.6c1.5,0.9,3.1,1.3,4.9,1.3
		C1092.6,84,1094.2,83.5,1095.7,82.7z"/>
	<path d="M1133.5,89.7l-9.3-12.3l-3.1,3.8l-0.2,8.4c0,0.3-0.1,0.6-0.3,0.8s-0.5,0.3-0.8,0.3h-3.9c-0.3,0-0.6-0.1-0.8-0.3
		c-0.2-0.2-0.3-0.5-0.3-0.8l-0.2-10.7V65.6l0.2-23.7c0-0.3,0.1-0.6,0.3-0.8c0.2-0.2,0.5-0.3,0.8-0.3h3.9c0.3,0,0.6,0.1,0.8,0.3
		c0.2,0.2,0.3,0.5,0.3,0.8l0.2,23.7v5.2l10.4-12.2c0.4-0.6,1-0.9,1.7-0.9h4.6c0.3,0,0.6,0.1,0.8,0.4c0.2,0.2,0.3,0.5,0.3,0.8
		c0,0.3-0.1,0.5-0.3,0.7l-9.8,12.1c-0.2,0.2-0.2,0.4-0.1,0.7l11.8,16.3c0.2,0.2,0.3,0.4,0.3,0.7c0,0.3-0.1,0.6-0.4,0.8
		c-0.2,0.2-0.5,0.3-0.8,0.3h-4.2C1134.6,90.6,1134,90.3,1133.5,89.7z"/>
	<path d="M1175.7,80.3c0,2.2,0,4.2-0.1,5.8s-0.2,2.7-0.2,3.2c0,0.4-0.1,0.7-0.4,0.9s-0.6,0.4-1,0.4h-3.5c-0.3,0-0.6-0.1-0.9-0.4
		s-0.4-0.6-0.5-0.9l-0.1-2.9c0-0.1,0-0.2-0.1-0.2s-0.1,0-0.2,0.1c-0.9,1.2-2.3,2.3-4.1,3.1c-1.9,0.8-3.7,1.3-5.4,1.3
		c-3,0-5.7-0.7-8.2-2.2s-4.5-3.4-6-6c-1.5-2.5-2.2-5.3-2.2-8.2s0.7-5.7,2.2-8.2s3.4-4.5,6-6s5.3-2.2,8.2-2.2c2.9,0,5.5,0.7,8,2.1
		c2.4,1.4,4.4,3.3,5.9,5.6c1.5,2.4,2.3,5,2.4,7.9C1175.6,75.8,1175.7,78.1,1175.7,80.3z M1164.1,82.7c1.5-0.9,2.7-2.1,3.5-3.6
		s1.3-3.1,1.3-4.9s-0.4-3.4-1.3-4.9c-0.9-1.5-2.1-2.7-3.6-3.5c-1.5-0.9-3.1-1.3-4.9-1.3c-1.7,0-3.3,0.4-4.8,1.3
		c-1.5,0.9-2.7,2.1-3.6,3.6c-0.9,1.5-1.3,3.1-1.3,4.9s0.4,3.4,1.3,4.9c0.9,1.5,2.1,2.7,3.6,3.6c1.5,0.9,3.1,1.3,4.9,1.3
		C1161,84,1162.6,83.5,1164.1,82.7z"/>
	<path d="M1183.7,96.4c-0.1-5.1-0.1-9.8-0.1-14.2c0-3,0-5.9,0.1-8.8c0.1-2.9,0.9-5.5,2.4-7.9c1.5-2.4,3.4-4.2,5.9-5.6s5.1-2.1,8-2.1
		c3,0,5.7,0.7,8.2,2.2s4.5,3.5,5.9,6c1.5,2.5,2.2,5.2,2.2,8.2s-0.7,5.7-2.2,8.2s-3.4,4.5-5.9,6s-5.2,2.2-8.2,2.2
		c-1.7,0-3.5-0.4-5.4-1.3c-1.9-0.8-3.2-1.9-4.1-3.1c0-0.1-0.1-0.1-0.2-0.1c-0.1,0-0.1,0.1-0.1,0.2l-0.1,20c0,0.3-0.1,0.7-0.4,0.9
		s-0.6,0.4-0.9,0.4h-3.5c-0.3,0-0.7-0.1-0.9-0.4s-0.4-0.6-0.4-0.9C1183.8,104.8,1183.8,101.5,1183.7,96.4z M1191.6,79.1
		c0.9,1.5,2.1,2.7,3.6,3.6c1.5,0.9,3.1,1.3,4.9,1.3s3.4-0.4,4.9-1.3c1.5-0.9,2.7-2.1,3.6-3.6s1.3-3.1,1.3-4.9s-0.4-3.4-1.3-4.9
		c-0.9-1.5-2.1-2.7-3.6-3.6c-1.5-0.9-3.1-1.3-4.9-1.3s-3.4,0.4-4.9,1.3s-2.7,2.1-3.6,3.6c-0.9,1.5-1.3,3.1-1.3,4.9
		C1190.2,76,1190.7,77.6,1191.6,79.1z"/>
</g>
<g>
	<path class="st2" d="M1470.2,215.7c-53.7,0.7-97.4,44.9-97.6,98.6c-0.2,38.5,21.7,72,53.7,88.5c13.6,7,29,11,45.3,11
		s31.8-4,45.3-11c31.9-16.4,53.7-49.7,53.7-88C1570.6,259.5,1525.6,214.9,1470.2,215.7z M1471.6,260.7c39.8,0,72,32.2,72,72
		l-64.7-64.7c-4-4-10.5-4-14.6,0l-64.7,64.7C1399.6,292.9,1431.9,260.7,1471.6,260.7z M1401.9,350.7h15.7l5.9,35.6
		C1413.2,376.9,1405.5,364.6,1401.9,350.7z M1519.7,386.3l5.9-35.6h15.7C1537.8,364.6,1530.1,376.9,1519.7,386.3z"/>
	<g>
		<path d="M1383.2,460.5c0.2,0.2,0.3,0.4,0.3,0.7c0,0.4-0.1,0.6-0.3,0.9c-2.3,2.2-4.8,3.8-7.6,4.9c-2.8,1.1-5.7,1.6-8.7,1.6
			c-4.1,0-8-1-11.7-2.9s-6.6-4.7-8.9-8.2s-3.4-7.6-3.4-12.1c0-4.6,1.1-8.7,3.3-12.2c2.2-3.5,5.1-6.3,8.7-8.2s7.4-2.9,11.5-2.9
			c3,0,5.9,0.5,8.7,1.6c2.9,1.1,5.5,2.7,7.9,5c0.3,0.3,0.4,0.5,0.4,0.9s-0.1,0.6-0.3,0.8l-2.9,3.1c-0.2,0.3-0.5,0.4-0.9,0.4
			c-0.3,0-0.5-0.1-0.7-0.3c-1.9-1.5-3.9-2.7-6.1-3.5c-2.2-0.8-4.3-1.2-6.5-1.2c-2.9,0-5.6,0.7-8.1,2s-4.4,3.3-5.9,5.8
			s-2.2,5.4-2.2,8.7c0,3.2,0.8,6,2.5,8.5s3.8,4.4,6.5,5.8c2.7,1.4,5.5,2.1,8.5,2.1c4.4,0,8.3-1.4,11.7-4.2c0.2-0.2,0.4-0.3,0.7-0.3
			c0.3,0,0.6,0.1,0.8,0.3L1383.2,460.5z"/>
		<path d="M1421.7,458.3c0,2.2,0,4.2-0.1,5.8s-0.2,2.7-0.2,3.2c0,0.4-0.1,0.7-0.4,0.9s-0.6,0.4-1,0.4h-3.5c-0.3,0-0.6-0.1-0.9-0.4
			s-0.4-0.6-0.5-0.9l-0.1-2.9c0-0.1,0-0.2-0.1-0.2s-0.1,0-0.2,0.1c-0.9,1.2-2.3,2.3-4.1,3.1s-3.7,1.3-5.4,1.3c-3,0-5.7-0.7-8.2-2.2
			s-4.5-3.5-6-6s-2.2-5.3-2.2-8.2s0.7-5.7,2.2-8.2s3.4-4.5,6-6s5.3-2.2,8.2-2.2c2.9,0,5.5,0.7,8,2.1c2.4,1.4,4.4,3.3,5.9,5.6
			c1.5,2.4,2.3,5,2.4,7.9C1421.6,453.9,1421.7,456.1,1421.7,458.3z M1410.1,460.6c1.5-0.9,2.7-2.1,3.5-3.6s1.3-3.1,1.3-4.9
			s-0.4-3.4-1.3-4.9s-2.1-2.7-3.6-3.5c-1.5-0.9-3.1-1.3-4.9-1.3c-1.7,0-3.3,0.4-4.8,1.3c-1.5,0.9-2.7,2.1-3.6,3.5
			c-0.9,1.5-1.3,3.1-1.3,4.9c0,1.8,0.4,3.4,1.3,4.9c0.9,1.5,2.1,2.7,3.6,3.5c1.5,0.9,3.1,1.3,4.9,1.3
			C1407,462,1408.6,461.5,1410.1,460.6z"/>
		<path d="M1451.5,456.6c0.3,0.9,0.5,1.9,0.5,2.9c0,1.8-0.6,3.4-1.7,4.9s-2.6,2.5-4.4,3.2s-3.8,1.1-5.9,1.1c-2.3,0-4.5-0.5-6.6-1.5
			c-2.1-1-3.8-2.5-5-4.5c-0.1-0.1-0.1-0.4-0.1-0.7c0-0.6,0.2-1,0.6-1.1l3.3-1.8c0.2-0.1,0.3-0.1,0.5-0.1c0.4,0,0.7,0.2,1,0.5
			c0.8,0.8,1.7,1.5,2.9,2.1c1.2,0.5,2.4,0.8,3.5,0.8c1.3,0,2.5-0.3,3.6-0.9c1.1-0.6,1.6-1.4,1.6-2.5s-0.4-1.8-1.3-2.3
			s-2.2-0.9-4.1-1.2c-2.2-0.5-3.8-0.9-4.8-1.3c-2.1-0.8-3.7-2-4.7-3.5c-1.1-1.5-1.6-3.1-1.6-4.9c0-2.3,0.8-4.3,2.6-6.2
			c1.7-1.9,4.1-3,7.1-3.5c0.9-0.1,1.8-0.2,2.7-0.2c4.8,0,8.5,2.1,11.2,6.2c0.1,0.2,0.2,0.4,0.2,0.7c0,0.5-0.2,0.9-0.7,1.1l-2.9,1.7
			c-0.3,0.1-0.5,0.1-0.6,0.1c-0.4,0-0.8-0.2-1.1-0.5c-1.8-2.2-3.9-3.2-6.5-3.2c-0.3,0-0.8,0-1.4,0.1c-1.1,0.2-2,0.5-2.7,1.1
			c-0.8,0.6-1.2,1.2-1.2,1.8c-0.1,1.1,0.1,2,0.7,2.6s1.2,1.2,2.1,1.5s2.2,0.7,3.8,1c1.8,0.4,3.2,0.9,4.3,1.3c1.1,0.4,2.1,1,3.1,1.8
			C1450.4,454.1,1451.1,455.2,1451.5,456.6z"/>
		<path d="M1491.4,458.3c0,2.2,0,4.2-0.1,5.8s-0.2,2.7-0.2,3.2c0,0.4-0.1,0.7-0.4,0.9s-0.6,0.4-1,0.4h-3.5c-0.3,0-0.6-0.1-0.9-0.4
			s-0.4-0.6-0.5-0.9l-0.1-2.9c0-0.1,0-0.2-0.1-0.2s-0.1,0-0.2,0.1c-0.9,1.2-2.3,2.3-4.1,3.1s-3.7,1.3-5.4,1.3c-3,0-5.7-0.7-8.2-2.2
			s-4.5-3.5-6-6s-2.2-5.3-2.2-8.2s0.7-5.7,2.2-8.2s3.4-4.5,6-6s5.3-2.2,8.2-2.2c2.9,0,5.5,0.7,8,2.1c2.4,1.4,4.4,3.3,5.9,5.6
			c1.5,2.4,2.3,5,2.4,7.9C1491.3,453.9,1491.4,456.1,1491.4,458.3z M1479.8,460.6c1.5-0.9,2.7-2.1,3.5-3.6s1.3-3.1,1.3-4.9
			s-0.4-3.4-1.3-4.9s-2.1-2.7-3.6-3.5c-1.5-0.9-3.1-1.3-4.9-1.3c-1.7,0-3.3,0.4-4.8,1.3c-1.5,0.9-2.7,2.1-3.6,3.5
			c-0.9,1.5-1.3,3.1-1.3,4.9c0,1.8,0.4,3.4,1.3,4.9c0.9,1.5,2.1,2.7,3.6,3.5c1.5,0.9,3.1,1.3,4.9,1.3
			C1476.7,462,1478.3,461.5,1479.8,460.6z"/>
		<path d="M1517.6,467.7l-9.3-12.4l-3.1,3.8l-0.2,8.4c0,0.3-0.1,0.6-0.3,0.8s-0.5,0.3-0.8,0.3h-3.9c-0.3,0-0.6-0.1-0.8-0.3
			c-0.2-0.2-0.3-0.5-0.3-0.8l-0.2-10.7v-13.2l0.2-23.7c0-0.3,0.1-0.6,0.3-0.8s0.5-0.3,0.8-0.3h3.9c0.3,0,0.6,0.1,0.8,0.3
			c0.2,0.2,0.3,0.5,0.3,0.8l0.2,23.7v5.2l10.4-12.1c0.4-0.6,1-0.9,1.7-0.9h4.6c0.3,0,0.6,0.1,0.8,0.4c0.2,0.2,0.3,0.5,0.3,0.8
			c0,0.3-0.1,0.5-0.3,0.7l-9.8,12.1c-0.2,0.2-0.2,0.4-0.1,0.7l11.8,16.3c0.2,0.2,0.3,0.4,0.3,0.7s-0.1,0.6-0.4,0.8
			c-0.2,0.2-0.5,0.3-0.8,0.3h-4.2C1518.8,468.6,1518.1,468.3,1517.6,467.7z"/>
		<path d="M1559.8,458.3c0,2.2,0,4.2-0.1,5.8s-0.2,2.7-0.2,3.2c0,0.4-0.1,0.7-0.4,0.9s-0.6,0.4-1,0.4h-3.5c-0.3,0-0.6-0.1-0.9-0.4
			s-0.4-0.6-0.5-0.9l-0.1-2.9c0-0.1,0-0.2-0.1-0.2s-0.1,0-0.2,0.1c-0.9,1.2-2.3,2.3-4.1,3.1s-3.7,1.3-5.4,1.3c-3,0-5.7-0.7-8.2-2.2
			s-4.5-3.5-6-6s-2.2-5.3-2.2-8.2s0.7-5.7,2.2-8.2s3.4-4.5,6-6s5.3-2.2,8.2-2.2c2.9,0,5.5,0.7,8,2.1c2.4,1.4,4.4,3.3,5.9,5.6
			c1.5,2.4,2.3,5,2.4,7.9C1559.7,453.9,1559.8,456.1,1559.8,458.3z M1548.2,460.6c1.5-0.9,2.7-2.1,3.5-3.6s1.3-3.1,1.3-4.9
			s-0.4-3.4-1.3-4.9s-2.1-2.7-3.6-3.5c-1.5-0.9-3.1-1.3-4.9-1.3c-1.7,0-3.3,0.4-4.8,1.3c-1.5,0.9-2.7,2.1-3.6,3.5
			c-0.9,1.5-1.3,3.1-1.3,4.9c0,1.8,0.4,3.4,1.3,4.9c0.9,1.5,2.1,2.7,3.6,3.5c1.5,0.9,3.1,1.3,4.9,1.3
			C1545.1,462,1546.7,461.5,1548.2,460.6z"/>
		<path d="M1567.8,474.5c-0.1-5.1-0.1-9.8-0.1-14.2c0-3,0-5.9,0.1-8.8c0.1-2.9,0.9-5.5,2.4-7.9c1.5-2.4,3.4-4.2,5.9-5.6
			s5.1-2.1,8-2.1c3,0,5.7,0.7,8.2,2.2s4.5,3.5,5.9,6s2.2,5.2,2.2,8.2s-0.7,5.7-2.2,8.2s-3.4,4.5-5.9,6s-5.2,2.2-8.2,2.2
			c-1.7,0-3.5-0.4-5.4-1.3s-3.2-1.9-4.1-3c0-0.1-0.1-0.1-0.2-0.1s-0.1,0.1-0.1,0.2l-0.1,20c0,0.4-0.1,0.7-0.4,0.9s-0.6,0.4-0.9,0.4
			h-3.5c-0.3,0-0.7-0.1-0.9-0.4s-0.4-0.6-0.4-0.9C1568,482.8,1567.9,479.5,1567.8,474.5z M1575.7,457.1c0.9,1.5,2.1,2.7,3.6,3.5
			c1.5,0.9,3.1,1.3,4.9,1.3s3.4-0.4,4.9-1.3c1.5-0.9,2.7-2.1,3.6-3.5c0.9-1.5,1.3-3.1,1.3-4.9c0-1.8-0.4-3.4-1.3-4.9
			s-2.1-2.7-3.6-3.5c-1.5-0.9-3.1-1.3-4.9-1.3s-3.4,0.4-4.9,1.3c-1.5,0.9-2.7,2.1-3.6,3.5c-0.9,1.5-1.3,3.1-1.3,4.9
			C1574.4,454,1574.8,455.6,1575.7,457.1z"/>
	</g>
</g>
<g>
	<path class="st3" d="M1089.4,215.7c-53.7,0.7-97.4,44.9-97.6,98.6c-0.2,38.5,21.7,72,53.7,88.5c13.6,7,29,11,45.3,11
		s31.8-4,45.3-11c31.9-16.4,53.7-49.7,53.7-88C1189.8,259.5,1144.7,214.9,1089.4,215.7z M1090.8,260.7c39.8,0,72,32.2,72,72
		l-64.7-64.7c-4-4-10.5-4-14.6,0l-64.7,64.7C1018.8,292.9,1051,260.7,1090.8,260.7z M1021.1,350.7h15.7l5.9,35.6
		C1032.3,376.9,1024.7,364.6,1021.1,350.7z M1138.9,386.3l5.9-35.6h15.7C1156.9,364.6,1149.3,376.9,1138.9,386.3z"/>
	<g>
		<path d="M1002.3,460.5c0.2,0.2,0.3,0.4,0.3,0.7c0,0.4-0.1,0.6-0.3,0.9c-2.3,2.2-4.8,3.8-7.6,4.9c-2.8,1.1-5.7,1.6-8.7,1.6
			c-4.1,0-8-1-11.7-2.9s-6.6-4.7-8.9-8.2s-3.4-7.6-3.4-12.1c0-4.6,1.1-8.7,3.3-12.2c2.2-3.5,5.1-6.3,8.7-8.2s7.4-2.9,11.5-2.9
			c3,0,5.9,0.5,8.7,1.6c2.9,1.1,5.5,2.7,7.9,5c0.3,0.3,0.4,0.5,0.4,0.9s-0.1,0.6-0.3,0.8l-2.9,3.1c-0.2,0.3-0.5,0.4-0.9,0.4
			c-0.3,0-0.5-0.1-0.7-0.3c-1.9-1.5-3.9-2.7-6.1-3.5c-2.2-0.8-4.3-1.2-6.5-1.2c-2.9,0-5.6,0.7-8.1,2s-4.4,3.3-5.9,5.8
			s-2.2,5.4-2.2,8.7c0,3.2,0.8,6,2.5,8.5s3.8,4.4,6.5,5.8c2.7,1.4,5.5,2.1,8.5,2.1c4.4,0,8.3-1.4,11.7-4.2c0.2-0.2,0.4-0.3,0.7-0.3
			c0.3,0,0.6,0.1,0.8,0.3L1002.3,460.5z"/>
		<path d="M1040.8,458.3c0,2.2,0,4.2-0.1,5.8s-0.2,2.7-0.2,3.2c0,0.4-0.1,0.7-0.4,0.9s-0.6,0.4-1,0.4h-3.5c-0.3,0-0.6-0.1-0.9-0.4
			s-0.4-0.6-0.5-0.9l-0.1-2.9c0-0.1,0-0.2-0.1-0.2s-0.1,0-0.2,0.1c-0.9,1.2-2.3,2.3-4.1,3.1s-3.7,1.3-5.4,1.3c-3,0-5.7-0.7-8.2-2.2
			c-2.5-1.5-4.5-3.5-6-6c-1.5-2.5-2.2-5.3-2.2-8.2s0.7-5.7,2.2-8.2s3.5-4.5,6-6s5.3-2.2,8.2-2.2c2.9,0,5.5,0.7,8,2.1
			c2.4,1.4,4.4,3.3,5.9,5.6c1.5,2.4,2.3,5,2.4,7.9C1040.7,453.9,1040.8,456.1,1040.8,458.3z M1029.2,460.6c1.5-0.9,2.7-2.1,3.5-3.6
			s1.3-3.1,1.3-4.9s-0.4-3.4-1.3-4.9s-2.1-2.7-3.6-3.5c-1.5-0.9-3.1-1.3-4.9-1.3c-1.7,0-3.3,0.4-4.8,1.3c-1.5,0.9-2.7,2.1-3.5,3.5
			c-0.9,1.5-1.3,3.1-1.3,4.9c0,1.8,0.4,3.4,1.3,4.9c0.9,1.5,2.1,2.7,3.5,3.5c1.5,0.9,3.1,1.3,4.9,1.3
			C1026.1,462,1027.7,461.5,1029.2,460.6z"/>
		<path d="M1070.7,456.6c0.3,0.9,0.5,1.9,0.5,2.9c0,1.8-0.6,3.4-1.7,4.9s-2.6,2.5-4.4,3.2s-3.8,1.1-5.9,1.1c-2.3,0-4.5-0.5-6.6-1.5
			c-2.1-1-3.8-2.5-5-4.5c-0.1-0.1-0.1-0.4-0.1-0.7c0-0.6,0.2-1,0.6-1.1l3.3-1.8c0.2-0.1,0.3-0.1,0.5-0.1c0.4,0,0.7,0.2,1,0.5
			c0.8,0.8,1.7,1.5,2.9,2.1c1.2,0.5,2.4,0.8,3.5,0.8c1.3,0,2.5-0.3,3.6-0.9c1.1-0.6,1.6-1.4,1.6-2.5s-0.4-1.8-1.3-2.3
			s-2.2-0.9-4.1-1.2c-2.2-0.5-3.8-0.9-4.8-1.3c-2.1-0.8-3.7-2-4.7-3.5c-1.1-1.5-1.6-3.1-1.6-4.9c0-2.3,0.8-4.3,2.6-6.2
			c1.7-1.9,4.1-3,7.1-3.5c0.9-0.1,1.8-0.2,2.7-0.2c4.8,0,8.5,2.1,11.2,6.2c0.1,0.2,0.2,0.4,0.2,0.7c0,0.5-0.2,0.9-0.7,1.1l-2.9,1.7
			c-0.3,0.1-0.5,0.1-0.6,0.1c-0.4,0-0.8-0.2-1.1-0.5c-1.8-2.2-3.9-3.2-6.5-3.2c-0.3,0-0.8,0-1.4,0.1c-1.1,0.2-2,0.5-2.7,1.1
			c-0.8,0.6-1.2,1.2-1.2,1.8c-0.1,1.1,0.1,2,0.7,2.6s1.2,1.2,2.1,1.5s2.2,0.7,3.8,1c1.8,0.4,3.2,0.9,4.3,1.3c1.1,0.4,2.1,1,3.1,1.8
			C1069.5,454.1,1070.2,455.2,1070.7,456.6z"/>
		<path d="M1110.6,458.3c0,2.2,0,4.2-0.1,5.8s-0.2,2.7-0.2,3.2c0,0.4-0.1,0.7-0.4,0.9s-0.6,0.4-1,0.4h-3.5c-0.3,0-0.6-0.1-0.9-0.4
			s-0.4-0.6-0.5-0.9l-0.1-2.9c0-0.1,0-0.2-0.1-0.2s-0.1,0-0.2,0.1c-0.9,1.2-2.3,2.3-4.1,3.1s-3.7,1.3-5.4,1.3c-3,0-5.7-0.7-8.2-2.2
			s-4.5-3.5-6-6s-2.2-5.3-2.2-8.2s0.7-5.7,2.2-8.2s3.4-4.5,6-6s5.3-2.2,8.2-2.2c2.9,0,5.5,0.7,8,2.1c2.4,1.4,4.4,3.3,5.9,5.6
			c1.5,2.4,2.3,5,2.4,7.9C1110.5,453.9,1110.6,456.1,1110.6,458.3z M1099,460.6c1.5-0.9,2.7-2.1,3.5-3.6s1.3-3.1,1.3-4.9
			s-0.4-3.4-1.3-4.9s-2.1-2.7-3.6-3.5c-1.5-0.9-3.1-1.3-4.9-1.3c-1.7,0-3.3,0.4-4.8,1.3c-1.5,0.9-2.7,2.1-3.6,3.5
			c-0.9,1.5-1.3,3.1-1.3,4.9c0,1.8,0.4,3.4,1.3,4.9c0.9,1.5,2.1,2.7,3.6,3.5c1.5,0.9,3.1,1.3,4.9,1.3
			C1095.9,462,1097.5,461.5,1099,460.6z"/>
		<path d="M1136.8,467.7l-9.3-12.4l-3.1,3.8l-0.2,8.4c0,0.3-0.1,0.6-0.3,0.8s-0.5,0.3-0.8,0.3h-3.9c-0.3,0-0.6-0.1-0.8-0.3
			c-0.2-0.2-0.3-0.5-0.3-0.8l-0.2-10.7v-13.2l0.2-23.7c0-0.3,0.1-0.6,0.3-0.8s0.5-0.3,0.8-0.3h3.9c0.3,0,0.6,0.1,0.8,0.3
			c0.2,0.2,0.3,0.5,0.3,0.8l0.2,23.7v5.2l10.4-12.1c0.4-0.6,1-0.9,1.7-0.9h4.6c0.3,0,0.6,0.1,0.8,0.4c0.2,0.2,0.3,0.5,0.3,0.8
			c0,0.3-0.1,0.5-0.3,0.7l-9.8,12.1c-0.2,0.2-0.2,0.4-0.1,0.7l11.8,16.3c0.2,0.2,0.3,0.4,0.3,0.7s-0.1,0.6-0.4,0.8
			c-0.2,0.2-0.5,0.3-0.8,0.3h-4.2C1137.9,468.6,1137.3,468.3,1136.8,467.7z"/>
		<path d="M1178.9,458.3c0,2.2,0,4.2-0.1,5.8s-0.2,2.7-0.2,3.2c0,0.4-0.1,0.7-0.4,0.9s-0.6,0.4-1,0.4h-3.5c-0.3,0-0.6-0.1-0.9-0.4
			s-0.4-0.6-0.5-0.9l-0.1-2.9c0-0.1,0-0.2-0.1-0.2s-0.1,0-0.2,0.1c-0.9,1.2-2.3,2.3-4.1,3.1s-3.7,1.3-5.4,1.3c-3,0-5.7-0.7-8.2-2.2
			s-4.5-3.5-6-6s-2.2-5.3-2.2-8.2s0.7-5.7,2.2-8.2s3.4-4.5,6-6s5.3-2.2,8.2-2.2c2.9,0,5.5,0.7,8,2.1c2.4,1.4,4.4,3.3,5.9,5.6
			c1.5,2.4,2.3,5,2.4,7.9C1178.9,453.9,1178.9,456.1,1178.9,458.3z M1167.4,460.6c1.5-0.9,2.7-2.1,3.5-3.6s1.3-3.1,1.3-4.9
			s-0.4-3.4-1.3-4.9s-2.1-2.7-3.6-3.5c-1.5-0.9-3.1-1.3-4.9-1.3c-1.7,0-3.3,0.4-4.8,1.3c-1.5,0.9-2.7,2.1-3.6,3.5
			c-0.9,1.5-1.3,3.1-1.3,4.9c0,1.8,0.4,3.4,1.3,4.9c0.9,1.5,2.1,2.7,3.6,3.5c1.5,0.9,3.1,1.3,4.9,1.3
			C1164.2,462,1165.9,461.5,1167.4,460.6z"/>
		<path d="M1187,474.5c-0.1-5.1-0.1-9.8-0.1-14.2c0-3,0-5.9,0.1-8.8c0.1-2.9,0.9-5.5,2.4-7.9c1.5-2.4,3.4-4.2,5.9-5.6s5.1-2.1,8-2.1
			c3,0,5.7,0.7,8.2,2.2s4.5,3.5,5.9,6s2.2,5.2,2.2,8.2s-0.7,5.7-2.2,8.2s-3.4,4.5-5.9,6s-5.2,2.2-8.2,2.2c-1.7,0-3.5-0.4-5.4-1.3
			s-3.2-1.9-4.1-3c0-0.1-0.1-0.1-0.2-0.1s-0.1,0.1-0.1,0.2l-0.1,20c0,0.4-0.1,0.7-0.4,0.9s-0.6,0.4-0.9,0.4h-3.5
			c-0.3,0-0.7-0.1-0.9-0.4s-0.4-0.6-0.4-0.9C1187.1,482.8,1187.1,479.5,1187,474.5z M1194.9,457.1c0.9,1.5,2.1,2.7,3.6,3.5
			c1.5,0.9,3.1,1.3,4.9,1.3s3.4-0.4,4.9-1.3c1.5-0.9,2.7-2.1,3.6-3.5c0.9-1.5,1.3-3.1,1.3-4.9c0-1.8-0.4-3.4-1.3-4.9
			s-2.1-2.7-3.6-3.5c-1.5-0.9-3.1-1.3-4.9-1.3s-3.4,0.4-4.9,1.3c-1.5,0.9-2.7,2.1-3.6,3.5c-0.9,1.5-1.3,3.1-1.3,4.9
			C1193.6,454,1194,455.6,1194.9,457.1z"/>
	</g>
</g>
<g>
	<path class="st4" d="M1851.1,215.7c-53.7,0.7-97.4,44.9-97.6,98.6c-0.2,38.5,21.7,72,53.7,88.5c13.6,7,29,11,45.3,11
		s31.8-4,45.3-11c31.9-16.4,53.7-49.7,53.7-88C1951.5,259.5,1906.4,214.9,1851.1,215.7z M1852.5,260.7c39.8,0,72,32.2,72,72
		l-64.7-64.7c-4-4-10.5-4-14.6,0l-64.7,64.7C1780.5,292.9,1812.7,260.7,1852.5,260.7z M1782.8,350.7h15.7l5.9,35.6
		C1794,376.9,1786.3,364.6,1782.8,350.7z M1900.6,386.3l5.9-35.6h15.7C1918.6,364.6,1911,376.9,1900.6,386.3z"/>
	<g>
		<path d="M1764,460.5c0.2,0.2,0.3,0.4,0.3,0.7c0,0.4-0.1,0.6-0.3,0.9c-2.3,2.2-4.8,3.8-7.6,4.9c-2.8,1.1-5.7,1.6-8.7,1.6
			c-4.1,0-8-1-11.7-2.9s-6.6-4.7-8.9-8.2s-3.4-7.6-3.4-12.1c0-4.6,1.1-8.7,3.3-12.2c2.2-3.5,5.1-6.3,8.7-8.2s7.4-2.9,11.5-2.9
			c3,0,5.9,0.5,8.7,1.6c2.9,1.1,5.5,2.7,7.9,5c0.3,0.3,0.4,0.5,0.4,0.9s-0.1,0.6-0.3,0.8l-2.9,3.1c-0.2,0.3-0.5,0.4-0.9,0.4
			c-0.3,0-0.5-0.1-0.7-0.3c-1.9-1.5-3.9-2.7-6.1-3.5c-2.2-0.8-4.3-1.2-6.5-1.2c-2.9,0-5.6,0.7-8.1,2s-4.4,3.3-5.9,5.8
			s-2.2,5.4-2.2,8.7c0,3.2,0.8,6,2.5,8.5s3.8,4.4,6.5,5.8c2.7,1.4,5.5,2.1,8.5,2.1c4.4,0,8.3-1.4,11.7-4.2c0.2-0.2,0.4-0.3,0.7-0.3
			c0.3,0,0.6,0.1,0.8,0.3L1764,460.5z"/>
		<path d="M1802.5,458.3c0,2.2,0,4.2-0.1,5.8s-0.2,2.7-0.2,3.2c0,0.4-0.1,0.7-0.4,0.9s-0.6,0.4-1,0.4h-3.5c-0.3,0-0.6-0.1-0.9-0.4
			s-0.4-0.6-0.5-0.9l-0.1-2.9c0-0.1,0-0.2-0.1-0.2s-0.1,0-0.2,0.1c-0.9,1.2-2.3,2.3-4.1,3.1s-3.7,1.3-5.4,1.3c-3,0-5.7-0.7-8.2-2.2
			s-4.5-3.5-6-6s-2.2-5.3-2.2-8.2s0.7-5.7,2.2-8.2s3.4-4.5,6-6s5.3-2.2,8.2-2.2c2.9,0,5.5,0.7,8,2.1c2.4,1.4,4.4,3.3,5.9,5.6
			c1.5,2.4,2.3,5,2.4,7.9C1802.4,453.9,1802.5,456.1,1802.5,458.3z M1790.9,460.6c1.5-0.9,2.7-2.1,3.5-3.6s1.3-3.1,1.3-4.9
			s-0.4-3.4-1.3-4.9s-2.1-2.7-3.6-3.5c-1.5-0.9-3.1-1.3-4.9-1.3c-1.7,0-3.3,0.4-4.8,1.3c-1.5,0.9-2.7,2.1-3.6,3.5
			c-0.9,1.5-1.3,3.1-1.3,4.9c0,1.8,0.4,3.4,1.3,4.9c0.9,1.5,2.1,2.7,3.6,3.5c1.5,0.9,3.1,1.3,4.9,1.3
			C1787.8,462,1789.4,461.5,1790.9,460.6z"/>
		<path d="M1832.4,456.6c0.3,0.9,0.5,1.9,0.5,2.9c0,1.8-0.6,3.4-1.7,4.9s-2.6,2.5-4.4,3.2s-3.8,1.1-5.9,1.1c-2.3,0-4.5-0.5-6.6-1.5
			c-2.1-1-3.8-2.5-5-4.5c-0.1-0.1-0.1-0.4-0.1-0.7c0-0.6,0.2-1,0.6-1.1l3.3-1.8c0.2-0.1,0.3-0.1,0.5-0.1c0.4,0,0.7,0.2,1,0.5
			c0.8,0.8,1.7,1.5,2.9,2.1c1.2,0.5,2.4,0.8,3.5,0.8c1.3,0,2.5-0.3,3.6-0.9c1.1-0.6,1.6-1.4,1.6-2.5s-0.4-1.8-1.3-2.3
			s-2.2-0.9-4.1-1.2c-2.2-0.5-3.8-0.9-4.8-1.3c-2.1-0.8-3.7-2-4.7-3.5c-1.1-1.5-1.6-3.1-1.6-4.9c0-2.3,0.8-4.3,2.6-6.2
			c1.7-1.9,4.1-3,7.1-3.5c0.9-0.1,1.8-0.2,2.7-0.2c4.8,0,8.5,2.1,11.2,6.2c0.1,0.2,0.2,0.4,0.2,0.7c0,0.5-0.2,0.9-0.7,1.1l-2.9,1.7
			c-0.3,0.1-0.5,0.1-0.6,0.1c-0.4,0-0.8-0.2-1.1-0.5c-1.8-2.2-3.9-3.2-6.5-3.2c-0.3,0-0.8,0-1.4,0.1c-1.1,0.2-2,0.5-2.7,1.1
			c-0.8,0.6-1.2,1.2-1.2,1.8c-0.1,1.1,0.1,2,0.7,2.6s1.2,1.2,2.1,1.5s2.2,0.7,3.8,1c1.8,0.4,3.2,0.9,4.3,1.3c1.1,0.4,2.1,1,3.1,1.8
			C1831.2,454.1,1831.9,455.2,1832.4,456.6z"/>
		<path d="M1872.3,458.3c0,2.2,0,4.2-0.1,5.8s-0.2,2.7-0.2,3.2c0,0.4-0.1,0.7-0.4,0.9s-0.6,0.4-1,0.4h-3.5c-0.3,0-0.6-0.1-0.9-0.4
			s-0.4-0.6-0.5-0.9l-0.1-2.9c0-0.1,0-0.2-0.1-0.2s-0.1,0-0.2,0.1c-0.9,1.2-2.3,2.3-4.1,3.1s-3.7,1.3-5.4,1.3c-3,0-5.7-0.7-8.2-2.2
			s-4.5-3.5-6-6s-2.2-5.3-2.2-8.2s0.7-5.7,2.2-8.2s3.4-4.5,6-6s5.3-2.2,8.2-2.2c2.9,0,5.5,0.7,8,2.1c2.4,1.4,4.4,3.3,5.9,5.6
			c1.5,2.4,2.3,5,2.4,7.9C1872.2,453.9,1872.3,456.1,1872.3,458.3z M1860.7,460.6c1.5-0.9,2.7-2.1,3.5-3.6s1.3-3.1,1.3-4.9
			s-0.4-3.4-1.3-4.9s-2.1-2.7-3.6-3.5c-1.5-0.9-3.1-1.3-4.9-1.3c-1.7,0-3.3,0.4-4.8,1.3c-1.5,0.9-2.7,2.1-3.6,3.5
			c-0.9,1.5-1.3,3.1-1.3,4.9c0,1.8,0.4,3.4,1.3,4.9c0.9,1.5,2.1,2.7,3.6,3.5c1.5,0.9,3.1,1.3,4.9,1.3
			C1857.6,462,1859.2,461.5,1860.7,460.6z"/>
		<path d="M1898.5,467.7l-9.3-12.4l-3.1,3.8l-0.2,8.4c0,0.3-0.1,0.6-0.3,0.8s-0.5,0.3-0.8,0.3h-3.9c-0.3,0-0.6-0.1-0.8-0.3
			c-0.2-0.2-0.3-0.5-0.3-0.8l-0.2-10.7v-13.2l0.2-23.7c0-0.3,0.1-0.6,0.3-0.8s0.5-0.3,0.8-0.3h3.9c0.3,0,0.6,0.1,0.8,0.3
			c0.2,0.2,0.3,0.5,0.3,0.8l0.2,23.7v5.2l10.4-12.1c0.4-0.6,1-0.9,1.7-0.9h4.6c0.3,0,0.6,0.1,0.8,0.4c0.2,0.2,0.3,0.5,0.3,0.8
			c0,0.3-0.1,0.5-0.3,0.7l-9.8,12.1c-0.2,0.2-0.2,0.4-0.1,0.7l11.8,16.3c0.2,0.2,0.3,0.4,0.3,0.7s-0.1,0.6-0.4,0.8
			c-0.2,0.2-0.5,0.3-0.8,0.3h-4.2C1899.6,468.6,1899,468.3,1898.5,467.7z"/>
		<path d="M1940.7,458.3c0,2.2,0,4.2-0.1,5.8s-0.2,2.7-0.2,3.2c0,0.4-0.1,0.7-0.4,0.9s-0.6,0.4-1,0.4h-3.5c-0.3,0-0.6-0.1-0.9-0.4
			s-0.4-0.6-0.5-0.9l-0.1-2.9c0-0.1,0-0.2-0.1-0.2s-0.1,0-0.2,0.1c-0.9,1.2-2.3,2.3-4.1,3.1s-3.7,1.3-5.4,1.3c-3,0-5.7-0.7-8.2-2.2
			s-4.5-3.5-6-6s-2.2-5.3-2.2-8.2s0.7-5.7,2.2-8.2s3.4-4.5,6-6s5.3-2.2,8.2-2.2c2.9,0,5.5,0.7,8,2.1c2.4,1.4,4.4,3.3,5.9,5.6
			c1.5,2.4,2.3,5,2.4,7.9C1940.6,453.9,1940.7,456.1,1940.7,458.3z M1929.1,460.6c1.5-0.9,2.7-2.1,3.5-3.6s1.3-3.1,1.3-4.9
			s-0.4-3.4-1.3-4.9s-2.1-2.7-3.6-3.5c-1.5-0.9-3.1-1.3-4.9-1.3c-1.7,0-3.3,0.4-4.8,1.3c-1.5,0.9-2.7,2.1-3.6,3.5
			c-0.9,1.5-1.3,3.1-1.3,4.9c0,1.8,0.4,3.4,1.3,4.9c0.9,1.5,2.1,2.7,3.6,3.5c1.5,0.9,3.1,1.3,4.9,1.3
			C1926,462,1927.6,461.5,1929.1,460.6z"/>
		<path d="M1948.7,474.5c-0.1-5.1-0.1-9.8-0.1-14.2c0-3,0-5.9,0.1-8.8c0.1-2.9,0.9-5.5,2.4-7.9c1.5-2.4,3.4-4.2,5.9-5.6
			s5.1-2.1,8-2.1c3,0,5.7,0.7,8.2,2.2s4.5,3.5,5.9,6s2.2,5.2,2.2,8.2s-0.7,5.7-2.2,8.2s-3.4,4.5-5.9,6s-5.2,2.2-8.2,2.2
			c-1.7,0-3.5-0.4-5.4-1.3s-3.2-1.9-4.1-3c0-0.1-0.1-0.1-0.2-0.1s-0.1,0.1-0.1,0.2l-0.1,20c0,0.4-0.1,0.7-0.4,0.9s-0.6,0.4-0.9,0.4
			h-3.5c-0.3,0-0.7-0.1-0.9-0.4s-0.4-0.6-0.4-0.9C1948.8,482.8,1948.8,479.5,1948.7,474.5z M1956.6,457.1c0.9,1.5,2.1,2.7,3.6,3.5
			c1.5,0.9,3.1,1.3,4.9,1.3s3.4-0.4,4.9-1.3c1.5-0.9,2.7-2.1,3.6-3.5c0.9-1.5,1.3-3.1,1.3-4.9c0-1.8-0.4-3.4-1.3-4.9
			s-2.1-2.7-3.6-3.5c-1.5-0.9-3.1-1.3-4.9-1.3s-3.4,0.4-4.9,1.3c-1.5,0.9-2.7,2.1-3.6,3.5c-0.9,1.5-1.3,3.1-1.3,4.9
			C1955.2,454,1955.7,455.6,1956.6,457.1z"/>
	</g>
</g>
<g>
	<path class="st5" d="M1851.1-162.3c-53.7,0.7-97.4,44.9-97.6,98.6c-0.2,38.5,21.7,71.9,53.7,88.4c13.6,7,29,11,45.3,11
		s31.8-4,45.3-11c31.9-16.4,53.7-49.7,53.7-88C1951.5-118.5,1906.4-163.1,1851.1-162.3z M1852.5-117.3c39.8,0,72,32.2,72,72
		l-64.7-64.7c-4-4-10.5-4-14.6,0l-64.7,64.7C1780.5-85.1,1812.7-117.3,1852.5-117.3z M1782.8-27.3h15.7l5.9,35.6
		C1794-1.1,1786.3-13.4,1782.8-27.3z M1900.6,8.3l5.9-35.6h15.7C1918.6-13.4,1911-1.1,1900.6,8.3z"/>
	<g>
		<path d="M1764,82.5c0.2,0.2,0.3,0.4,0.3,0.7c0,0.4-0.1,0.6-0.3,0.9c-2.3,2.2-4.8,3.8-7.6,4.9c-2.8,1.1-5.7,1.6-8.7,1.6
			c-4.1,0-8-1-11.7-2.9s-6.6-4.7-8.9-8.2c-2.3-3.5-3.4-7.6-3.4-12.2c0-4.6,1.1-8.7,3.3-12.2c2.2-3.5,5.1-6.3,8.7-8.2
			s7.4-2.9,11.5-2.9c3,0,5.9,0.5,8.7,1.6c2.9,1.1,5.5,2.7,7.9,5c0.3,0.3,0.4,0.5,0.4,0.9s-0.1,0.6-0.3,0.8l-2.9,3.1
			c-0.2,0.3-0.5,0.4-0.9,0.4c-0.3,0-0.5-0.1-0.7-0.3c-1.9-1.5-3.9-2.7-6.1-3.5c-2.2-0.8-4.3-1.2-6.5-1.2c-2.9,0-5.6,0.7-8.1,2
			s-4.4,3.3-5.9,5.8s-2.2,5.4-2.2,8.7c0,3.2,0.8,6,2.5,8.5s3.8,4.4,6.5,5.8c2.7,1.4,5.5,2.1,8.5,2.1c4.4,0,8.3-1.4,11.7-4.2
			c0.2-0.2,0.4-0.3,0.7-0.3c0.3,0,0.6,0.1,0.8,0.3L1764,82.5z"/>
		<path d="M1802.5,80.3c0,2.2,0,4.2-0.1,5.8s-0.2,2.7-0.2,3.2c0,0.4-0.1,0.7-0.4,0.9s-0.6,0.4-1,0.4h-3.5c-0.3,0-0.6-0.1-0.9-0.4
			s-0.4-0.6-0.5-0.9l-0.1-2.9c0-0.1,0-0.2-0.1-0.2s-0.1,0-0.2,0.1c-0.9,1.2-2.3,2.3-4.1,3.1c-1.9,0.8-3.7,1.3-5.4,1.3
			c-3,0-5.7-0.7-8.2-2.2s-4.5-3.4-6-6c-1.5-2.5-2.2-5.3-2.2-8.2s0.7-5.7,2.2-8.2s3.4-4.5,6-6s5.3-2.2,8.2-2.2c2.9,0,5.5,0.7,8,2.1
			c2.4,1.4,4.4,3.3,5.9,5.6c1.5,2.4,2.3,5,2.4,7.9C1802.4,75.8,1802.5,78.1,1802.5,80.3z M1790.9,82.7c1.5-0.9,2.7-2.1,3.5-3.6
			s1.3-3.1,1.3-4.9s-0.4-3.4-1.3-4.9c-0.9-1.5-2.1-2.7-3.6-3.5c-1.5-0.9-3.1-1.3-4.9-1.3c-1.7,0-3.3,0.4-4.8,1.3
			c-1.5,0.9-2.7,2.1-3.6,3.6c-0.9,1.5-1.3,3.1-1.3,4.9s0.4,3.4,1.3,4.9c0.9,1.5,2.1,2.7,3.6,3.6c1.5,0.9,3.1,1.3,4.9,1.3
			C1787.8,84,1789.4,83.5,1790.9,82.7z"/>
		<path d="M1832.4,78.6c0.3,0.9,0.5,1.9,0.5,2.8c0,1.8-0.6,3.4-1.7,4.8s-2.6,2.5-4.4,3.2s-3.8,1.1-5.9,1.1c-2.3,0-4.5-0.5-6.6-1.5
			c-2.1-1-3.8-2.5-5-4.5c-0.1-0.1-0.1-0.3-0.1-0.7c0-0.6,0.2-0.9,0.6-1.1l3.3-1.8c0.2-0.1,0.3-0.1,0.5-0.1c0.4,0,0.7,0.2,1,0.5
			c0.8,0.8,1.7,1.5,2.9,2.1c1.2,0.5,2.4,0.8,3.5,0.8c1.3,0,2.5-0.3,3.6-0.9c1.1-0.6,1.6-1.4,1.6-2.5s-0.4-1.8-1.3-2.3
			s-2.2-0.9-4.1-1.2c-2.2-0.5-3.8-0.9-4.8-1.3c-2.1-0.8-3.7-2-4.7-3.5c-1.1-1.5-1.6-3.1-1.6-4.8c0-2.3,0.8-4.3,2.6-6.2
			c1.7-1.9,4.1-3,7.1-3.5c0.9-0.1,1.8-0.2,2.7-0.2c4.8,0,8.5,2.1,11.2,6.2c0.1,0.2,0.2,0.4,0.2,0.7c0,0.5-0.2,0.9-0.7,1.1l-2.9,1.7
			c-0.3,0.1-0.5,0.1-0.6,0.1c-0.4,0-0.8-0.2-1.1-0.5c-1.8-2.2-3.9-3.2-6.5-3.2c-0.3,0-0.8,0-1.4,0.1c-1.1,0.2-2,0.6-2.7,1.1
			c-0.8,0.6-1.2,1.2-1.2,1.8c-0.1,1.1,0.1,2,0.7,2.7s1.2,1.2,2.1,1.5c0.9,0.3,2.2,0.7,3.8,1c1.8,0.4,3.2,0.9,4.3,1.3
			c1.1,0.4,2.1,1,3.1,1.8C1831.2,76.1,1831.9,77.2,1832.4,78.6z"/>
		<path d="M1872.3,80.3c0,2.2,0,4.2-0.1,5.8s-0.2,2.7-0.2,3.2c0,0.4-0.1,0.7-0.4,0.9s-0.6,0.4-1,0.4h-3.5c-0.3,0-0.6-0.1-0.9-0.4
			s-0.4-0.6-0.5-0.9l-0.1-2.9c0-0.1,0-0.2-0.1-0.2s-0.1,0-0.2,0.1c-0.9,1.2-2.3,2.3-4.1,3.1c-1.9,0.8-3.7,1.3-5.4,1.3
			c-3,0-5.7-0.7-8.2-2.2s-4.5-3.4-6-6c-1.5-2.5-2.2-5.3-2.2-8.2s0.7-5.7,2.2-8.2s3.4-4.5,6-6s5.3-2.2,8.2-2.2c2.9,0,5.5,0.7,8,2.1
			c2.4,1.4,4.4,3.3,5.9,5.6c1.5,2.4,2.3,5,2.4,7.9C1872.2,75.8,1872.3,78.1,1872.3,80.3z M1860.7,82.7c1.5-0.9,2.7-2.1,3.5-3.6
			s1.3-3.1,1.3-4.9s-0.4-3.4-1.3-4.9c-0.9-1.5-2.1-2.7-3.6-3.5c-1.5-0.9-3.1-1.3-4.9-1.3c-1.7,0-3.3,0.4-4.8,1.3
			c-1.5,0.9-2.7,2.1-3.6,3.6c-0.9,1.5-1.3,3.1-1.3,4.9s0.4,3.4,1.3,4.9c0.9,1.5,2.1,2.7,3.6,3.6c1.5,0.9,3.1,1.3,4.9,1.3
			C1857.6,84,1859.2,83.5,1860.7,82.7z"/>
		<path d="M1898.5,89.7l-9.3-12.3l-3.1,3.8l-0.2,8.4c0,0.3-0.1,0.6-0.3,0.8s-0.5,0.3-0.8,0.3h-3.9c-0.3,0-0.6-0.1-0.8-0.3
			c-0.2-0.2-0.3-0.5-0.3-0.8l-0.2-10.7V65.6l0.2-23.7c0-0.3,0.1-0.6,0.3-0.8c0.2-0.2,0.5-0.3,0.8-0.3h3.9c0.3,0,0.6,0.1,0.8,0.3
			c0.2,0.2,0.3,0.5,0.3,0.8l0.2,23.7v5.2l10.4-12.2c0.4-0.6,1-0.9,1.7-0.9h4.6c0.3,0,0.6,0.1,0.8,0.4c0.2,0.2,0.3,0.5,0.3,0.8
			c0,0.3-0.1,0.5-0.3,0.7l-9.8,12.1c-0.2,0.2-0.2,0.4-0.1,0.7l11.8,16.3c0.2,0.2,0.3,0.4,0.3,0.7c0,0.3-0.1,0.6-0.4,0.8
			c-0.2,0.2-0.5,0.3-0.8,0.3h-4.2C1899.6,90.6,1899,90.3,1898.5,89.7z"/>
		<path d="M1940.7,80.3c0,2.2,0,4.2-0.1,5.8s-0.2,2.7-0.2,3.2c0,0.4-0.1,0.7-0.4,0.9s-0.6,0.4-1,0.4h-3.5c-0.3,0-0.6-0.1-0.9-0.4
			s-0.4-0.6-0.5-0.9l-0.1-2.9c0-0.1,0-0.2-0.1-0.2s-0.1,0-0.2,0.1c-0.9,1.2-2.3,2.3-4.1,3.1c-1.9,0.8-3.7,1.3-5.4,1.3
			c-3,0-5.7-0.7-8.2-2.2s-4.5-3.4-6-6c-1.5-2.5-2.2-5.3-2.2-8.2s0.7-5.7,2.2-8.2s3.4-4.5,6-6s5.3-2.2,8.2-2.2c2.9,0,5.5,0.7,8,2.1
			c2.4,1.4,4.4,3.3,5.9,5.6c1.5,2.4,2.3,5,2.4,7.9C1940.6,75.8,1940.7,78.1,1940.7,80.3z M1929.1,82.7c1.5-0.9,2.7-2.1,3.5-3.6
			s1.3-3.1,1.3-4.9s-0.4-3.4-1.3-4.9c-0.9-1.5-2.1-2.7-3.6-3.5c-1.5-0.9-3.1-1.3-4.9-1.3c-1.7,0-3.3,0.4-4.8,1.3
			c-1.5,0.9-2.7,2.1-3.6,3.6c-0.9,1.5-1.3,3.1-1.3,4.9s0.4,3.4,1.3,4.9c0.9,1.5,2.1,2.7,3.6,3.6c1.5,0.9,3.1,1.3,4.9,1.3
			C1926,84,1927.6,83.5,1929.1,82.7z"/>
		<path d="M1948.7,96.4c-0.1-5.1-0.1-9.8-0.1-14.2c0-3,0-5.9,0.1-8.8c0.1-2.9,0.9-5.5,2.4-7.9c1.5-2.4,3.4-4.2,5.9-5.6
			s5.1-2.1,8-2.1c3,0,5.7,0.7,8.2,2.2s4.5,3.5,5.9,6c1.5,2.5,2.2,5.2,2.2,8.2s-0.7,5.7-2.2,8.2s-3.4,4.5-5.9,6s-5.2,2.2-8.2,2.2
			c-1.7,0-3.5-0.4-5.4-1.3c-1.9-0.8-3.2-1.9-4.1-3.1c0-0.1-0.1-0.1-0.2-0.1c-0.1,0-0.1,0.1-0.1,0.2l-0.1,20c0,0.3-0.1,0.7-0.4,0.9
			s-0.6,0.4-0.9,0.4h-3.5c-0.3,0-0.7-0.1-0.9-0.4s-0.4-0.6-0.4-0.9C1948.8,104.8,1948.8,101.5,1948.7,96.4z M1956.6,79.1
			c0.9,1.5,2.1,2.7,3.6,3.6c1.5,0.9,3.1,1.3,4.9,1.3s3.4-0.4,4.9-1.3c1.5-0.9,2.7-2.1,3.6-3.6s1.3-3.1,1.3-4.9s-0.4-3.4-1.3-4.9
			c-0.9-1.5-2.1-2.7-3.6-3.6c-1.5-0.9-3.1-1.3-4.9-1.3s-3.4,0.4-4.9,1.3s-2.7,2.1-3.6,3.6c-0.9,1.5-1.3,3.1-1.3,4.9
			C1955.2,76,1955.7,77.6,1956.6,79.1z"/>
	</g>
</g>
<path class="st6" d="M1470.2-162.3c-53.7,0.7-97.4,44.9-97.6,98.6c-0.2,38.5,21.7,71.9,53.7,88.4c13.6,7,29,11,45.3,11
	s31.8-4,45.3-11c31.9-16.4,53.7-49.7,53.7-88C1570.6-118.5,1525.6-163.1,1470.2-162.3z M1471.6-117.3c39.8,0,72,32.2,72,72
	l-64.7-64.7c-4-4-10.5-4-14.6,0l-64.7,64.7C1399.6-85.1,1431.9-117.3,1471.6-117.3z M1401.9-27.3h15.7l5.9,35.6
	C1413.2-1.1,1405.5-13.4,1401.9-27.3z M1519.7,8.3l5.9-35.6h15.7C1537.8-13.4,1530.1-1.1,1519.7,8.3z"/>
<g>
	<g>
		<path class="st0" d="M127.5,16.4c61.4,0,111.1,49.8,111.1,111.2c0,43-24.5,80.4-60.2,98.8c-15.2,7.9-32.5,12.3-50.9,12.3
			s-35.6-4.4-50.9-12.3c-35.9-18.5-60.4-56.1-60.2-99.3C16.6,66.7,65.6,17.2,125.9,16.4C126.5,16.4,127,16.4,127.5,16.4 M46.7,147.7
			L119.3,75c2.3-2.3,5.2-3.4,8.2-3.4s5.9,1.1,8.2,3.4l72.7,72.7c0-44.6-36.2-80.8-80.8-80.8S46.7,103.1,46.7,147.7 M73.5,207.9
			l-6.7-40H49.2C53.3,183.6,61.9,197.4,73.5,207.9 M181.5,207.9c11.7-10.5,20.3-24.3,24.3-40h-17.7L181.5,207.9 M127.5,12.4
			c-0.5,0-1.1,0-1.6,0c-30.2,0.4-58.7,12.6-80.1,34.2C24.4,68.2,12.5,96.8,12.4,127c-0.1,21.6,5.9,42.7,17.2,61
			c11,17.8,26.7,32.3,45.2,41.8c16.4,8.5,34.1,12.8,52.7,12.8c18.6,0,36.3-4.3,52.7-12.8c18.5-9.5,34.1-23.9,45.1-41.6
			c11.3-18.2,17.3-39.2,17.3-60.7c0-30.8-12-59.7-33.7-81.4C187.2,24.3,158.3,12.4,127.5,12.4L127.5,12.4z M51.4,137.4
			c4.6-34.1,31.7-61.2,65.8-65.8c-0.2,0.2-0.5,0.4-0.7,0.7L51.4,137.4L51.4,137.4z M203.6,137.4l-65.1-65.1
			c-0.2-0.2-0.5-0.4-0.7-0.7C171.9,76.2,199,103.2,203.6,137.4L203.6,137.4z M54.6,171.9h8.9l4,23.7
			C61.8,188.6,57.4,180.5,54.6,171.9L54.6,171.9z M191.5,171.9h8.9c-2.9,8.6-7.2,16.6-12.9,23.7L191.5,171.9L191.5,171.9z"/>
	</g>
</g>
<g>
	<path class="st6" d="M-139.4-115C-199.7-114.1-248.8-64.6-249-4.3c-0.2,43.2,24.3,80.8,60.2,99.3c15.2,7.9,32.5,12.3,50.9,12.3
		s35.6-4.4,50.9-12.3c35.8-18.5,60.2-55.8,60.2-98.8C-26.7-65.8-77.3-115.8-139.4-115z M-137.9-64.5c44.6,0,80.8,36.2,80.8,80.8
		l-72.7-72.7c-4.5-4.5-11.8-4.5-16.3,0l-72.7,72.7C-218.7-28.3-182.5-64.5-137.9-64.5z M-216.2,36.6h17.7l6.7,40
		C-203.5,66-212.1,52.2-216.2,36.6z M-83.9,76.5l6.7-40h17.7C-63.6,52.2-72.2,66-83.9,76.5z"/>
</g>
<g>
	<path d="M1383.2,82.5c0.2,0.2,0.3,0.4,0.3,0.7c0,0.4-0.1,0.6-0.3,0.9c-2.3,2.2-4.8,3.8-7.6,4.9c-2.8,1.1-5.7,1.6-8.7,1.6
		c-4.1,0-8-1-11.7-2.9s-6.6-4.7-8.9-8.2c-2.3-3.5-3.4-7.6-3.4-12.2c0-4.6,1.1-8.7,3.3-12.2c2.2-3.5,5.1-6.3,8.7-8.2
		s7.4-2.9,11.5-2.9c3,0,5.9,0.5,8.7,1.6c2.9,1.1,5.5,2.7,7.9,5c0.3,0.3,0.4,0.5,0.4,0.9s-0.1,0.6-0.3,0.8l-2.9,3.1
		c-0.2,0.3-0.5,0.4-0.9,0.4c-0.3,0-0.5-0.1-0.7-0.3c-1.9-1.5-3.9-2.7-6.1-3.5c-2.2-0.8-4.3-1.2-6.5-1.2c-2.9,0-5.6,0.7-8.1,2
		s-4.4,3.3-5.9,5.8s-2.2,5.4-2.2,8.7c0,3.2,0.8,6,2.5,8.5s3.8,4.4,6.5,5.8c2.7,1.4,5.5,2.1,8.5,2.1c4.4,0,8.3-1.4,11.7-4.2
		c0.2-0.2,0.4-0.3,0.7-0.3c0.3,0,0.6,0.1,0.8,0.3L1383.2,82.5z"/>
	<path d="M1421.7,80.3c0,2.2,0,4.2-0.1,5.8s-0.2,2.7-0.2,3.2c0,0.4-0.1,0.7-0.4,0.9s-0.6,0.4-1,0.4h-3.5c-0.3,0-0.6-0.1-0.9-0.4
		s-0.4-0.6-0.5-0.9l-0.1-2.9c0-0.1,0-0.2-0.1-0.2s-0.1,0-0.2,0.1c-0.9,1.2-2.3,2.3-4.1,3.1c-1.9,0.8-3.7,1.3-5.4,1.3
		c-3,0-5.7-0.7-8.2-2.2s-4.5-3.4-6-6c-1.5-2.5-2.2-5.3-2.2-8.2s0.7-5.7,2.2-8.2s3.4-4.5,6-6s5.3-2.2,8.2-2.2c2.9,0,5.5,0.7,8,2.1
		c2.4,1.4,4.4,3.3,5.9,5.6c1.5,2.4,2.3,5,2.4,7.9C1421.6,75.8,1421.7,78.1,1421.7,80.3z M1410.1,82.7c1.5-0.9,2.7-2.1,3.5-3.6
		s1.3-3.1,1.3-4.9s-0.4-3.4-1.3-4.9c-0.9-1.5-2.1-2.7-3.6-3.5c-1.5-0.9-3.1-1.3-4.9-1.3c-1.7,0-3.3,0.4-4.8,1.3
		c-1.5,0.9-2.7,2.1-3.6,3.6c-0.9,1.5-1.3,3.1-1.3,4.9s0.4,3.4,1.3,4.9c0.9,1.5,2.1,2.7,3.6,3.6c1.5,0.9,3.1,1.3,4.9,1.3
		C1407,84,1408.6,83.5,1410.1,82.7z"/>
	<path d="M1451.5,78.6c0.3,0.9,0.5,1.9,0.5,2.8c0,1.8-0.6,3.4-1.7,4.8s-2.6,2.5-4.4,3.2s-3.8,1.1-5.9,1.1c-2.3,0-4.5-0.5-6.6-1.5
		c-2.1-1-3.8-2.5-5-4.5c-0.1-0.1-0.1-0.3-0.1-0.7c0-0.6,0.2-0.9,0.6-1.1l3.3-1.8c0.2-0.1,0.3-0.1,0.5-0.1c0.4,0,0.7,0.2,1,0.5
		c0.8,0.8,1.7,1.5,2.9,2.1c1.2,0.5,2.4,0.8,3.5,0.8c1.3,0,2.5-0.3,3.6-0.9c1.1-0.6,1.6-1.4,1.6-2.5s-0.4-1.8-1.3-2.3
		s-2.2-0.9-4.1-1.2c-2.2-0.5-3.8-0.9-4.8-1.3c-2.1-0.8-3.7-2-4.7-3.5c-1.1-1.5-1.6-3.1-1.6-4.8c0-2.3,0.8-4.3,2.6-6.2
		c1.7-1.9,4.1-3,7.1-3.5c0.9-0.1,1.8-0.2,2.7-0.2c4.8,0,8.5,2.1,11.2,6.2c0.1,0.2,0.2,0.4,0.2,0.7c0,0.5-0.2,0.9-0.7,1.1l-2.9,1.7
		c-0.3,0.1-0.5,0.1-0.6,0.1c-0.4,0-0.8-0.2-1.1-0.5c-1.8-2.2-3.9-3.2-6.5-3.2c-0.3,0-0.8,0-1.4,0.1c-1.1,0.2-2,0.6-2.7,1.1
		c-0.8,0.6-1.2,1.2-1.2,1.8c-0.1,1.1,0.1,2,0.7,2.7s1.2,1.2,2.1,1.5c0.9,0.3,2.2,0.7,3.8,1c1.8,0.4,3.2,0.9,4.3,1.3
		c1.1,0.4,2.1,1,3.1,1.8C1450.4,76.1,1451.1,77.2,1451.5,78.6z"/>
	<path d="M1491.4,80.3c0,2.2,0,4.2-0.1,5.8s-0.2,2.7-0.2,3.2c0,0.4-0.1,0.7-0.4,0.9s-0.6,0.4-1,0.4h-3.5c-0.3,0-0.6-0.1-0.9-0.4
		s-0.4-0.6-0.5-0.9l-0.1-2.9c0-0.1,0-0.2-0.1-0.2s-0.1,0-0.2,0.1c-0.9,1.2-2.3,2.3-4.1,3.1c-1.9,0.8-3.7,1.3-5.4,1.3
		c-3,0-5.7-0.7-8.2-2.2s-4.5-3.4-6-6c-1.5-2.5-2.2-5.3-2.2-8.2s0.7-5.7,2.2-8.2s3.4-4.5,6-6s5.3-2.2,8.2-2.2c2.9,0,5.5,0.7,8,2.1
		c2.4,1.4,4.4,3.3,5.9,5.6c1.5,2.4,2.3,5,2.4,7.9C1491.3,75.8,1491.4,78.1,1491.4,80.3z M1479.8,82.7c1.5-0.9,2.7-2.1,3.5-3.6
		s1.3-3.1,1.3-4.9s-0.4-3.4-1.3-4.9c-0.9-1.5-2.1-2.7-3.6-3.5c-1.5-0.9-3.1-1.3-4.9-1.3c-1.7,0-3.3,0.4-4.8,1.3
		c-1.5,0.9-2.7,2.1-3.6,3.6c-0.9,1.5-1.3,3.1-1.3,4.9s0.4,3.4,1.3,4.9c0.9,1.5,2.1,2.7,3.6,3.6c1.5,0.9,3.1,1.3,4.9,1.3
		C1476.7,84,1478.3,83.5,1479.8,82.7z"/>
	<path d="M1517.6,89.7l-9.3-12.3l-3.1,3.8l-0.2,8.4c0,0.3-0.1,0.6-0.3,0.8s-0.5,0.3-0.8,0.3h-3.9c-0.3,0-0.6-0.1-0.8-0.3
		c-0.2-0.2-0.3-0.5-0.3-0.8l-0.2-10.7V65.6l0.2-23.7c0-0.3,0.1-0.6,0.3-0.8c0.2-0.2,0.5-0.3,0.8-0.3h3.9c0.3,0,0.6,0.1,0.8,0.3
		c0.2,0.2,0.3,0.5,0.3,0.8l0.2,23.7v5.2l10.4-12.2c0.4-0.6,1-0.9,1.7-0.9h4.6c0.3,0,0.6,0.1,0.8,0.4c0.2,0.2,0.3,0.5,0.3,0.8
		c0,0.3-0.1,0.5-0.3,0.7l-9.8,12.1c-0.2,0.2-0.2,0.4-0.1,0.7l11.8,16.3c0.2,0.2,0.3,0.4,0.3,0.7c0,0.3-0.1,0.6-0.4,0.8
		c-0.2,0.2-0.5,0.3-0.8,0.3h-4.2C1518.8,90.6,1518.1,90.3,1517.6,89.7z"/>
	<path d="M1559.8,80.3c0,2.2,0,4.2-0.1,5.8s-0.2,2.7-0.2,3.2c0,0.4-0.1,0.7-0.4,0.9s-0.6,0.4-1,0.4h-3.5c-0.3,0-0.6-0.1-0.9-0.4
		s-0.4-0.6-0.5-0.9l-0.1-2.9c0-0.1,0-0.2-0.1-0.2s-0.1,0-0.2,0.1c-0.9,1.2-2.3,2.3-4.1,3.1c-1.9,0.8-3.7,1.3-5.4,1.3
		c-3,0-5.7-0.7-8.2-2.2s-4.5-3.4-6-6c-1.5-2.5-2.2-5.3-2.2-8.2s0.7-5.7,2.2-8.2s3.4-4.5,6-6s5.3-2.2,8.2-2.2c2.9,0,5.5,0.7,8,2.1
		c2.4,1.4,4.4,3.3,5.9,5.6c1.5,2.4,2.3,5,2.4,7.9C1559.7,75.8,1559.8,78.1,1559.8,80.3z M1548.2,82.7c1.5-0.9,2.7-2.1,3.5-3.6
		s1.3-3.1,1.3-4.9s-0.4-3.4-1.3-4.9c-0.9-1.5-2.1-2.7-3.6-3.5c-1.5-0.9-3.1-1.3-4.9-1.3c-1.7,0-3.3,0.4-4.8,1.3
		c-1.5,0.9-2.7,2.1-3.6,3.6c-0.9,1.5-1.3,3.1-1.3,4.9s0.4,3.4,1.3,4.9c0.9,1.5,2.1,2.7,3.6,3.6c1.5,0.9,3.1,1.3,4.9,1.3
		C1545.1,84,1546.7,83.5,1548.2,82.7z"/>
	<path d="M1567.8,96.4c-0.1-5.1-0.1-9.8-0.1-14.2c0-3,0-5.9,0.1-8.8c0.1-2.9,0.9-5.5,2.4-7.9c1.5-2.4,3.4-4.2,5.9-5.6s5.1-2.1,8-2.1
		c3,0,5.7,0.7,8.2,2.2s4.5,3.5,5.9,6c1.5,2.5,2.2,5.2,2.2,8.2s-0.7,5.7-2.2,8.2s-3.4,4.5-5.9,6s-5.2,2.2-8.2,2.2
		c-1.7,0-3.5-0.4-5.4-1.3c-1.9-0.8-3.2-1.9-4.1-3.1c0-0.1-0.1-0.1-0.2-0.1c-0.1,0-0.1,0.1-0.1,0.2l-0.1,20c0,0.3-0.1,0.7-0.4,0.9
		s-0.6,0.4-0.9,0.4h-3.5c-0.3,0-0.7-0.1-0.9-0.4s-0.4-0.6-0.4-0.9C1568,104.8,1567.9,101.5,1567.8,96.4z M1575.7,79.1
		c0.9,1.5,2.1,2.7,3.6,3.6c1.5,0.9,3.1,1.3,4.9,1.3s3.4-0.4,4.9-1.3c1.5-0.9,2.7-2.1,3.6-3.6s1.3-3.1,1.3-4.9s-0.4-3.4-1.3-4.9
		c-0.9-1.5-2.1-2.7-3.6-3.6c-1.5-0.9-3.1-1.3-4.9-1.3s-3.4,0.4-4.9,1.3s-2.7,2.1-3.6,3.6c-0.9,1.5-1.3,3.1-1.3,4.9
		C1574.4,76,1574.8,77.6,1575.7,79.1z"/>
</g>
<path class="st1" d="M2335.6-18.3c-54.7,0-99,44.3-99,99c0,38.3,21.8,71.6,53.7,88c13.6,7,29,11,45.3,11s31.8-4,45.3-11
	c31.9-16.4,53.7-49.7,53.7-88C2434.6,26,2390.3-18.3,2335.6-18.3z M2335.6,26.7c39.8,0,72,32.2,72,72L2335.6,26.7l-72,72
	C2263.6,58.9,2295.9,26.7,2335.6,26.7z M2265.9,116.7h15.7l5.9,35.6C2277.2,142.9,2269.5,130.6,2265.9,116.7z M2383.7,152.3
	l5.9-35.6h15.7C2401.8,130.6,2394.1,142.9,2383.7,152.3z"/>
<text transform="matrix(1 0 0 1 2203.135 242.6724)" style="font-family:'cream-DEMO'; font-size:66.3855px;">Casakap</text>
</svg>
