<?xml version="1.0" encoding="utf-8"?>
<!-- Generator: Adobe Illustrator 24.3.0, SVG Export Plug-In . SVG Version: 6.00 Build 0)  -->
<svg version="1.1" id="Layer_1" xmlns="http://www.w3.org/2000/svg" xmlns:xlink="http://www.w3.org/1999/xlink" x="0px" y="0px"
	 viewBox="0 0 255 255" enable-background="new 0 0 255 255" xml:space="preserve">
<circle fill="#EDEBFF" cx="127.5" cy="127.5" r="117"/>
<path fill="#FF0000" d="M1086.09-162.32c-53.7,0.74-97.37,44.86-97.6,98.57c-0.16,38.52,21.67,71.95,53.67,88.45
	c13.58,7.01,28.99,10.97,45.33,10.97c16.34,0,31.75-3.96,45.33-10.97c31.88-16.44,53.67-49.69,53.67-88.03
	C1186.49-118.47,1141.41-163.08,1086.09-162.32z M1087.49-117.33c39.76,0,72,32.24,72,72l-64.72-64.72
	c-4.02-4.02-10.53-4.02-14.55,0l-64.72,64.72C1015.49-85.09,1047.73-117.33,1087.49-117.33z M1017.76-27.33h15.73l5.93,35.6
	C1029.02-1.06,1021.35-13.38,1017.76-27.33z M1135.56,8.27l5.93-35.6h15.73C1153.63-13.38,1145.96-1.06,1135.56,8.27z"/>
<g>
	<path d="M999,82.51c0.18,0.18,0.27,0.42,0.27,0.73c0,0.36-0.11,0.64-0.33,0.86c-2.3,2.17-4.85,3.79-7.63,4.88
		c-2.79,1.09-5.69,1.63-8.7,1.63c-4.12,0-8.01-0.97-11.68-2.92c-3.67-1.95-6.64-4.69-8.9-8.23c-2.26-3.54-3.39-7.59-3.39-12.15
		c0-4.6,1.09-8.67,3.29-12.21c2.19-3.54,5.08-6.27,8.66-8.2s7.41-2.89,11.48-2.89c2.96,0,5.88,0.54,8.73,1.63
		c2.86,1.09,5.48,2.73,7.87,4.95c0.27,0.26,0.4,0.55,0.4,0.86c0,0.31-0.11,0.58-0.33,0.8l-2.92,3.12c-0.18,0.26-0.46,0.4-0.86,0.4
		c-0.27,0-0.49-0.09-0.66-0.27c-1.9-1.55-3.93-2.71-6.07-3.49c-2.15-0.77-4.3-1.16-6.47-1.16c-2.92,0-5.61,0.68-8.07,2.03
		c-2.46,1.35-4.43,3.28-5.91,5.78c-1.48,2.5-2.22,5.41-2.22,8.73c0,3.19,0.82,6.02,2.46,8.5c1.64,2.48,3.79,4.4,6.47,5.78
		c2.68,1.37,5.52,2.06,8.53,2.06c4.42,0,8.32-1.39,11.68-4.18c0.18-0.18,0.4-0.27,0.66-0.27c0.31,0,0.57,0.11,0.8,0.33L999,82.51z"
		/>
	<path d="M1037.5,80.26c0,2.21-0.04,4.16-0.13,5.84s-0.16,2.74-0.2,3.19c0,0.36-0.13,0.66-0.4,0.93s-0.6,0.4-1,0.4h-3.52
		c-0.31,0-0.6-0.13-0.86-0.4s-0.42-0.57-0.46-0.93l-0.07-2.92c0-0.09-0.03-0.16-0.1-0.2s-0.14-0.02-0.23,0.07
		c-0.89,1.24-2.26,2.28-4.12,3.12c-1.86,0.84-3.65,1.26-5.38,1.26c-2.97,0-5.71-0.73-8.23-2.19c-2.52-1.46-4.51-3.45-5.97-5.97
		c-1.46-2.52-2.19-5.27-2.19-8.23s0.73-5.7,2.19-8.2c1.46-2.5,3.45-4.49,5.97-5.97s5.27-2.22,8.23-2.22c2.88,0,5.53,0.7,7.97,2.09
		c2.43,1.39,4.39,3.28,5.88,5.64c1.48,2.37,2.29,4.99,2.42,7.87C1037.44,75.85,1037.5,78.13,1037.5,80.26z M1025.92,82.65
		c1.48-0.88,2.66-2.08,3.52-3.58c0.86-1.5,1.29-3.14,1.29-4.91c0-1.77-0.44-3.4-1.33-4.88c-0.89-1.48-2.07-2.66-3.55-3.52
		c-1.48-0.86-3.11-1.29-4.88-1.29c-1.73,0-3.33,0.44-4.81,1.33c-1.48,0.89-2.67,2.07-3.55,3.55c-0.89,1.48-1.33,3.11-1.33,4.88
		c0,1.77,0.44,3.4,1.33,4.88c0.88,1.48,2.07,2.67,3.55,3.55c1.48,0.89,3.11,1.33,4.88,1.33
		C1022.81,83.97,1024.44,83.53,1025.92,82.65z"/>
	<path d="M1067.38,78.6c0.31,0.93,0.46,1.88,0.46,2.85c0,1.82-0.56,3.43-1.69,4.85s-2.61,2.5-4.45,3.25
		c-1.84,0.75-3.79,1.13-5.88,1.13c-2.3,0-4.49-0.5-6.57-1.49c-2.08-1-3.76-2.49-5.04-4.48c-0.09-0.13-0.13-0.35-0.13-0.66
		c0-0.57,0.2-0.95,0.6-1.13l3.32-1.79c0.18-0.09,0.35-0.13,0.53-0.13c0.4,0,0.73,0.16,1,0.46c0.75,0.84,1.73,1.53,2.92,2.06
		c1.2,0.53,2.37,0.8,3.52,0.8c1.28,0,2.47-0.29,3.55-0.86c1.08-0.57,1.63-1.39,1.63-2.46s-0.43-1.83-1.29-2.29s-2.22-0.87-4.08-1.23
		c-2.21-0.49-3.81-0.93-4.78-1.33c-2.08-0.84-3.65-2.01-4.71-3.52c-1.06-1.5-1.59-3.12-1.59-4.85c0-2.26,0.85-4.32,2.56-6.17
		c1.7-1.86,4.06-3.03,7.07-3.52c0.93-0.13,1.84-0.2,2.72-0.2c4.82,0,8.54,2.06,11.15,6.17c0.13,0.18,0.2,0.4,0.2,0.66
		c0,0.49-0.22,0.86-0.66,1.13l-2.92,1.73c-0.27,0.09-0.46,0.13-0.6,0.13c-0.44,0-0.8-0.16-1.06-0.46c-1.77-2.17-3.94-3.25-6.51-3.25
		c-0.31,0-0.78,0.04-1.39,0.13c-1.06,0.18-1.97,0.55-2.72,1.13c-0.75,0.58-1.15,1.17-1.19,1.79c-0.09,1.11,0.13,1.99,0.66,2.65
		c0.53,0.66,1.24,1.16,2.12,1.49c0.88,0.33,2.15,0.68,3.78,1.03c1.77,0.44,3.21,0.86,4.31,1.26c1.11,0.4,2.13,1.01,3.09,1.83
		C1066.24,76.13,1066.93,77.23,1067.38,78.6z"/>
	<path d="M1107.27,80.26c0,2.21-0.04,4.16-0.13,5.84s-0.16,2.74-0.2,3.19c0,0.36-0.13,0.66-0.4,0.93s-0.6,0.4-1,0.4h-3.52
		c-0.31,0-0.6-0.13-0.86-0.4s-0.42-0.57-0.46-0.93l-0.07-2.92c0-0.09-0.03-0.16-0.1-0.2s-0.14-0.02-0.23,0.07
		c-0.89,1.24-2.26,2.28-4.12,3.12c-1.86,0.84-3.65,1.26-5.38,1.26c-2.97,0-5.71-0.73-8.23-2.19c-2.52-1.46-4.51-3.45-5.97-5.97
		c-1.46-2.52-2.19-5.27-2.19-8.23s0.73-5.7,2.19-8.2c1.46-2.5,3.45-4.49,5.97-5.97s5.27-2.22,8.23-2.22c2.88,0,5.53,0.7,7.97,2.09
		c2.43,1.39,4.39,3.28,5.88,5.64c1.48,2.37,2.29,4.99,2.42,7.87C1107.21,75.85,1107.27,78.13,1107.27,80.26z M1095.69,82.65
		c1.48-0.88,2.66-2.08,3.52-3.58c0.86-1.5,1.29-3.14,1.29-4.91c0-1.77-0.44-3.4-1.33-4.88c-0.89-1.48-2.07-2.66-3.55-3.52
		c-1.48-0.86-3.11-1.29-4.88-1.29c-1.73,0-3.33,0.44-4.81,1.33c-1.48,0.89-2.67,2.07-3.55,3.55c-0.89,1.48-1.33,3.11-1.33,4.88
		c0,1.77,0.44,3.4,1.33,4.88c0.88,1.48,2.07,2.67,3.55,3.55c1.48,0.89,3.11,1.33,4.88,1.33
		C1092.58,83.97,1094.21,83.53,1095.69,82.65z"/>
	<path d="M1133.49,89.68l-9.29-12.35l-3.12,3.78l-0.2,8.36c0,0.31-0.11,0.58-0.33,0.8c-0.22,0.22-0.49,0.33-0.8,0.33h-3.92
		c-0.31,0-0.58-0.11-0.8-0.33c-0.22-0.22-0.33-0.49-0.33-0.8l-0.2-10.69V65.58l0.2-23.7c0-0.31,0.11-0.58,0.33-0.8
		c0.22-0.22,0.49-0.33,0.8-0.33h3.92c0.31,0,0.57,0.11,0.8,0.33c0.22,0.22,0.33,0.49,0.33,0.8l0.2,23.7v5.24l10.36-12.15
		c0.44-0.57,1.02-0.86,1.73-0.86h4.58c0.31,0,0.58,0.12,0.8,0.37c0.22,0.24,0.33,0.52,0.33,0.83c0,0.27-0.09,0.51-0.27,0.73
		l-9.83,12.08c-0.22,0.22-0.24,0.44-0.07,0.66l11.75,16.26c0.18,0.18,0.27,0.42,0.27,0.73c0,0.31-0.12,0.58-0.37,0.8
		c-0.24,0.22-0.52,0.33-0.83,0.33h-4.18C1134.6,90.61,1133.98,90.3,1133.49,89.68z"/>
	<path d="M1175.65,80.26c0,2.21-0.04,4.16-0.13,5.84s-0.16,2.74-0.2,3.19c0,0.36-0.13,0.66-0.4,0.93s-0.6,0.4-1,0.4h-3.52
		c-0.31,0-0.6-0.13-0.86-0.4s-0.42-0.57-0.46-0.93l-0.07-2.92c0-0.09-0.03-0.16-0.1-0.2s-0.14-0.02-0.23,0.07
		c-0.89,1.24-2.26,2.28-4.12,3.12c-1.86,0.84-3.65,1.26-5.38,1.26c-2.97,0-5.71-0.73-8.23-2.19c-2.52-1.46-4.51-3.45-5.97-5.97
		c-1.46-2.52-2.19-5.27-2.19-8.23s0.73-5.7,2.19-8.2c1.46-2.5,3.45-4.49,5.97-5.97s5.27-2.22,8.23-2.22c2.88,0,5.53,0.7,7.97,2.09
		c2.43,1.39,4.39,3.28,5.88,5.64c1.48,2.37,2.29,4.99,2.42,7.87C1175.58,75.85,1175.65,78.13,1175.65,80.26z M1164.06,82.65
		c1.48-0.88,2.66-2.08,3.52-3.58c0.86-1.5,1.29-3.14,1.29-4.91c0-1.77-0.44-3.4-1.33-4.88c-0.89-1.48-2.07-2.66-3.55-3.52
		c-1.48-0.86-3.11-1.29-4.88-1.29c-1.73,0-3.33,0.44-4.81,1.33c-1.48,0.89-2.67,2.07-3.55,3.55c-0.89,1.48-1.33,3.11-1.33,4.88
		c0,1.77,0.44,3.4,1.33,4.88c0.88,1.48,2.07,2.67,3.55,3.55c1.48,0.89,3.11,1.33,4.88,1.33
		C1160.96,83.97,1162.58,83.53,1164.06,82.65z"/>
	<path d="M1183.68,96.45c-0.09-5.09-0.13-9.82-0.13-14.21c0-2.96,0.04-5.91,0.13-8.83c0.13-2.88,0.94-5.5,2.42-7.87
		c1.48-2.37,3.45-4.25,5.91-5.64s5.12-2.09,8-2.09c2.96,0,5.7,0.74,8.2,2.22c2.5,1.48,4.48,3.47,5.94,5.97
		c1.46,2.5,2.19,5.23,2.19,8.2s-0.73,5.7-2.19,8.2c-1.46,2.5-3.44,4.49-5.94,5.97c-2.5,1.48-5.23,2.22-8.2,2.22
		c-1.73,0-3.52-0.42-5.38-1.26c-1.86-0.84-3.23-1.86-4.12-3.05c-0.04-0.09-0.11-0.12-0.2-0.1c-0.09,0.02-0.13,0.08-0.13,0.17
		l-0.13,19.98c0,0.35-0.13,0.66-0.4,0.93s-0.58,0.4-0.93,0.4h-3.52c-0.35,0-0.66-0.13-0.93-0.4s-0.4-0.58-0.4-0.93
		C1183.83,104.84,1183.77,101.54,1183.68,96.45z M1191.58,79.09c0.88,1.48,2.07,2.67,3.55,3.55c1.48,0.89,3.11,1.33,4.88,1.33
		c1.77,0,3.4-0.44,4.88-1.33c1.48-0.88,2.67-2.07,3.55-3.55c0.88-1.48,1.33-3.11,1.33-4.88c0-1.77-0.44-3.41-1.33-4.91
		c-0.89-1.5-2.07-2.69-3.55-3.55c-1.48-0.86-3.11-1.29-4.88-1.29c-1.77,0-3.4,0.44-4.88,1.33c-1.48,0.89-2.67,2.07-3.55,3.55
		c-0.89,1.48-1.33,3.11-1.33,4.88C1190.25,75.98,1190.69,77.61,1191.58,79.09z"/>
</g>
<g>
	<path fill="#FF6600" d="M1470.24,215.68c-53.7,0.74-97.37,44.86-97.6,98.57c-0.16,38.52,21.67,71.95,53.67,88.45
		c13.58,7.01,28.99,10.97,45.33,10.97c16.34,0,31.75-3.96,45.33-10.97c31.88-16.44,53.67-49.69,53.67-88.03
		C1570.64,259.53,1525.56,214.92,1470.24,215.68z M1471.64,260.67c39.76,0,72,32.24,72,72l-64.72-64.72
		c-4.02-4.02-10.53-4.02-14.55,0l-64.72,64.72C1399.64,292.91,1431.88,260.67,1471.64,260.67z M1401.91,350.67h15.73l5.93,35.6
		C1413.17,376.94,1405.5,364.62,1401.91,350.67z M1519.71,386.27l5.93-35.6h15.73C1537.78,364.62,1530.11,376.94,1519.71,386.27z"/>
	<g>
		<path d="M1383.15,460.51c0.18,0.18,0.27,0.42,0.27,0.73c0,0.36-0.11,0.64-0.33,0.86c-2.3,2.17-4.85,3.79-7.63,4.88
			c-2.79,1.09-5.69,1.63-8.7,1.63c-4.12,0-8.01-0.97-11.68-2.92c-3.67-1.95-6.64-4.69-8.9-8.23c-2.26-3.54-3.39-7.59-3.39-12.15
			c0-4.6,1.09-8.67,3.29-12.21c2.19-3.54,5.08-6.27,8.66-8.2s7.41-2.89,11.48-2.89c2.96,0,5.88,0.54,8.73,1.63
			c2.86,1.09,5.48,2.73,7.87,4.95c0.27,0.26,0.4,0.55,0.4,0.86c0,0.31-0.11,0.58-0.33,0.8l-2.92,3.12c-0.18,0.26-0.46,0.4-0.86,0.4
			c-0.27,0-0.49-0.09-0.66-0.27c-1.9-1.55-3.93-2.71-6.07-3.49c-2.15-0.77-4.3-1.16-6.47-1.16c-2.92,0-5.61,0.68-8.07,2.03
			c-2.46,1.35-4.43,3.28-5.91,5.78c-1.48,2.5-2.22,5.41-2.22,8.73c0,3.19,0.82,6.02,2.46,8.5c1.64,2.48,3.79,4.4,6.47,5.78
			c2.68,1.37,5.52,2.06,8.53,2.06c4.42,0,8.32-1.39,11.68-4.18c0.18-0.18,0.4-0.27,0.66-0.27c0.31,0,0.57,0.11,0.8,0.33
			L1383.15,460.51z"/>
		<path d="M1421.65,458.26c0,2.21-0.04,4.16-0.13,5.84s-0.16,2.74-0.2,3.19c0,0.36-0.13,0.66-0.4,0.93s-0.6,0.4-1,0.4h-3.52
			c-0.31,0-0.6-0.13-0.86-0.4s-0.42-0.57-0.46-0.93l-0.07-2.92c0-0.09-0.03-0.16-0.1-0.2s-0.14-0.02-0.23,0.07
			c-0.89,1.24-2.26,2.28-4.12,3.12c-1.86,0.84-3.65,1.26-5.38,1.26c-2.97,0-5.71-0.73-8.23-2.19c-2.52-1.46-4.51-3.45-5.97-5.97
			c-1.46-2.52-2.19-5.27-2.19-8.23s0.73-5.7,2.19-8.2c1.46-2.5,3.45-4.49,5.97-5.97s5.27-2.22,8.23-2.22c2.88,0,5.53,0.7,7.97,2.09
			c2.43,1.39,4.39,3.28,5.88,5.64c1.48,2.37,2.29,4.99,2.42,7.87C1421.59,453.85,1421.65,456.13,1421.65,458.26z M1410.07,460.65
			c1.48-0.88,2.66-2.08,3.52-3.58c0.86-1.5,1.29-3.14,1.29-4.91c0-1.77-0.44-3.4-1.33-4.88c-0.89-1.48-2.07-2.66-3.55-3.52
			c-1.48-0.86-3.11-1.29-4.88-1.29c-1.73,0-3.33,0.44-4.81,1.33c-1.48,0.89-2.67,2.07-3.55,3.55c-0.89,1.48-1.33,3.11-1.33,4.88
			c0,1.77,0.44,3.4,1.33,4.88c0.88,1.48,2.07,2.67,3.55,3.55c1.48,0.89,3.11,1.33,4.88,1.33
			C1406.96,461.97,1408.58,461.53,1410.07,460.65z"/>
		<path d="M1451.52,456.6c0.31,0.93,0.46,1.88,0.46,2.85c0,1.82-0.56,3.43-1.69,4.85s-2.61,2.5-4.45,3.25
			c-1.84,0.75-3.79,1.13-5.88,1.13c-2.3,0-4.49-0.5-6.57-1.49c-2.08-1-3.76-2.49-5.04-4.48c-0.09-0.13-0.13-0.35-0.13-0.66
			c0-0.57,0.2-0.95,0.6-1.13l3.32-1.79c0.18-0.09,0.35-0.13,0.53-0.13c0.4,0,0.73,0.16,1,0.46c0.75,0.84,1.73,1.53,2.92,2.06
			c1.2,0.53,2.37,0.8,3.52,0.8c1.28,0,2.47-0.29,3.55-0.86c1.08-0.57,1.63-1.39,1.63-2.46s-0.43-1.83-1.29-2.29
			s-2.22-0.87-4.08-1.23c-2.21-0.49-3.81-0.93-4.78-1.33c-2.08-0.84-3.65-2.01-4.71-3.52c-1.06-1.5-1.59-3.12-1.59-4.85
			c0-2.26,0.85-4.32,2.56-6.17c1.7-1.86,4.06-3.03,7.07-3.52c0.93-0.13,1.84-0.2,2.72-0.2c4.82,0,8.54,2.06,11.15,6.17
			c0.13,0.18,0.2,0.4,0.2,0.66c0,0.49-0.22,0.86-0.66,1.13l-2.92,1.73c-0.27,0.09-0.46,0.13-0.6,0.13c-0.44,0-0.8-0.16-1.06-0.46
			c-1.77-2.17-3.94-3.25-6.51-3.25c-0.31,0-0.78,0.04-1.39,0.13c-1.06,0.18-1.97,0.55-2.72,1.13c-0.75,0.58-1.15,1.17-1.19,1.79
			c-0.09,1.11,0.13,1.99,0.66,2.65c0.53,0.66,1.24,1.16,2.12,1.49c0.88,0.33,2.15,0.68,3.78,1.03c1.77,0.44,3.21,0.86,4.31,1.26
			c1.11,0.4,2.13,1.01,3.09,1.83C1450.38,454.13,1451.08,455.23,1451.52,456.6z"/>
		<path d="M1491.42,458.26c0,2.21-0.04,4.16-0.13,5.84s-0.16,2.74-0.2,3.19c0,0.36-0.13,0.66-0.4,0.93s-0.6,0.4-1,0.4h-3.52
			c-0.31,0-0.6-0.13-0.86-0.4s-0.42-0.57-0.46-0.93l-0.07-2.92c0-0.09-0.03-0.16-0.1-0.2s-0.14-0.02-0.23,0.07
			c-0.89,1.24-2.26,2.28-4.12,3.12c-1.86,0.84-3.65,1.26-5.38,1.26c-2.97,0-5.71-0.73-8.23-2.19c-2.52-1.46-4.51-3.45-5.97-5.97
			c-1.46-2.52-2.19-5.27-2.19-8.23s0.73-5.7,2.19-8.2c1.46-2.5,3.45-4.49,5.97-5.97s5.27-2.22,8.23-2.22c2.88,0,5.53,0.7,7.97,2.09
			c2.43,1.39,4.39,3.28,5.88,5.64c1.48,2.37,2.29,4.99,2.42,7.87C1491.35,453.85,1491.42,456.13,1491.42,458.26z M1479.84,460.65
			c1.48-0.88,2.66-2.08,3.52-3.58c0.86-1.5,1.29-3.14,1.29-4.91c0-1.77-0.44-3.4-1.33-4.88c-0.89-1.48-2.07-2.66-3.55-3.52
			c-1.48-0.86-3.11-1.29-4.88-1.29c-1.73,0-3.33,0.44-4.81,1.33c-1.48,0.89-2.67,2.07-3.55,3.55c-0.89,1.48-1.33,3.11-1.33,4.88
			c0,1.77,0.44,3.4,1.33,4.88c0.88,1.48,2.07,2.67,3.55,3.55c1.48,0.89,3.11,1.33,4.88,1.33
			C1476.73,461.97,1478.35,461.53,1479.84,460.65z"/>
		<path d="M1517.64,467.68l-9.29-12.35l-3.12,3.78l-0.2,8.36c0,0.31-0.11,0.58-0.33,0.8c-0.22,0.22-0.49,0.33-0.8,0.33h-3.92
			c-0.31,0-0.58-0.11-0.8-0.33c-0.22-0.22-0.33-0.49-0.33-0.8l-0.2-10.69v-13.21l0.2-23.7c0-0.31,0.11-0.58,0.33-0.8
			c0.22-0.22,0.49-0.33,0.8-0.33h3.92c0.31,0,0.57,0.11,0.8,0.33c0.22,0.22,0.33,0.49,0.33,0.8l0.2,23.7v5.24l10.36-12.15
			c0.44-0.57,1.02-0.86,1.73-0.86h4.58c0.31,0,0.58,0.12,0.8,0.37c0.22,0.24,0.33,0.52,0.33,0.83c0,0.27-0.09,0.51-0.27,0.73
			l-9.83,12.08c-0.22,0.22-0.24,0.44-0.07,0.66l11.75,16.26c0.18,0.18,0.27,0.42,0.27,0.73c0,0.31-0.12,0.58-0.37,0.8
			c-0.24,0.22-0.52,0.33-0.83,0.33h-4.18C1518.75,468.61,1518.13,468.3,1517.64,467.68z"/>
		<path d="M1559.8,458.26c0,2.21-0.04,4.16-0.13,5.84s-0.16,2.74-0.2,3.19c0,0.36-0.13,0.66-0.4,0.93s-0.6,0.4-1,0.4h-3.52
			c-0.31,0-0.6-0.13-0.86-0.4s-0.42-0.57-0.46-0.93l-0.07-2.92c0-0.09-0.03-0.16-0.1-0.2s-0.14-0.02-0.23,0.07
			c-0.89,1.24-2.26,2.28-4.12,3.12c-1.86,0.84-3.65,1.26-5.38,1.26c-2.97,0-5.71-0.73-8.23-2.19c-2.52-1.46-4.51-3.45-5.97-5.97
			c-1.46-2.52-2.19-5.27-2.19-8.23s0.73-5.7,2.19-8.2c1.46-2.5,3.45-4.49,5.97-5.97s5.27-2.22,8.23-2.22c2.88,0,5.53,0.7,7.97,2.09
			c2.43,1.39,4.39,3.28,5.88,5.64c1.48,2.37,2.29,4.99,2.42,7.87C1559.73,453.85,1559.8,456.13,1559.8,458.26z M1548.21,460.65
			c1.48-0.88,2.66-2.08,3.52-3.58c0.86-1.5,1.29-3.14,1.29-4.91c0-1.77-0.44-3.4-1.33-4.88c-0.89-1.48-2.07-2.66-3.55-3.52
			c-1.48-0.86-3.11-1.29-4.88-1.29c-1.73,0-3.33,0.44-4.81,1.33c-1.48,0.89-2.67,2.07-3.55,3.55c-0.89,1.48-1.33,3.11-1.33,4.88
			c0,1.77,0.44,3.4,1.33,4.88c0.88,1.48,2.07,2.67,3.55,3.55c1.48,0.89,3.11,1.33,4.88,1.33
			C1545.1,461.97,1546.73,461.53,1548.21,460.65z"/>
		<path d="M1567.83,474.45c-0.09-5.09-0.13-9.82-0.13-14.21c0-2.96,0.04-5.91,0.13-8.83c0.13-2.88,0.94-5.5,2.42-7.87
			c1.48-2.37,3.45-4.25,5.91-5.64s5.12-2.09,8-2.09c2.96,0,5.7,0.74,8.2,2.22c2.5,1.48,4.48,3.47,5.94,5.97
			c1.46,2.5,2.19,5.23,2.19,8.2s-0.73,5.7-2.19,8.2c-1.46,2.5-3.44,4.49-5.94,5.97c-2.5,1.48-5.23,2.22-8.2,2.22
			c-1.73,0-3.52-0.42-5.38-1.26c-1.86-0.84-3.23-1.86-4.12-3.05c-0.04-0.09-0.11-0.12-0.2-0.1c-0.09,0.02-0.13,0.08-0.13,0.17
			l-0.13,19.98c0,0.35-0.13,0.66-0.4,0.93s-0.58,0.4-0.93,0.4h-3.52c-0.35,0-0.66-0.13-0.93-0.4s-0.4-0.58-0.4-0.93
			C1567.98,482.84,1567.92,479.54,1567.83,474.45z M1575.73,457.09c0.88,1.48,2.07,2.67,3.55,3.55c1.48,0.89,3.11,1.33,4.88,1.33
			c1.77,0,3.4-0.44,4.88-1.33c1.48-0.88,2.67-2.07,3.55-3.55c0.88-1.48,1.33-3.11,1.33-4.88c0-1.77-0.44-3.41-1.33-4.91
			c-0.89-1.5-2.07-2.69-3.55-3.55c-1.48-0.86-3.11-1.29-4.88-1.29c-1.77,0-3.4,0.44-4.88,1.33c-1.48,0.89-2.67,2.07-3.55,3.55
			c-0.89,1.48-1.33,3.11-1.33,4.88C1574.4,453.98,1574.84,455.61,1575.73,457.09z"/>
	</g>
</g>
<g>
	<path fill="#EFE914" d="M1089.39,215.68c-53.7,0.74-97.37,44.86-97.6,98.57c-0.16,38.52,21.67,71.95,53.67,88.45
		c13.58,7.01,28.99,10.97,45.33,10.97c16.34,0,31.75-3.96,45.33-10.97c31.88-16.44,53.67-49.69,53.67-88.03
		C1189.79,259.53,1144.71,214.92,1089.39,215.68z M1090.79,260.67c39.76,0,72,32.24,72,72l-64.72-64.72
		c-4.02-4.02-10.53-4.02-14.55,0l-64.72,64.72C1018.79,292.91,1051.03,260.67,1090.79,260.67z M1021.06,350.67h15.73l5.93,35.6
		C1032.32,376.94,1024.65,364.62,1021.06,350.67z M1138.86,386.27l5.93-35.6h15.73C1156.93,364.62,1149.26,376.94,1138.86,386.27z"
		/>
	<g>
		<path d="M1002.3,460.51c0.18,0.18,0.27,0.42,0.27,0.73c0,0.36-0.11,0.64-0.33,0.86c-2.3,2.17-4.85,3.79-7.63,4.88
			c-2.79,1.09-5.69,1.63-8.7,1.63c-4.12,0-8.01-0.97-11.68-2.92c-3.67-1.95-6.64-4.69-8.9-8.23c-2.26-3.54-3.39-7.59-3.39-12.15
			c0-4.6,1.09-8.67,3.29-12.21c2.19-3.54,5.08-6.27,8.66-8.2s7.41-2.89,11.48-2.89c2.96,0,5.88,0.54,8.73,1.63
			c2.86,1.09,5.48,2.73,7.87,4.95c0.27,0.26,0.4,0.55,0.4,0.86c0,0.31-0.11,0.58-0.33,0.8l-2.92,3.12c-0.18,0.26-0.46,0.4-0.86,0.4
			c-0.27,0-0.49-0.09-0.66-0.27c-1.9-1.55-3.93-2.71-6.07-3.49c-2.15-0.77-4.3-1.16-6.47-1.16c-2.92,0-5.61,0.68-8.07,2.03
			c-2.46,1.35-4.43,3.28-5.91,5.78c-1.48,2.5-2.22,5.41-2.22,8.73c0,3.19,0.82,6.02,2.46,8.5c1.64,2.48,3.79,4.4,6.47,5.78
			c2.68,1.37,5.52,2.06,8.53,2.06c4.42,0,8.32-1.39,11.68-4.18c0.18-0.18,0.4-0.27,0.66-0.27c0.31,0,0.57,0.11,0.8,0.33
			L1002.3,460.51z"/>
		<path d="M1040.8,458.26c0,2.21-0.04,4.16-0.13,5.84s-0.16,2.74-0.2,3.19c0,0.36-0.13,0.66-0.4,0.93s-0.6,0.4-1,0.4h-3.52
			c-0.31,0-0.6-0.13-0.86-0.4s-0.42-0.57-0.46-0.93l-0.07-2.92c0-0.09-0.03-0.16-0.1-0.2s-0.14-0.02-0.23,0.07
			c-0.89,1.24-2.26,2.28-4.12,3.12c-1.86,0.84-3.65,1.26-5.38,1.26c-2.97,0-5.71-0.73-8.23-2.19c-2.52-1.46-4.51-3.45-5.97-5.97
			c-1.46-2.52-2.19-5.27-2.19-8.23s0.73-5.7,2.19-8.2c1.46-2.5,3.45-4.49,5.97-5.97s5.27-2.22,8.23-2.22c2.88,0,5.53,0.7,7.97,2.09
			c2.43,1.39,4.39,3.28,5.88,5.64c1.48,2.37,2.29,4.99,2.42,7.87C1040.73,453.85,1040.8,456.13,1040.8,458.26z M1029.22,460.65
			c1.48-0.88,2.66-2.08,3.52-3.58c0.86-1.5,1.29-3.14,1.29-4.91c0-1.77-0.44-3.4-1.33-4.88c-0.89-1.48-2.07-2.66-3.55-3.52
			c-1.48-0.86-3.11-1.29-4.88-1.29c-1.73,0-3.33,0.44-4.81,1.33c-1.48,0.89-2.67,2.07-3.55,3.55c-0.89,1.48-1.33,3.11-1.33,4.88
			c0,1.77,0.44,3.4,1.33,4.88c0.88,1.48,2.07,2.67,3.55,3.55c1.48,0.89,3.11,1.33,4.88,1.33
			C1026.11,461.97,1027.73,461.53,1029.22,460.65z"/>
		<path d="M1070.67,456.6c0.31,0.93,0.46,1.88,0.46,2.85c0,1.82-0.56,3.43-1.69,4.85s-2.61,2.5-4.45,3.25
			c-1.84,0.75-3.79,1.13-5.88,1.13c-2.3,0-4.49-0.5-6.57-1.49c-2.08-1-3.76-2.49-5.04-4.48c-0.09-0.13-0.13-0.35-0.13-0.66
			c0-0.57,0.2-0.95,0.6-1.13l3.32-1.79c0.18-0.09,0.35-0.13,0.53-0.13c0.4,0,0.73,0.16,1,0.46c0.75,0.84,1.73,1.53,2.92,2.06
			c1.2,0.53,2.37,0.8,3.52,0.8c1.28,0,2.47-0.29,3.55-0.86c1.08-0.57,1.63-1.39,1.63-2.46s-0.43-1.83-1.29-2.29
			s-2.22-0.87-4.08-1.23c-2.21-0.49-3.81-0.93-4.78-1.33c-2.08-0.84-3.65-2.01-4.71-3.52c-1.06-1.5-1.59-3.12-1.59-4.85
			c0-2.26,0.85-4.32,2.56-6.17c1.7-1.86,4.06-3.03,7.07-3.52c0.93-0.13,1.84-0.2,2.72-0.2c4.82,0,8.54,2.06,11.15,6.17
			c0.13,0.18,0.2,0.4,0.2,0.66c0,0.49-0.22,0.86-0.66,1.13l-2.92,1.73c-0.27,0.09-0.46,0.13-0.6,0.13c-0.44,0-0.8-0.16-1.06-0.46
			c-1.77-2.17-3.94-3.25-6.51-3.25c-0.31,0-0.78,0.04-1.39,0.13c-1.06,0.18-1.97,0.55-2.72,1.13c-0.75,0.58-1.15,1.17-1.19,1.79
			c-0.09,1.11,0.13,1.99,0.66,2.65c0.53,0.66,1.24,1.16,2.12,1.49c0.88,0.33,2.15,0.68,3.78,1.03c1.77,0.44,3.21,0.86,4.31,1.26
			c1.11,0.4,2.13,1.01,3.09,1.83C1069.53,454.13,1070.23,455.23,1070.67,456.6z"/>
		<path d="M1110.57,458.26c0,2.21-0.04,4.16-0.13,5.84s-0.16,2.74-0.2,3.19c0,0.36-0.13,0.66-0.4,0.93s-0.6,0.4-1,0.4h-3.52
			c-0.31,0-0.6-0.13-0.86-0.4s-0.42-0.57-0.46-0.93l-0.07-2.92c0-0.09-0.03-0.16-0.1-0.2s-0.14-0.02-0.23,0.07
			c-0.89,1.24-2.26,2.28-4.12,3.12c-1.86,0.84-3.65,1.26-5.38,1.26c-2.97,0-5.71-0.73-8.23-2.19c-2.52-1.46-4.51-3.45-5.97-5.97
			c-1.46-2.52-2.19-5.27-2.19-8.23s0.73-5.7,2.19-8.2c1.46-2.5,3.45-4.49,5.97-5.97s5.27-2.22,8.23-2.22c2.88,0,5.53,0.7,7.97,2.09
			c2.43,1.39,4.39,3.28,5.88,5.64c1.48,2.37,2.29,4.99,2.42,7.87C1110.5,453.85,1110.57,456.13,1110.57,458.26z M1098.99,460.65
			c1.48-0.88,2.66-2.08,3.52-3.58c0.86-1.5,1.29-3.14,1.29-4.91c0-1.77-0.44-3.4-1.33-4.88c-0.89-1.48-2.07-2.66-3.55-3.52
			c-1.48-0.86-3.11-1.29-4.88-1.29c-1.73,0-3.33,0.44-4.81,1.33c-1.48,0.89-2.67,2.07-3.55,3.55c-0.89,1.48-1.33,3.11-1.33,4.88
			c0,1.77,0.44,3.4,1.33,4.88c0.88,1.48,2.07,2.67,3.55,3.55c1.48,0.89,3.11,1.33,4.88,1.33
			C1095.88,461.97,1097.5,461.53,1098.99,460.65z"/>
		<path d="M1136.79,467.68l-9.29-12.35l-3.12,3.78l-0.2,8.36c0,0.31-0.11,0.58-0.33,0.8c-0.22,0.22-0.49,0.33-0.8,0.33h-3.92
			c-0.31,0-0.58-0.11-0.8-0.33c-0.22-0.22-0.33-0.49-0.33-0.8l-0.2-10.69v-13.21l0.2-23.7c0-0.31,0.11-0.58,0.33-0.8
			c0.22-0.22,0.49-0.33,0.8-0.33h3.92c0.31,0,0.57,0.11,0.8,0.33c0.22,0.22,0.33,0.49,0.33,0.8l0.2,23.7v5.24l10.36-12.15
			c0.44-0.57,1.02-0.86,1.73-0.86h4.58c0.31,0,0.58,0.12,0.8,0.37c0.22,0.24,0.33,0.52,0.33,0.83c0,0.27-0.09,0.51-0.27,0.73
			l-9.83,12.08c-0.22,0.22-0.24,0.44-0.07,0.66l11.75,16.26c0.18,0.18,0.27,0.42,0.27,0.73c0,0.31-0.12,0.58-0.37,0.8
			c-0.24,0.22-0.52,0.33-0.83,0.33h-4.18C1137.9,468.61,1137.28,468.3,1136.79,467.68z"/>
		<path d="M1178.95,458.26c0,2.21-0.04,4.16-0.13,5.84s-0.16,2.74-0.2,3.19c0,0.36-0.13,0.66-0.4,0.93s-0.6,0.4-1,0.4h-3.52
			c-0.31,0-0.6-0.13-0.86-0.4s-0.42-0.57-0.46-0.93l-0.07-2.92c0-0.09-0.03-0.16-0.1-0.2s-0.14-0.02-0.23,0.07
			c-0.89,1.24-2.26,2.28-4.12,3.12c-1.86,0.84-3.65,1.26-5.38,1.26c-2.97,0-5.71-0.73-8.23-2.19c-2.52-1.46-4.51-3.45-5.97-5.97
			c-1.46-2.52-2.19-5.27-2.19-8.23s0.73-5.7,2.19-8.2c1.46-2.5,3.45-4.49,5.97-5.97s5.27-2.22,8.23-2.22c2.88,0,5.53,0.7,7.97,2.09
			c2.43,1.39,4.39,3.28,5.88,5.64c1.48,2.37,2.29,4.99,2.42,7.87C1178.88,453.85,1178.95,456.13,1178.95,458.26z M1167.36,460.65
			c1.48-0.88,2.66-2.08,3.52-3.58c0.86-1.5,1.29-3.14,1.29-4.91c0-1.77-0.44-3.4-1.33-4.88c-0.89-1.48-2.07-2.66-3.55-3.52
			c-1.48-0.86-3.11-1.29-4.88-1.29c-1.73,0-3.33,0.44-4.81,1.33c-1.48,0.89-2.67,2.07-3.55,3.55c-0.89,1.48-1.33,3.11-1.33,4.88
			c0,1.77,0.44,3.4,1.33,4.88c0.88,1.48,2.07,2.67,3.55,3.55c1.48,0.89,3.11,1.33,4.88,1.33
			C1164.25,461.97,1165.88,461.53,1167.36,460.65z"/>
		<path d="M1186.98,474.45c-0.09-5.09-0.13-9.82-0.13-14.21c0-2.96,0.04-5.91,0.13-8.83c0.13-2.88,0.94-5.5,2.42-7.87
			c1.48-2.37,3.45-4.25,5.91-5.64s5.12-2.09,8-2.09c2.96,0,5.7,0.74,8.2,2.22c2.5,1.48,4.48,3.47,5.94,5.97
			c1.46,2.5,2.19,5.23,2.19,8.2s-0.73,5.7-2.19,8.2c-1.46,2.5-3.44,4.49-5.94,5.97c-2.5,1.48-5.23,2.22-8.2,2.22
			c-1.73,0-3.52-0.42-5.38-1.26c-1.86-0.84-3.23-1.86-4.12-3.05c-0.04-0.09-0.11-0.12-0.2-0.1c-0.09,0.02-0.13,0.08-0.13,0.17
			l-0.13,19.98c0,0.35-0.13,0.66-0.4,0.93s-0.58,0.4-0.93,0.4h-3.52c-0.35,0-0.66-0.13-0.93-0.4s-0.4-0.58-0.4-0.93
			C1187.13,482.84,1187.06,479.54,1186.98,474.45z M1194.88,457.09c0.88,1.48,2.07,2.67,3.55,3.55c1.48,0.89,3.11,1.33,4.88,1.33
			c1.77,0,3.4-0.44,4.88-1.33c1.48-0.88,2.67-2.07,3.55-3.55c0.88-1.48,1.33-3.11,1.33-4.88c0-1.77-0.44-3.41-1.33-4.91
			c-0.89-1.5-2.07-2.69-3.55-3.55c-1.48-0.86-3.11-1.29-4.88-1.29c-1.77,0-3.4,0.44-4.88,1.33c-1.48,0.89-2.67,2.07-3.55,3.55
			c-0.89,1.48-1.33,3.11-1.33,4.88C1193.55,453.98,1193.99,455.61,1194.88,457.09z"/>
	</g>
</g>
<g>
	<path fill="#66CC00" d="M1851.09,215.68c-53.7,0.74-97.37,44.86-97.6,98.57c-0.16,38.52,21.67,71.95,53.67,88.45
		c13.58,7.01,28.99,10.97,45.33,10.97c16.34,0,31.75-3.96,45.33-10.97c31.88-16.44,53.67-49.69,53.67-88.03
		C1951.49,259.53,1906.41,214.92,1851.09,215.68z M1852.49,260.67c39.76,0,72,32.24,72,72l-64.72-64.72
		c-4.02-4.02-10.53-4.02-14.55,0l-64.72,64.72C1780.49,292.91,1812.73,260.67,1852.49,260.67z M1782.76,350.67h15.73l5.93,35.6
		C1794.02,376.94,1786.35,364.62,1782.76,350.67z M1900.56,386.27l5.93-35.6h15.73C1918.63,364.62,1910.96,376.94,1900.56,386.27z"
		/>
	<g>
		<path d="M1764,460.51c0.18,0.18,0.27,0.42,0.27,0.73c0,0.36-0.11,0.64-0.33,0.86c-2.3,2.17-4.85,3.79-7.63,4.88
			c-2.79,1.09-5.69,1.63-8.7,1.63c-4.12,0-8.01-0.97-11.68-2.92c-3.67-1.95-6.64-4.69-8.9-8.23c-2.26-3.54-3.39-7.59-3.39-12.15
			c0-4.6,1.09-8.67,3.29-12.21c2.19-3.54,5.08-6.27,8.66-8.2s7.41-2.89,11.48-2.89c2.96,0,5.88,0.54,8.73,1.63
			c2.86,1.09,5.48,2.73,7.87,4.95c0.27,0.26,0.4,0.55,0.4,0.86c0,0.31-0.11,0.58-0.33,0.8l-2.92,3.12c-0.18,0.26-0.46,0.4-0.86,0.4
			c-0.27,0-0.49-0.09-0.66-0.27c-1.9-1.55-3.93-2.71-6.07-3.49c-2.15-0.77-4.3-1.16-6.47-1.16c-2.92,0-5.61,0.68-8.07,2.03
			c-2.46,1.35-4.43,3.28-5.91,5.78c-1.48,2.5-2.22,5.41-2.22,8.73c0,3.19,0.82,6.02,2.46,8.5c1.64,2.48,3.79,4.4,6.47,5.78
			c2.68,1.37,5.52,2.06,8.53,2.06c4.42,0,8.32-1.39,11.68-4.18c0.18-0.18,0.4-0.27,0.66-0.27c0.31,0,0.57,0.11,0.8,0.33L1764,460.51
			z"/>
		<path d="M1802.5,458.26c0,2.21-0.04,4.16-0.13,5.84s-0.16,2.74-0.2,3.19c0,0.36-0.13,0.66-0.4,0.93s-0.6,0.4-1,0.4h-3.52
			c-0.31,0-0.6-0.13-0.86-0.4s-0.42-0.57-0.46-0.93l-0.07-2.92c0-0.09-0.03-0.16-0.1-0.2s-0.14-0.02-0.23,0.07
			c-0.89,1.24-2.26,2.28-4.12,3.12c-1.86,0.84-3.65,1.26-5.38,1.26c-2.97,0-5.71-0.73-8.23-2.19c-2.52-1.46-4.51-3.45-5.97-5.97
			c-1.46-2.52-2.19-5.27-2.19-8.23s0.73-5.7,2.19-8.2c1.46-2.5,3.45-4.49,5.97-5.97s5.27-2.22,8.23-2.22c2.88,0,5.53,0.7,7.97,2.09
			c2.43,1.39,4.39,3.28,5.88,5.64c1.48,2.37,2.29,4.99,2.42,7.87C1802.44,453.85,1802.5,456.13,1802.5,458.26z M1790.92,460.65
			c1.48-0.88,2.66-2.08,3.52-3.58c0.86-1.5,1.29-3.14,1.29-4.91c0-1.77-0.44-3.4-1.33-4.88c-0.89-1.48-2.07-2.66-3.55-3.52
			c-1.48-0.86-3.11-1.29-4.88-1.29c-1.73,0-3.33,0.44-4.81,1.33c-1.48,0.89-2.67,2.07-3.55,3.55c-0.89,1.48-1.33,3.11-1.33,4.88
			c0,1.77,0.44,3.4,1.33,4.88c0.88,1.48,2.07,2.67,3.55,3.55c1.48,0.89,3.11,1.33,4.88,1.33
			C1787.81,461.97,1789.44,461.53,1790.92,460.65z"/>
		<path d="M1832.38,456.6c0.31,0.93,0.46,1.88,0.46,2.85c0,1.82-0.56,3.43-1.69,4.85s-2.61,2.5-4.45,3.25
			c-1.84,0.75-3.79,1.13-5.88,1.13c-2.3,0-4.49-0.5-6.57-1.49c-2.08-1-3.76-2.49-5.04-4.48c-0.09-0.13-0.13-0.35-0.13-0.66
			c0-0.57,0.2-0.95,0.6-1.13l3.32-1.79c0.18-0.09,0.35-0.13,0.53-0.13c0.4,0,0.73,0.16,1,0.46c0.75,0.84,1.73,1.53,2.92,2.06
			c1.2,0.53,2.37,0.8,3.52,0.8c1.28,0,2.47-0.29,3.55-0.86c1.08-0.57,1.63-1.39,1.63-2.46s-0.43-1.83-1.29-2.29
			s-2.22-0.87-4.08-1.23c-2.21-0.49-3.81-0.93-4.78-1.33c-2.08-0.84-3.65-2.01-4.71-3.52c-1.06-1.5-1.59-3.12-1.59-4.85
			c0-2.26,0.85-4.32,2.56-6.17c1.7-1.86,4.06-3.03,7.07-3.52c0.93-0.13,1.84-0.2,2.72-0.2c4.82,0,8.54,2.06,11.15,6.17
			c0.13,0.18,0.2,0.4,0.2,0.66c0,0.49-0.22,0.86-0.66,1.13l-2.92,1.73c-0.27,0.09-0.46,0.13-0.6,0.13c-0.44,0-0.8-0.16-1.06-0.46
			c-1.77-2.17-3.94-3.25-6.51-3.25c-0.31,0-0.78,0.04-1.39,0.13c-1.06,0.18-1.97,0.55-2.72,1.13c-0.75,0.58-1.15,1.17-1.19,1.79
			c-0.09,1.11,0.13,1.99,0.66,2.65c0.53,0.66,1.24,1.16,2.12,1.49c0.88,0.33,2.15,0.68,3.78,1.03c1.77,0.44,3.21,0.86,4.31,1.26
			c1.11,0.4,2.13,1.01,3.09,1.83C1831.24,454.13,1831.93,455.23,1832.38,456.6z"/>
		<path d="M1872.27,458.26c0,2.21-0.04,4.16-0.13,5.84s-0.16,2.74-0.2,3.19c0,0.36-0.13,0.66-0.4,0.93s-0.6,0.4-1,0.4h-3.52
			c-0.31,0-0.6-0.13-0.86-0.4s-0.42-0.57-0.46-0.93l-0.07-2.92c0-0.09-0.03-0.16-0.1-0.2s-0.14-0.02-0.23,0.07
			c-0.89,1.24-2.26,2.28-4.12,3.12c-1.86,0.84-3.65,1.26-5.38,1.26c-2.97,0-5.71-0.73-8.23-2.19c-2.52-1.46-4.51-3.45-5.97-5.97
			c-1.46-2.52-2.19-5.27-2.19-8.23s0.73-5.7,2.19-8.2c1.46-2.5,3.45-4.49,5.97-5.97s5.27-2.22,8.23-2.22c2.88,0,5.53,0.7,7.97,2.09
			c2.43,1.39,4.39,3.28,5.88,5.64c1.48,2.37,2.29,4.99,2.42,7.87C1872.21,453.85,1872.27,456.13,1872.27,458.26z M1860.69,460.65
			c1.48-0.88,2.66-2.08,3.52-3.58c0.86-1.5,1.29-3.14,1.29-4.91c0-1.77-0.44-3.4-1.33-4.88c-0.89-1.48-2.07-2.66-3.55-3.52
			c-1.48-0.86-3.11-1.29-4.88-1.29c-1.73,0-3.33,0.44-4.81,1.33c-1.48,0.89-2.67,2.07-3.55,3.55c-0.89,1.48-1.33,3.11-1.33,4.88
			c0,1.77,0.44,3.4,1.33,4.88c0.88,1.48,2.07,2.67,3.55,3.55c1.48,0.89,3.11,1.33,4.88,1.33
			C1857.58,461.97,1859.21,461.53,1860.69,460.65z"/>
		<path d="M1898.49,467.68l-9.29-12.35l-3.12,3.78l-0.2,8.36c0,0.31-0.11,0.58-0.33,0.8c-0.22,0.22-0.49,0.33-0.8,0.33h-3.92
			c-0.31,0-0.58-0.11-0.8-0.33c-0.22-0.22-0.33-0.49-0.33-0.8l-0.2-10.69v-13.21l0.2-23.7c0-0.31,0.11-0.58,0.33-0.8
			c0.22-0.22,0.49-0.33,0.8-0.33h3.92c0.31,0,0.57,0.11,0.8,0.33c0.22,0.22,0.33,0.49,0.33,0.8l0.2,23.7v5.24l10.36-12.15
			c0.44-0.57,1.02-0.86,1.73-0.86h4.58c0.31,0,0.58,0.12,0.8,0.37c0.22,0.24,0.33,0.52,0.33,0.83c0,0.27-0.09,0.51-0.27,0.73
			l-9.83,12.08c-0.22,0.22-0.24,0.44-0.07,0.66l11.75,16.26c0.18,0.18,0.27,0.42,0.27,0.73c0,0.31-0.12,0.58-0.37,0.8
			c-0.24,0.22-0.52,0.33-0.83,0.33h-4.18C1899.6,468.61,1898.98,468.3,1898.49,467.68z"/>
		<path d="M1940.65,458.26c0,2.21-0.04,4.16-0.13,5.84s-0.16,2.74-0.2,3.19c0,0.36-0.13,0.66-0.4,0.93s-0.6,0.4-1,0.4h-3.52
			c-0.31,0-0.6-0.13-0.86-0.4s-0.42-0.57-0.46-0.93l-0.07-2.92c0-0.09-0.03-0.16-0.1-0.2s-0.14-0.02-0.23,0.07
			c-0.89,1.24-2.26,2.28-4.12,3.12c-1.86,0.84-3.65,1.26-5.38,1.26c-2.97,0-5.71-0.73-8.23-2.19c-2.52-1.46-4.51-3.45-5.97-5.97
			c-1.46-2.52-2.19-5.27-2.19-8.23s0.73-5.7,2.19-8.2c1.46-2.5,3.45-4.49,5.97-5.97s5.27-2.22,8.23-2.22c2.88,0,5.53,0.7,7.97,2.09
			c2.43,1.39,4.39,3.28,5.88,5.64c1.48,2.37,2.29,4.99,2.42,7.87C1940.58,453.85,1940.65,456.13,1940.65,458.26z M1929.06,460.65
			c1.48-0.88,2.66-2.08,3.52-3.58c0.86-1.5,1.29-3.14,1.29-4.91c0-1.77-0.44-3.4-1.33-4.88c-0.89-1.48-2.07-2.66-3.55-3.52
			c-1.48-0.86-3.11-1.29-4.88-1.29c-1.73,0-3.33,0.44-4.81,1.33c-1.48,0.89-2.67,2.07-3.55,3.55c-0.89,1.48-1.33,3.11-1.33,4.88
			c0,1.77,0.44,3.4,1.33,4.88c0.88,1.48,2.07,2.67,3.55,3.55c1.48,0.89,3.11,1.33,4.88,1.33
			C1925.96,461.97,1927.58,461.53,1929.06,460.65z"/>
		<path d="M1948.68,474.45c-0.09-5.09-0.13-9.82-0.13-14.21c0-2.96,0.04-5.91,0.13-8.83c0.13-2.88,0.94-5.5,2.42-7.87
			c1.48-2.37,3.45-4.25,5.91-5.64s5.12-2.09,8-2.09c2.96,0,5.7,0.74,8.2,2.22c2.5,1.48,4.48,3.47,5.94,5.97
			c1.46,2.5,2.19,5.23,2.19,8.2s-0.73,5.7-2.19,8.2c-1.46,2.5-3.44,4.49-5.94,5.97c-2.5,1.48-5.23,2.22-8.2,2.22
			c-1.73,0-3.52-0.42-5.38-1.26c-1.86-0.84-3.23-1.86-4.12-3.05c-0.04-0.09-0.11-0.12-0.2-0.1c-0.09,0.02-0.13,0.08-0.13,0.17
			l-0.13,19.98c0,0.35-0.13,0.66-0.4,0.93s-0.58,0.4-0.93,0.4h-3.52c-0.35,0-0.66-0.13-0.93-0.4s-0.4-0.58-0.4-0.93
			C1948.83,482.84,1948.77,479.54,1948.68,474.45z M1956.58,457.09c0.88,1.48,2.07,2.67,3.55,3.55c1.48,0.89,3.11,1.33,4.88,1.33
			c1.77,0,3.4-0.44,4.88-1.33c1.48-0.88,2.67-2.07,3.55-3.55c0.88-1.48,1.33-3.11,1.33-4.88c0-1.77-0.44-3.41-1.33-4.91
			c-0.89-1.5-2.07-2.69-3.55-3.55c-1.48-0.86-3.11-1.29-4.88-1.29c-1.77,0-3.4,0.44-4.88,1.33c-1.48,0.89-2.67,2.07-3.55,3.55
			c-0.89,1.48-1.33,3.11-1.33,4.88C1955.25,453.98,1955.69,455.61,1956.58,457.09z"/>
	</g>
</g>
<g>
	<path fill="#0099FF" d="M1851.09-162.32c-53.7,0.74-97.37,44.86-97.6,98.57c-0.16,38.52,21.67,71.95,53.67,88.45
		c13.58,7.01,28.99,10.97,45.33,10.97c16.34,0,31.75-3.96,45.33-10.97c31.88-16.44,53.67-49.69,53.67-88.03
		C1951.49-118.47,1906.41-163.08,1851.09-162.32z M1852.49-117.33c39.76,0,72,32.24,72,72l-64.72-64.72
		c-4.02-4.02-10.53-4.02-14.55,0l-64.72,64.72C1780.49-85.09,1812.73-117.33,1852.49-117.33z M1782.76-27.33h15.73l5.93,35.6
		C1794.02-1.06,1786.35-13.38,1782.76-27.33z M1900.56,8.27l5.93-35.6h15.73C1918.63-13.38,1910.96-1.06,1900.56,8.27z"/>
	<g>
		<path d="M1764,82.51c0.18,0.18,0.27,0.42,0.27,0.73c0,0.36-0.11,0.64-0.33,0.86c-2.3,2.17-4.85,3.79-7.63,4.88
			c-2.79,1.09-5.69,1.63-8.7,1.63c-4.12,0-8.01-0.97-11.68-2.92c-3.67-1.95-6.64-4.69-8.9-8.23c-2.26-3.54-3.39-7.59-3.39-12.15
			c0-4.6,1.09-8.67,3.29-12.21c2.19-3.54,5.08-6.27,8.66-8.2s7.41-2.89,11.48-2.89c2.96,0,5.88,0.54,8.73,1.63
			c2.86,1.09,5.48,2.73,7.87,4.95c0.27,0.26,0.4,0.55,0.4,0.86c0,0.31-0.11,0.58-0.33,0.8l-2.92,3.12c-0.18,0.26-0.46,0.4-0.86,0.4
			c-0.27,0-0.49-0.09-0.66-0.27c-1.9-1.55-3.93-2.71-6.07-3.49c-2.15-0.77-4.3-1.16-6.47-1.16c-2.92,0-5.61,0.68-8.07,2.03
			c-2.46,1.35-4.43,3.28-5.91,5.78c-1.48,2.5-2.22,5.41-2.22,8.73c0,3.19,0.82,6.02,2.46,8.5c1.64,2.48,3.79,4.4,6.47,5.78
			c2.68,1.37,5.52,2.06,8.53,2.06c4.42,0,8.32-1.39,11.68-4.18c0.18-0.18,0.4-0.27,0.66-0.27c0.31,0,0.57,0.11,0.8,0.33L1764,82.51z
			"/>
		<path d="M1802.5,80.26c0,2.21-0.04,4.16-0.13,5.84s-0.16,2.74-0.2,3.19c0,0.36-0.13,0.66-0.4,0.93s-0.6,0.4-1,0.4h-3.52
			c-0.31,0-0.6-0.13-0.86-0.4s-0.42-0.57-0.46-0.93l-0.07-2.92c0-0.09-0.03-0.16-0.1-0.2s-0.14-0.02-0.23,0.07
			c-0.89,1.24-2.26,2.28-4.12,3.12c-1.86,0.84-3.65,1.26-5.38,1.26c-2.97,0-5.71-0.73-8.23-2.19c-2.52-1.46-4.51-3.45-5.97-5.97
			c-1.46-2.52-2.19-5.27-2.19-8.23s0.73-5.7,2.19-8.2c1.46-2.5,3.45-4.49,5.97-5.97s5.27-2.22,8.23-2.22c2.88,0,5.53,0.7,7.97,2.09
			c2.43,1.39,4.39,3.28,5.88,5.64c1.48,2.37,2.29,4.99,2.42,7.87C1802.44,75.85,1802.5,78.13,1802.5,80.26z M1790.92,82.65
			c1.48-0.88,2.66-2.08,3.52-3.58c0.86-1.5,1.29-3.14,1.29-4.91c0-1.77-0.44-3.4-1.33-4.88c-0.89-1.48-2.07-2.66-3.55-3.52
			c-1.48-0.86-3.11-1.29-4.88-1.29c-1.73,0-3.33,0.44-4.81,1.33c-1.48,0.89-2.67,2.07-3.55,3.55c-0.89,1.48-1.33,3.11-1.33,4.88
			c0,1.77,0.44,3.4,1.33,4.88c0.88,1.48,2.07,2.67,3.55,3.55c1.48,0.89,3.11,1.33,4.88,1.33
			C1787.81,83.97,1789.44,83.53,1790.92,82.65z"/>
		<path d="M1832.38,78.6c0.31,0.93,0.46,1.88,0.46,2.85c0,1.82-0.56,3.43-1.69,4.85s-2.61,2.5-4.45,3.25
			c-1.84,0.75-3.79,1.13-5.88,1.13c-2.3,0-4.49-0.5-6.57-1.49c-2.08-1-3.76-2.49-5.04-4.48c-0.09-0.13-0.13-0.35-0.13-0.66
			c0-0.57,0.2-0.95,0.6-1.13l3.32-1.79c0.18-0.09,0.35-0.13,0.53-0.13c0.4,0,0.73,0.16,1,0.46c0.75,0.84,1.73,1.53,2.92,2.06
			c1.2,0.53,2.37,0.8,3.52,0.8c1.28,0,2.47-0.29,3.55-0.86c1.08-0.57,1.63-1.39,1.63-2.46s-0.43-1.83-1.29-2.29
			s-2.22-0.87-4.08-1.23c-2.21-0.49-3.81-0.93-4.78-1.33c-2.08-0.84-3.65-2.01-4.71-3.52c-1.06-1.5-1.59-3.12-1.59-4.85
			c0-2.26,0.85-4.32,2.56-6.17c1.7-1.86,4.06-3.03,7.07-3.52c0.93-0.13,1.84-0.2,2.72-0.2c4.82,0,8.54,2.06,11.15,6.17
			c0.13,0.18,0.2,0.4,0.2,0.66c0,0.49-0.22,0.86-0.66,1.13l-2.92,1.73c-0.27,0.09-0.46,0.13-0.6,0.13c-0.44,0-0.8-0.16-1.06-0.46
			c-1.77-2.17-3.94-3.25-6.51-3.25c-0.31,0-0.78,0.04-1.39,0.13c-1.06,0.18-1.97,0.55-2.72,1.13c-0.75,0.58-1.15,1.17-1.19,1.79
			c-0.09,1.11,0.13,1.99,0.66,2.65c0.53,0.66,1.24,1.16,2.12,1.49c0.88,0.33,2.15,0.68,3.78,1.03c1.77,0.44,3.21,0.86,4.31,1.26
			c1.11,0.4,2.13,1.01,3.09,1.83C1831.24,76.13,1831.93,77.23,1832.38,78.6z"/>
		<path d="M1872.27,80.26c0,2.21-0.04,4.16-0.13,5.84s-0.16,2.74-0.2,3.19c0,0.36-0.13,0.66-0.4,0.93s-0.6,0.4-1,0.4h-3.52
			c-0.31,0-0.6-0.13-0.86-0.4s-0.42-0.57-0.46-0.93l-0.07-2.92c0-0.09-0.03-0.16-0.1-0.2s-0.14-0.02-0.23,0.07
			c-0.89,1.24-2.26,2.28-4.12,3.12c-1.86,0.84-3.65,1.26-5.38,1.26c-2.97,0-5.71-0.73-8.23-2.19c-2.52-1.46-4.51-3.45-5.97-5.97
			c-1.46-2.52-2.19-5.27-2.19-8.23s0.73-5.7,2.19-8.2c1.46-2.5,3.45-4.49,5.97-5.97s5.27-2.22,8.23-2.22c2.88,0,5.53,0.7,7.97,2.09
			c2.43,1.39,4.39,3.28,5.88,5.64c1.48,2.37,2.29,4.99,2.42,7.87C1872.21,75.85,1872.27,78.13,1872.27,80.26z M1860.69,82.65
			c1.48-0.88,2.66-2.08,3.52-3.58c0.86-1.5,1.29-3.14,1.29-4.91c0-1.77-0.44-3.4-1.33-4.88c-0.89-1.48-2.07-2.66-3.55-3.52
			c-1.48-0.86-3.11-1.29-4.88-1.29c-1.73,0-3.33,0.44-4.81,1.33c-1.48,0.89-2.67,2.07-3.55,3.55c-0.89,1.48-1.33,3.11-1.33,4.88
			c0,1.77,0.44,3.4,1.33,4.88c0.88,1.48,2.07,2.67,3.55,3.55c1.48,0.89,3.11,1.33,4.88,1.33
			C1857.58,83.97,1859.21,83.53,1860.69,82.65z"/>
		<path d="M1898.49,89.68l-9.29-12.35l-3.12,3.78l-0.2,8.36c0,0.31-0.11,0.58-0.33,0.8c-0.22,0.22-0.49,0.33-0.8,0.33h-3.92
			c-0.31,0-0.58-0.11-0.8-0.33c-0.22-0.22-0.33-0.49-0.33-0.8l-0.2-10.69V65.58l0.2-23.7c0-0.31,0.11-0.58,0.33-0.8
			c0.22-0.22,0.49-0.33,0.8-0.33h3.92c0.31,0,0.57,0.11,0.8,0.33c0.22,0.22,0.33,0.49,0.33,0.8l0.2,23.7v5.24l10.36-12.15
			c0.44-0.57,1.02-0.86,1.73-0.86h4.58c0.31,0,0.58,0.12,0.8,0.37c0.22,0.24,0.33,0.52,0.33,0.83c0,0.27-0.09,0.51-0.27,0.73
			l-9.83,12.08c-0.22,0.22-0.24,0.44-0.07,0.66l11.75,16.26c0.18,0.18,0.27,0.42,0.27,0.73c0,0.31-0.12,0.58-0.37,0.8
			c-0.24,0.22-0.52,0.33-0.83,0.33h-4.18C1899.6,90.61,1898.98,90.3,1898.49,89.68z"/>
		<path d="M1940.65,80.26c0,2.21-0.04,4.16-0.13,5.84s-0.16,2.74-0.2,3.19c0,0.36-0.13,0.66-0.4,0.93s-0.6,0.4-1,0.4h-3.52
			c-0.31,0-0.6-0.13-0.86-0.4s-0.42-0.57-0.46-0.93l-0.07-2.92c0-0.09-0.03-0.16-0.1-0.2s-0.14-0.02-0.23,0.07
			c-0.89,1.24-2.26,2.28-4.12,3.12c-1.86,0.84-3.65,1.26-5.38,1.26c-2.97,0-5.71-0.73-8.23-2.19c-2.52-1.46-4.51-3.45-5.97-5.97
			c-1.46-2.52-2.19-5.27-2.19-8.23s0.73-5.7,2.19-8.2c1.46-2.5,3.45-4.49,5.97-5.97s5.27-2.22,8.23-2.22c2.88,0,5.53,0.7,7.97,2.09
			c2.43,1.39,4.39,3.28,5.88,5.64c1.48,2.37,2.29,4.99,2.42,7.87C1940.58,75.85,1940.65,78.13,1940.65,80.26z M1929.06,82.65
			c1.48-0.88,2.66-2.08,3.52-3.58c0.86-1.5,1.29-3.14,1.29-4.91c0-1.77-0.44-3.4-1.33-4.88c-0.89-1.48-2.07-2.66-3.55-3.52
			c-1.48-0.86-3.11-1.29-4.88-1.29c-1.73,0-3.33,0.44-4.81,1.33c-1.48,0.89-2.67,2.07-3.55,3.55c-0.89,1.48-1.33,3.11-1.33,4.88
			c0,1.77,0.44,3.4,1.33,4.88c0.88,1.48,2.07,2.67,3.55,3.55c1.48,0.89,3.11,1.33,4.88,1.33
			C1925.96,83.97,1927.58,83.53,1929.06,82.65z"/>
		<path d="M1948.68,96.45c-0.09-5.09-0.13-9.82-0.13-14.21c0-2.96,0.04-5.91,0.13-8.83c0.13-2.88,0.94-5.5,2.42-7.87
			c1.48-2.37,3.45-4.25,5.91-5.64s5.12-2.09,8-2.09c2.96,0,5.7,0.74,8.2,2.22c2.5,1.48,4.48,3.47,5.94,5.97
			c1.46,2.5,2.19,5.23,2.19,8.2s-0.73,5.7-2.19,8.2c-1.46,2.5-3.44,4.49-5.94,5.97c-2.5,1.48-5.23,2.22-8.2,2.22
			c-1.73,0-3.52-0.42-5.38-1.26c-1.86-0.84-3.23-1.86-4.12-3.05c-0.04-0.09-0.11-0.12-0.2-0.1c-0.09,0.02-0.13,0.08-0.13,0.17
			l-0.13,19.98c0,0.35-0.13,0.66-0.4,0.93s-0.58,0.4-0.93,0.4h-3.52c-0.35,0-0.66-0.13-0.93-0.4s-0.4-0.58-0.4-0.93
			C1948.83,104.84,1948.77,101.54,1948.68,96.45z M1956.58,79.09c0.88,1.48,2.07,2.67,3.55,3.55c1.48,0.89,3.11,1.33,4.88,1.33
			c1.77,0,3.4-0.44,4.88-1.33c1.48-0.88,2.67-2.07,3.55-3.55c0.88-1.48,1.33-3.11,1.33-4.88c0-1.77-0.44-3.41-1.33-4.91
			c-0.89-1.5-2.07-2.69-3.55-3.55c-1.48-0.86-3.11-1.29-4.88-1.29c-1.77,0-3.4,0.44-4.88,1.33c-1.48,0.89-2.67,2.07-3.55,3.55
			c-0.89,1.48-1.33,3.11-1.33,4.88C1955.25,75.98,1955.69,77.61,1956.58,79.09z"/>
	</g>
</g>
<path fill="#734EF8" d="M1470.24-162.32c-53.7,0.74-97.37,44.86-97.6,98.57c-0.16,38.52,21.67,71.95,53.67,88.45
	c13.58,7.01,28.99,10.97,45.33,10.97c16.34,0,31.75-3.96,45.33-10.97c31.88-16.44,53.67-49.69,53.67-88.03
	C1570.64-118.47,1525.56-163.08,1470.24-162.32z M1471.64-117.33c39.76,0,72,32.24,72,72l-64.72-64.72
	c-4.02-4.02-10.53-4.02-14.55,0l-64.72,64.72C1399.64-85.09,1431.88-117.33,1471.64-117.33z M1401.91-27.33h15.73l5.93,35.6
	C1413.17-1.06,1405.5-13.38,1401.91-27.33z M1519.71,8.27l5.93-35.6h15.73C1537.78-13.38,1530.11-1.06,1519.71,8.27z"/>
<g>
	<path fill="#734EF8" d="M125.93,16.37C65.64,17.21,16.61,66.73,16.36,127.03c-0.18,43.24,24.33,80.77,60.25,99.3
		c15.24,7.87,32.54,12.32,50.89,12.32s35.64-4.45,50.89-12.32c35.79-18.46,60.25-55.78,60.25-98.82
		C238.64,65.59,188.03,15.51,125.93,16.37z M127.5,66.88c44.63,0,80.83,36.19,80.83,80.83l-72.66-72.66
		c-4.51-4.51-11.82-4.51-16.34,0l-72.66,72.66C46.67,103.07,82.87,66.88,127.5,66.88z M49.22,167.91h17.66l6.66,39.96
		C61.86,197.4,53.25,183.57,49.22,167.91z M181.46,207.88l6.66-39.96h17.66C201.75,183.57,193.14,197.4,181.46,207.88z"/>
</g>
<g>
	<path d="M1383.15,82.51c0.18,0.18,0.27,0.42,0.27,0.73c0,0.36-0.11,0.64-0.33,0.86c-2.3,2.17-4.85,3.79-7.63,4.88
		c-2.79,1.09-5.69,1.63-8.7,1.63c-4.12,0-8.01-0.97-11.68-2.92c-3.67-1.95-6.64-4.69-8.9-8.23c-2.26-3.54-3.39-7.59-3.39-12.15
		c0-4.6,1.09-8.67,3.29-12.21c2.19-3.54,5.08-6.27,8.66-8.2s7.41-2.89,11.48-2.89c2.96,0,5.88,0.54,8.73,1.63
		c2.86,1.09,5.48,2.73,7.87,4.95c0.27,0.26,0.4,0.55,0.4,0.86c0,0.31-0.11,0.58-0.33,0.8l-2.92,3.12c-0.18,0.26-0.46,0.4-0.86,0.4
		c-0.27,0-0.49-0.09-0.66-0.27c-1.9-1.55-3.93-2.71-6.07-3.49c-2.15-0.77-4.3-1.16-6.47-1.16c-2.92,0-5.61,0.68-8.07,2.03
		c-2.46,1.35-4.43,3.28-5.91,5.78c-1.48,2.5-2.22,5.41-2.22,8.73c0,3.19,0.82,6.02,2.46,8.5c1.64,2.48,3.79,4.4,6.47,5.78
		c2.68,1.37,5.52,2.06,8.53,2.06c4.42,0,8.32-1.39,11.68-4.18c0.18-0.18,0.4-0.27,0.66-0.27c0.31,0,0.57,0.11,0.8,0.33
		L1383.15,82.51z"/>
	<path d="M1421.65,80.26c0,2.21-0.04,4.16-0.13,5.84s-0.16,2.74-0.2,3.19c0,0.36-0.13,0.66-0.4,0.93s-0.6,0.4-1,0.4h-3.52
		c-0.31,0-0.6-0.13-0.86-0.4s-0.42-0.57-0.46-0.93l-0.07-2.92c0-0.09-0.03-0.16-0.1-0.2s-0.14-0.02-0.23,0.07
		c-0.89,1.24-2.26,2.28-4.12,3.12c-1.86,0.84-3.65,1.26-5.38,1.26c-2.97,0-5.71-0.73-8.23-2.19c-2.52-1.46-4.51-3.45-5.97-5.97
		c-1.46-2.52-2.19-5.27-2.19-8.23s0.73-5.7,2.19-8.2c1.46-2.5,3.45-4.49,5.97-5.97s5.27-2.22,8.23-2.22c2.88,0,5.53,0.7,7.97,2.09
		c2.43,1.39,4.39,3.28,5.88,5.64c1.48,2.37,2.29,4.99,2.42,7.87C1421.59,75.85,1421.65,78.13,1421.65,80.26z M1410.07,82.65
		c1.48-0.88,2.66-2.08,3.52-3.58c0.86-1.5,1.29-3.14,1.29-4.91c0-1.77-0.44-3.4-1.33-4.88c-0.89-1.48-2.07-2.66-3.55-3.52
		c-1.48-0.86-3.11-1.29-4.88-1.29c-1.73,0-3.33,0.44-4.81,1.33c-1.48,0.89-2.67,2.07-3.55,3.55c-0.89,1.48-1.33,3.11-1.33,4.88
		c0,1.77,0.44,3.4,1.33,4.88c0.88,1.48,2.07,2.67,3.55,3.55c1.48,0.89,3.11,1.33,4.88,1.33
		C1406.96,83.97,1408.58,83.53,1410.07,82.65z"/>
	<path d="M1451.52,78.6c0.31,0.93,0.46,1.88,0.46,2.85c0,1.82-0.56,3.43-1.69,4.85s-2.61,2.5-4.45,3.25
		c-1.84,0.75-3.79,1.13-5.88,1.13c-2.3,0-4.49-0.5-6.57-1.49c-2.08-1-3.76-2.49-5.04-4.48c-0.09-0.13-0.13-0.35-0.13-0.66
		c0-0.57,0.2-0.95,0.6-1.13l3.32-1.79c0.18-0.09,0.35-0.13,0.53-0.13c0.4,0,0.73,0.16,1,0.46c0.75,0.84,1.73,1.53,2.92,2.06
		c1.2,0.53,2.37,0.8,3.52,0.8c1.28,0,2.47-0.29,3.55-0.86c1.08-0.57,1.63-1.39,1.63-2.46s-0.43-1.83-1.29-2.29s-2.22-0.87-4.08-1.23
		c-2.21-0.49-3.81-0.93-4.78-1.33c-2.08-0.84-3.65-2.01-4.71-3.52c-1.06-1.5-1.59-3.12-1.59-4.85c0-2.26,0.85-4.32,2.56-6.17
		c1.7-1.86,4.06-3.03,7.07-3.52c0.93-0.13,1.84-0.2,2.72-0.2c4.82,0,8.54,2.06,11.15,6.17c0.13,0.18,0.2,0.4,0.2,0.66
		c0,0.49-0.22,0.86-0.66,1.13l-2.92,1.73c-0.27,0.09-0.46,0.13-0.6,0.13c-0.44,0-0.8-0.16-1.06-0.46c-1.77-2.17-3.94-3.25-6.51-3.25
		c-0.31,0-0.78,0.04-1.39,0.13c-1.06,0.18-1.97,0.55-2.72,1.13c-0.75,0.58-1.15,1.17-1.19,1.79c-0.09,1.11,0.13,1.99,0.66,2.65
		c0.53,0.66,1.24,1.16,2.12,1.49c0.88,0.33,2.15,0.68,3.78,1.03c1.77,0.44,3.21,0.86,4.31,1.26c1.11,0.4,2.13,1.01,3.09,1.83
		C1450.38,76.13,1451.08,77.23,1451.52,78.6z"/>
	<path d="M1491.42,80.26c0,2.21-0.04,4.16-0.13,5.84s-0.16,2.74-0.2,3.19c0,0.36-0.13,0.66-0.4,0.93s-0.6,0.4-1,0.4h-3.52
		c-0.31,0-0.6-0.13-0.86-0.4s-0.42-0.57-0.46-0.93l-0.07-2.92c0-0.09-0.03-0.16-0.1-0.2s-0.14-0.02-0.23,0.07
		c-0.89,1.24-2.26,2.28-4.12,3.12c-1.86,0.84-3.65,1.26-5.38,1.26c-2.97,0-5.71-0.73-8.23-2.19c-2.52-1.46-4.51-3.45-5.97-5.97
		c-1.46-2.52-2.19-5.27-2.19-8.23s0.73-5.7,2.19-8.2c1.46-2.5,3.45-4.49,5.97-5.97s5.27-2.22,8.23-2.22c2.88,0,5.53,0.7,7.97,2.09
		c2.43,1.39,4.39,3.28,5.88,5.64c1.48,2.37,2.29,4.99,2.42,7.87C1491.35,75.85,1491.42,78.13,1491.42,80.26z M1479.84,82.65
		c1.48-0.88,2.66-2.08,3.52-3.58c0.86-1.5,1.29-3.14,1.29-4.91c0-1.77-0.44-3.4-1.33-4.88c-0.89-1.48-2.07-2.66-3.55-3.52
		c-1.48-0.86-3.11-1.29-4.88-1.29c-1.73,0-3.33,0.44-4.81,1.33c-1.48,0.89-2.67,2.07-3.55,3.55c-0.89,1.48-1.33,3.11-1.33,4.88
		c0,1.77,0.44,3.4,1.33,4.88c0.88,1.48,2.07,2.67,3.55,3.55c1.48,0.89,3.11,1.33,4.88,1.33
		C1476.73,83.97,1478.35,83.53,1479.84,82.65z"/>
	<path d="M1517.64,89.68l-9.29-12.35l-3.12,3.78l-0.2,8.36c0,0.31-0.11,0.58-0.33,0.8c-0.22,0.22-0.49,0.33-0.8,0.33h-3.92
		c-0.31,0-0.58-0.11-0.8-0.33c-0.22-0.22-0.33-0.49-0.33-0.8l-0.2-10.69V65.58l0.2-23.7c0-0.31,0.11-0.58,0.33-0.8
		c0.22-0.22,0.49-0.33,0.8-0.33h3.92c0.31,0,0.57,0.11,0.8,0.33c0.22,0.22,0.33,0.49,0.33,0.8l0.2,23.7v5.24l10.36-12.15
		c0.44-0.57,1.02-0.86,1.73-0.86h4.58c0.31,0,0.58,0.12,0.8,0.37c0.22,0.24,0.33,0.52,0.33,0.83c0,0.27-0.09,0.51-0.27,0.73
		l-9.83,12.08c-0.22,0.22-0.24,0.44-0.07,0.66l11.75,16.26c0.18,0.18,0.27,0.42,0.27,0.73c0,0.31-0.12,0.58-0.37,0.8
		c-0.24,0.22-0.52,0.33-0.83,0.33h-4.18C1518.75,90.61,1518.13,90.3,1517.64,89.68z"/>
	<path d="M1559.8,80.26c0,2.21-0.04,4.16-0.13,5.84s-0.16,2.74-0.2,3.19c0,0.36-0.13,0.66-0.4,0.93s-0.6,0.4-1,0.4h-3.52
		c-0.31,0-0.6-0.13-0.86-0.4s-0.42-0.57-0.46-0.93l-0.07-2.92c0-0.09-0.03-0.16-0.1-0.2s-0.14-0.02-0.23,0.07
		c-0.89,1.24-2.26,2.28-4.12,3.12c-1.86,0.84-3.65,1.26-5.38,1.26c-2.97,0-5.71-0.73-8.23-2.19c-2.52-1.46-4.51-3.45-5.97-5.97
		c-1.46-2.52-2.19-5.27-2.19-8.23s0.73-5.7,2.19-8.2c1.46-2.5,3.45-4.49,5.97-5.97s5.27-2.22,8.23-2.22c2.88,0,5.53,0.7,7.97,2.09
		c2.43,1.39,4.39,3.28,5.88,5.64c1.48,2.37,2.29,4.99,2.42,7.87C1559.73,75.85,1559.8,78.13,1559.8,80.26z M1548.21,82.65
		c1.48-0.88,2.66-2.08,3.52-3.58c0.86-1.5,1.29-3.14,1.29-4.91c0-1.77-0.44-3.4-1.33-4.88c-0.89-1.48-2.07-2.66-3.55-3.52
		c-1.48-0.86-3.11-1.29-4.88-1.29c-1.73,0-3.33,0.44-4.81,1.33c-1.48,0.89-2.67,2.07-3.55,3.55c-0.89,1.48-1.33,3.11-1.33,4.88
		c0,1.77,0.44,3.4,1.33,4.88c0.88,1.48,2.07,2.67,3.55,3.55c1.48,0.89,3.11,1.33,4.88,1.33
		C1545.1,83.97,1546.73,83.53,1548.21,82.65z"/>
	<path d="M1567.83,96.45c-0.09-5.09-0.13-9.82-0.13-14.21c0-2.96,0.04-5.91,0.13-8.83c0.13-2.88,0.94-5.5,2.42-7.87
		c1.48-2.37,3.45-4.25,5.91-5.64s5.12-2.09,8-2.09c2.96,0,5.7,0.74,8.2,2.22c2.5,1.48,4.48,3.47,5.94,5.97
		c1.46,2.5,2.19,5.23,2.19,8.2s-0.73,5.7-2.19,8.2c-1.46,2.5-3.44,4.49-5.94,5.97c-2.5,1.48-5.23,2.22-8.2,2.22
		c-1.73,0-3.52-0.42-5.38-1.26c-1.86-0.84-3.23-1.86-4.12-3.05c-0.04-0.09-0.11-0.12-0.2-0.1c-0.09,0.02-0.13,0.08-0.13,0.17
		l-0.13,19.98c0,0.35-0.13,0.66-0.4,0.93s-0.58,0.4-0.93,0.4h-3.52c-0.35,0-0.66-0.13-0.93-0.4s-0.4-0.58-0.4-0.93
		C1567.98,104.84,1567.92,101.54,1567.83,96.45z M1575.73,79.09c0.88,1.48,2.07,2.67,3.55,3.55c1.48,0.89,3.11,1.33,4.88,1.33
		c1.77,0,3.4-0.44,4.88-1.33c1.48-0.88,2.67-2.07,3.55-3.55c0.88-1.48,1.33-3.11,1.33-4.88c0-1.77-0.44-3.41-1.33-4.91
		c-0.89-1.5-2.07-2.69-3.55-3.55c-1.48-0.86-3.11-1.29-4.88-1.29c-1.77,0-3.4,0.44-4.88,1.33c-1.48,0.89-2.67,2.07-3.55,3.55
		c-0.89,1.48-1.33,3.11-1.33,4.88C1574.4,75.98,1574.84,77.61,1575.73,79.09z"/>
</g>
<path fill="#FF0000" d="M2335.64-18.33c-54.68,0-99,44.32-99,99c0,38.34,21.79,71.59,53.67,88.03
	c13.58,7.01,28.99,10.97,45.33,10.97s31.75-3.96,45.33-10.97c31.88-16.44,53.67-49.69,53.67-88.03
	C2434.64,25.99,2390.32-18.33,2335.64-18.33z M2335.64,26.67c39.76,0,72,32.24,72,72L2335.64,26.67l-72,72
	C2263.64,58.91,2295.88,26.67,2335.64,26.67z M2265.91,116.67h15.73l5.93,35.6C2277.17,142.94,2269.5,130.62,2265.91,116.67z
	 M2383.71,152.27l5.93-35.6h15.73C2401.78,130.62,2394.11,142.94,2383.71,152.27z"/>
<text transform="matrix(1 0 0 1 2203.135 242.6724)" font-family="'cream-DEMO'" font-size="66.3855px">Casakap</text>
</svg>
