<?xml version="1.0" encoding="utf-8"?>
<!-- Generator: Adobe Illustrator 24.3.0, SVG Export Plug-In . SVG Version: 6.00 Build 0)  -->
<svg version="1.1" id="Layer_1" xmlns="http://www.w3.org/2000/svg" xmlns:xlink="http://www.w3.org/1999/xlink" x="0px" y="0px"
	 viewBox="0 0 922.2 255" style="enable-background:new 0 0 922.2 255;" xml:space="preserve">
<style type="text/css">
	.st0{fill:#EDEBFF;}
	.st1{fill:#FF0000;}
	.st2{fill:#FF6600;}
	.st3{fill:#EFE914;}
	.st4{fill:#66CC00;}
	.st5{fill:#0099FF;}
	.st6{fill:#734EF8;}
</style>
<circle class="st0" cx="643.1" cy="-264" r="117"/>
<path class="st1" d="M1319.7-548c-53.7,0.7-97.4,44.9-97.6,98.6c-0.2,38.5,21.7,72,53.7,88.5c13.6,7,29,11,45.3,11s31.8-4,45.3-11
	c31.9-16.4,53.7-49.7,53.7-88C1420.1-504.1,1375.1-548.7,1319.7-548z M1321.1-503c39.8,0,72,32.2,72,72l-64.7-64.7
	c-4-4-10.5-4-14.6,0l-64.7,64.7C1249.1-470.7,1281.4-503,1321.1-503z M1251.4-413h15.7l5.9,35.6C1262.7-386.7,1255-399,1251.4-413z
	 M1369.2-377.4l5.9-35.6h15.7C1387.3-399,1379.6-386.7,1369.2-377.4z"/>
<g>
	<path d="M1232.6-303.1c0.2,0.2,0.3,0.4,0.3,0.7c0,0.4-0.1,0.6-0.3,0.9c-2.3,2.2-4.8,3.8-7.6,4.9c-2.8,1.1-5.7,1.6-8.7,1.6
		c-4.1,0-8-1-11.7-2.9c-3.7-1.9-6.6-4.7-8.9-8.2c-2.3-3.5-3.4-7.6-3.4-12.1c0-4.6,1.1-8.7,3.3-12.2c2.2-3.5,5.1-6.3,8.7-8.2
		c3.6-1.9,7.4-2.9,11.5-2.9c3,0,5.9,0.5,8.7,1.6c2.9,1.1,5.5,2.7,7.9,5c0.3,0.3,0.4,0.5,0.4,0.9s-0.1,0.6-0.3,0.8l-2.9,3.1
		c-0.2,0.3-0.5,0.4-0.9,0.4c-0.3,0-0.5-0.1-0.7-0.3c-1.9-1.6-3.9-2.7-6.1-3.5c-2.2-0.8-4.3-1.2-6.5-1.2c-2.9,0-5.6,0.7-8.1,2
		c-2.5,1.4-4.4,3.3-5.9,5.8s-2.2,5.4-2.2,8.7c0,3.2,0.8,6,2.5,8.5s3.8,4.4,6.5,5.8c2.7,1.4,5.5,2.1,8.5,2.1c4.4,0,8.3-1.4,11.7-4.2
		c0.2-0.2,0.4-0.3,0.7-0.3c0.3,0,0.6,0.1,0.8,0.3L1232.6-303.1z"/>
	<path d="M1271.1-305.4c0,2.2,0,4.2-0.1,5.8c-0.1,1.7-0.2,2.7-0.2,3.2c0,0.4-0.1,0.7-0.4,0.9c-0.3,0.3-0.6,0.4-1,0.4h-3.5
		c-0.3,0-0.6-0.1-0.9-0.4c-0.3-0.3-0.4-0.6-0.5-0.9l-0.1-2.9c0-0.1,0-0.2-0.1-0.2c-0.1,0-0.1,0-0.2,0.1c-0.9,1.2-2.3,2.3-4.1,3.1
		s-3.7,1.3-5.4,1.3c-3,0-5.7-0.7-8.2-2.2s-4.5-3.4-6-6c-1.5-2.5-2.2-5.3-2.2-8.2c0-3,0.7-5.7,2.2-8.2c1.5-2.5,3.5-4.5,6-6
		c2.5-1.5,5.3-2.2,8.2-2.2c2.9,0,5.5,0.7,8,2.1c2.4,1.4,4.4,3.3,5.9,5.6c1.5,2.4,2.3,5,2.4,7.9
		C1271.1-309.8,1271.1-307.5,1271.1-305.4z M1259.6-303c1.5-0.9,2.7-2.1,3.5-3.6s1.3-3.1,1.3-4.9c0-1.8-0.4-3.4-1.3-4.9
		c-0.9-1.5-2.1-2.7-3.6-3.5c-1.5-0.9-3.1-1.3-4.9-1.3c-1.7,0-3.3,0.4-4.8,1.3c-1.5,0.9-2.7,2.1-3.6,3.6c-0.9,1.5-1.3,3.1-1.3,4.9
		c0,1.8,0.4,3.4,1.3,4.9c0.9,1.5,2.1,2.7,3.6,3.6c1.5,0.9,3.1,1.3,4.9,1.3C1256.5-301.7,1258.1-302.1,1259.6-303z"/>
	<path d="M1301-307.1c0.3,0.9,0.5,1.9,0.5,2.9c0,1.8-0.6,3.4-1.7,4.9c-1.1,1.4-2.6,2.5-4.4,3.2s-3.8,1.1-5.9,1.1
		c-2.3,0-4.5-0.5-6.6-1.5c-2.1-1-3.8-2.5-5-4.5c-0.1-0.1-0.1-0.3-0.1-0.7c0-0.6,0.2-0.9,0.6-1.1l3.3-1.8c0.2-0.1,0.3-0.1,0.5-0.1
		c0.4,0,0.7,0.2,1,0.5c0.8,0.8,1.7,1.5,2.9,2.1c1.2,0.5,2.4,0.8,3.5,0.8c1.3,0,2.5-0.3,3.6-0.9c1.1-0.6,1.6-1.4,1.6-2.5
		s-0.4-1.8-1.3-2.3c-0.9-0.5-2.2-0.9-4.1-1.2c-2.2-0.5-3.8-0.9-4.8-1.3c-2.1-0.8-3.7-2-4.7-3.5c-1.1-1.5-1.6-3.1-1.6-4.9
		c0-2.3,0.8-4.3,2.6-6.2c1.7-1.9,4.1-3,7.1-3.5c0.9-0.1,1.8-0.2,2.7-0.2c4.8,0,8.5,2.1,11.2,6.2c0.1,0.2,0.2,0.4,0.2,0.7
		c0,0.5-0.2,0.9-0.7,1.1l-2.9,1.7c-0.3,0.1-0.5,0.1-0.6,0.1c-0.4,0-0.8-0.2-1.1-0.5c-1.8-2.2-3.9-3.2-6.5-3.2c-0.3,0-0.8,0-1.4,0.1
		c-1.1,0.2-2,0.5-2.7,1.1c-0.8,0.6-1.2,1.2-1.2,1.8c-0.1,1.1,0.1,2,0.7,2.7s1.2,1.2,2.1,1.5s2.2,0.7,3.8,1c1.8,0.4,3.2,0.9,4.3,1.3
		c1.1,0.4,2.1,1,3.1,1.8C1299.9-309.5,1300.6-308.4,1301-307.1z"/>
	<path d="M1340.9-305.4c0,2.2,0,4.2-0.1,5.8c-0.1,1.7-0.2,2.7-0.2,3.2c0,0.4-0.1,0.7-0.4,0.9c-0.3,0.3-0.6,0.4-1,0.4h-3.5
		c-0.3,0-0.6-0.1-0.9-0.4c-0.3-0.3-0.4-0.6-0.5-0.9l-0.1-2.9c0-0.1,0-0.2-0.1-0.2c-0.1,0-0.1,0-0.2,0.1c-0.9,1.2-2.3,2.3-4.1,3.1
		s-3.7,1.3-5.4,1.3c-3,0-5.7-0.7-8.2-2.2s-4.5-3.4-6-6c-1.5-2.5-2.2-5.3-2.2-8.2c0-3,0.7-5.7,2.2-8.2s3.4-4.5,6-6s5.3-2.2,8.2-2.2
		c2.9,0,5.5,0.7,8,2.1c2.4,1.4,4.4,3.3,5.9,5.6c1.5,2.4,2.3,5,2.4,7.9C1340.9-309.8,1340.9-307.5,1340.9-305.4z M1329.3-303
		c1.5-0.9,2.7-2.1,3.5-3.6s1.3-3.1,1.3-4.9c0-1.8-0.4-3.4-1.3-4.9c-0.9-1.5-2.1-2.7-3.6-3.5c-1.5-0.9-3.1-1.3-4.9-1.3
		c-1.7,0-3.3,0.4-4.8,1.3c-1.5,0.9-2.7,2.1-3.6,3.6c-0.9,1.5-1.3,3.1-1.3,4.9c0,1.8,0.4,3.4,1.3,4.9c0.9,1.5,2.1,2.7,3.6,3.6
		c1.5,0.9,3.1,1.3,4.9,1.3C1326.2-301.7,1327.9-302.1,1329.3-303z"/>
	<path d="M1367.1-296l-9.3-12.4l-3.1,3.8l-0.2,8.4c0,0.3-0.1,0.6-0.3,0.8s-0.5,0.3-0.8,0.3h-3.9c-0.3,0-0.6-0.1-0.8-0.3
		c-0.2-0.2-0.3-0.5-0.3-0.8l-0.2-10.7v-13.2l0.2-23.7c0-0.3,0.1-0.6,0.3-0.8s0.5-0.3,0.8-0.3h3.9c0.3,0,0.6,0.1,0.8,0.3
		c0.2,0.2,0.3,0.5,0.3,0.8l0.2,23.7v5.2l10.4-12.1c0.4-0.6,1-0.9,1.7-0.9h4.6c0.3,0,0.6,0.1,0.8,0.4c0.2,0.2,0.3,0.5,0.3,0.8
		c0,0.3-0.1,0.5-0.3,0.7l-9.8,12.1c-0.2,0.2-0.2,0.4-0.1,0.7l11.8,16.3c0.2,0.2,0.3,0.4,0.3,0.7c0,0.3-0.1,0.6-0.4,0.8
		c-0.2,0.2-0.5,0.3-0.8,0.3h-4.2C1368.2-295,1367.6-295.4,1367.1-296z"/>
	<path d="M1409.3-305.4c0,2.2,0,4.2-0.1,5.8c-0.1,1.7-0.2,2.7-0.2,3.2c0,0.4-0.1,0.7-0.4,0.9c-0.3,0.3-0.6,0.4-1,0.4h-3.5
		c-0.3,0-0.6-0.1-0.9-0.4c-0.3-0.3-0.4-0.6-0.5-0.9l-0.1-2.9c0-0.1,0-0.2-0.1-0.2c-0.1,0-0.1,0-0.2,0.1c-0.9,1.2-2.3,2.3-4.1,3.1
		s-3.7,1.3-5.4,1.3c-3,0-5.7-0.7-8.2-2.2s-4.5-3.4-6-6c-1.5-2.5-2.2-5.3-2.2-8.2c0-3,0.7-5.7,2.2-8.2s3.4-4.5,6-6s5.3-2.2,8.2-2.2
		c2.9,0,5.5,0.7,8,2.1c2.4,1.4,4.4,3.3,5.9,5.6c1.5,2.4,2.3,5,2.4,7.9C1409.2-309.8,1409.3-307.5,1409.3-305.4z M1397.7-303
		c1.5-0.9,2.7-2.1,3.5-3.6s1.3-3.1,1.3-4.9c0-1.8-0.4-3.4-1.3-4.9c-0.9-1.5-2.1-2.7-3.6-3.5c-1.5-0.9-3.1-1.3-4.9-1.3
		c-1.7,0-3.3,0.4-4.8,1.3c-1.5,0.9-2.7,2.1-3.6,3.6c-0.9,1.5-1.3,3.1-1.3,4.9c0,1.8,0.4,3.4,1.3,4.9c0.9,1.5,2.1,2.7,3.6,3.6
		c1.5,0.9,3.1,1.3,4.9,1.3C1394.6-301.7,1396.2-302.1,1397.7-303z"/>
	<path d="M1417.3-289.2c-0.1-5.1-0.1-9.8-0.1-14.2c0-3,0-5.9,0.1-8.8c0.1-2.9,0.9-5.5,2.4-7.9c1.5-2.4,3.4-4.2,5.9-5.6
		c2.5-1.4,5.1-2.1,8-2.1c3,0,5.7,0.7,8.2,2.2c2.5,1.5,4.5,3.5,5.9,6s2.2,5.2,2.2,8.2c0,3-0.7,5.7-2.2,8.2s-3.4,4.5-5.9,6
		s-5.2,2.2-8.2,2.2c-1.7,0-3.5-0.4-5.4-1.3c-1.9-0.8-3.2-1.9-4.1-3c0-0.1-0.1-0.1-0.2-0.1s-0.1,0.1-0.1,0.2l-0.1,20
		c0,0.4-0.1,0.7-0.4,0.9c-0.3,0.3-0.6,0.4-0.9,0.4h-3.5c-0.3,0-0.7-0.1-0.9-0.4c-0.3-0.3-0.4-0.6-0.4-0.9
		C1417.5-280.8,1417.4-284.1,1417.3-289.2z M1425.2-306.6c0.9,1.5,2.1,2.7,3.6,3.6c1.5,0.9,3.1,1.3,4.9,1.3s3.4-0.4,4.9-1.3
		c1.5-0.9,2.7-2.1,3.6-3.6c0.9-1.5,1.3-3.1,1.3-4.9c0-1.8-0.4-3.4-1.3-4.9s-2.1-2.7-3.6-3.6c-1.5-0.9-3.1-1.3-4.9-1.3
		s-3.4,0.4-4.9,1.3c-1.5,0.9-2.7,2.1-3.6,3.6c-0.9,1.5-1.3,3.1-1.3,4.9C1423.9-309.7,1424.3-308,1425.2-306.6z"/>
</g>
<g>
	<path class="st2" d="M1703.9-170c-53.7,0.7-97.4,44.9-97.6,98.6c-0.2,38.5,21.7,72,53.7,88.5c13.6,7,29,11,45.3,11s31.8-4,45.3-11
		c31.9-16.4,53.7-49.7,53.7-88C1804.3-126.1,1759.2-170.7,1703.9-170z M1705.3-125c39.8,0,72,32.2,72,72l-64.7-64.7
		c-4-4-10.5-4-14.6,0L1633.3-53C1633.3-92.7,1665.5-125,1705.3-125z M1635.6-35h15.7l5.9,35.6C1646.8-8.7,1639.1-21,1635.6-35z
		 M1753.4,0.6l5.9-35.6h15.7C1771.4-21,1763.8-8.7,1753.4,0.6z"/>
	<g>
		<path d="M1616.8,74.9c0.2,0.2,0.3,0.4,0.3,0.7c0,0.4-0.1,0.6-0.3,0.9c-2.3,2.2-4.8,3.8-7.6,4.9c-2.8,1.1-5.7,1.6-8.7,1.6
			c-4.1,0-8-1-11.7-2.9s-6.6-4.7-8.9-8.2s-3.4-7.6-3.4-12.1c0-4.6,1.1-8.7,3.3-12.2c2.2-3.5,5.1-6.3,8.7-8.2s7.4-2.9,11.5-2.9
			c3,0,5.9,0.5,8.7,1.6c2.9,1.1,5.5,2.7,7.9,5c0.3,0.3,0.4,0.5,0.4,0.9s-0.1,0.6-0.3,0.8l-2.9,3.1c-0.2,0.3-0.5,0.4-0.9,0.4
			c-0.3,0-0.5-0.1-0.7-0.3c-1.9-1.5-3.9-2.7-6.1-3.5c-2.2-0.8-4.3-1.2-6.5-1.2c-2.9,0-5.6,0.7-8.1,2s-4.4,3.3-5.9,5.8
			s-2.2,5.4-2.2,8.7c0,3.2,0.8,6,2.5,8.5s3.8,4.4,6.5,5.8c2.7,1.4,5.5,2.1,8.5,2.1c4.4,0,8.3-1.4,11.7-4.2c0.2-0.2,0.4-0.3,0.7-0.3
			c0.3,0,0.6,0.1,0.8,0.3L1616.8,74.9z"/>
		<path d="M1655.3,72.6c0,2.2,0,4.2-0.1,5.8s-0.2,2.7-0.2,3.2c0,0.4-0.1,0.7-0.4,0.9s-0.6,0.4-1,0.4h-3.5c-0.3,0-0.6-0.1-0.9-0.4
			s-0.4-0.6-0.5-0.9l-0.1-2.9c0-0.1,0-0.2-0.1-0.2s-0.1,0-0.2,0.1c-0.9,1.2-2.3,2.3-4.1,3.1s-3.7,1.3-5.4,1.3c-3,0-5.7-0.7-8.2-2.2
			s-4.5-3.5-6-6s-2.2-5.3-2.2-8.2s0.7-5.7,2.2-8.2s3.4-4.5,6-6s5.3-2.2,8.2-2.2c2.9,0,5.5,0.7,8,2.1c2.4,1.4,4.4,3.3,5.9,5.6
			c1.5,2.4,2.3,5,2.4,7.9C1655.2,68.2,1655.3,70.5,1655.3,72.6z M1643.7,75c1.5-0.9,2.7-2.1,3.5-3.6s1.3-3.1,1.3-4.9
			s-0.4-3.4-1.3-4.9s-2.1-2.7-3.6-3.5c-1.5-0.9-3.1-1.3-4.9-1.3c-1.7,0-3.3,0.4-4.8,1.3c-1.5,0.9-2.7,2.1-3.6,3.5
			c-0.9,1.5-1.3,3.1-1.3,4.9c0,1.8,0.4,3.4,1.3,4.9c0.9,1.5,2.1,2.7,3.6,3.5c1.5,0.9,3.1,1.3,4.9,1.3
			C1640.6,76.3,1642.2,75.9,1643.7,75z"/>
		<path d="M1685.2,70.9c0.3,0.9,0.5,1.9,0.5,2.9c0,1.8-0.6,3.4-1.7,4.9s-2.6,2.5-4.4,3.2s-3.8,1.1-5.9,1.1c-2.3,0-4.5-0.5-6.6-1.5
			c-2.1-1-3.8-2.5-5-4.5c-0.1-0.1-0.1-0.4-0.1-0.7c0-0.6,0.2-1,0.6-1.1l3.3-1.8c0.2-0.1,0.3-0.1,0.5-0.1c0.4,0,0.7,0.2,1,0.5
			c0.8,0.8,1.7,1.5,2.9,2.1c1.2,0.5,2.4,0.8,3.5,0.8c1.3,0,2.5-0.3,3.6-0.9c1.1-0.6,1.6-1.4,1.6-2.5s-0.4-1.8-1.3-2.3
			s-2.2-0.9-4.1-1.2c-2.2-0.5-3.8-0.9-4.8-1.3c-2.1-0.8-3.7-2-4.7-3.5c-1.1-1.5-1.6-3.1-1.6-4.9c0-2.3,0.8-4.3,2.6-6.2
			c1.7-1.9,4.1-3,7.1-3.5c0.9-0.1,1.8-0.2,2.7-0.2c4.8,0,8.5,2.1,11.2,6.2c0.1,0.2,0.2,0.4,0.2,0.7c0,0.5-0.2,0.9-0.7,1.1l-2.9,1.7
			c-0.3,0.1-0.5,0.1-0.6,0.1c-0.4,0-0.8-0.2-1.1-0.5c-1.8-2.2-3.9-3.2-6.5-3.2c-0.3,0-0.8,0-1.4,0.1c-1.1,0.2-2,0.5-2.7,1.1
			c-0.8,0.6-1.2,1.2-1.2,1.8c-0.1,1.1,0.1,2,0.7,2.6s1.2,1.2,2.1,1.5s2.2,0.7,3.8,1c1.8,0.4,3.2,0.9,4.3,1.3c1.1,0.4,2.1,1,3.1,1.8
			C1684,68.5,1684.7,69.6,1685.2,70.9z"/>
		<path d="M1725.1,72.6c0,2.2,0,4.2-0.1,5.8s-0.2,2.7-0.2,3.2c0,0.4-0.1,0.7-0.4,0.9s-0.6,0.4-1,0.4h-3.5c-0.3,0-0.6-0.1-0.9-0.4
			s-0.4-0.6-0.5-0.9l-0.1-2.9c0-0.1,0-0.2-0.1-0.2s-0.1,0-0.2,0.1c-0.9,1.2-2.3,2.3-4.1,3.1s-3.7,1.3-5.4,1.3c-3,0-5.7-0.7-8.2-2.2
			s-4.5-3.5-6-6s-2.2-5.3-2.2-8.2s0.7-5.7,2.2-8.2s3.4-4.5,6-6s5.3-2.2,8.2-2.2c2.9,0,5.5,0.7,8,2.1c2.4,1.4,4.4,3.3,5.9,5.6
			c1.5,2.4,2.3,5,2.4,7.9C1725,68.2,1725.1,70.5,1725.1,72.6z M1713.5,75c1.5-0.9,2.7-2.1,3.5-3.6s1.3-3.1,1.3-4.9s-0.4-3.4-1.3-4.9
			s-2.1-2.7-3.6-3.5c-1.5-0.9-3.1-1.3-4.9-1.3c-1.7,0-3.3,0.4-4.8,1.3c-1.5,0.9-2.7,2.1-3.6,3.5c-0.9,1.5-1.3,3.1-1.3,4.9
			c0,1.8,0.4,3.4,1.3,4.9c0.9,1.5,2.1,2.7,3.6,3.5c1.5,0.9,3.1,1.3,4.9,1.3C1710.4,76.3,1712,75.9,1713.5,75z"/>
		<path d="M1751.3,82l-9.3-12.4l-3.1,3.8l-0.2,8.4c0,0.3-0.1,0.6-0.3,0.8s-0.5,0.3-0.8,0.3h-3.9c-0.3,0-0.6-0.1-0.8-0.3
			c-0.2-0.2-0.3-0.5-0.3-0.8l-0.2-10.7V57.9l0.2-23.7c0-0.3,0.1-0.6,0.3-0.8s0.5-0.3,0.8-0.3h3.9c0.3,0,0.6,0.1,0.8,0.3
			c0.2,0.2,0.3,0.5,0.3,0.8l0.2,23.7v5.2l10.4-12.1c0.4-0.6,1-0.9,1.7-0.9h4.6c0.3,0,0.6,0.1,0.8,0.4c0.2,0.2,0.3,0.5,0.3,0.8
			c0,0.3-0.1,0.5-0.3,0.7l-9.8,12.1c-0.2,0.2-0.2,0.4-0.1,0.7l11.8,16.3c0.2,0.2,0.3,0.4,0.3,0.7s-0.1,0.6-0.4,0.8
			c-0.2,0.2-0.5,0.3-0.8,0.3h-4.2C1752.4,83,1751.8,82.6,1751.3,82z"/>
		<path d="M1793.4,72.6c0,2.2,0,4.2-0.1,5.8s-0.2,2.7-0.2,3.2c0,0.4-0.1,0.7-0.4,0.9s-0.6,0.4-1,0.4h-3.5c-0.3,0-0.6-0.1-0.9-0.4
			s-0.4-0.6-0.5-0.9l-0.1-2.9c0-0.1,0-0.2-0.1-0.2s-0.1,0-0.2,0.1c-0.9,1.2-2.3,2.3-4.1,3.1s-3.7,1.3-5.4,1.3c-3,0-5.7-0.7-8.2-2.2
			s-4.5-3.5-6-6s-2.2-5.3-2.2-8.2s0.7-5.7,2.2-8.2s3.4-4.5,6-6s5.3-2.2,8.2-2.2c2.9,0,5.5,0.7,8,2.1c2.4,1.4,4.4,3.3,5.9,5.6
			c1.5,2.4,2.3,5,2.4,7.9C1793.4,68.2,1793.4,70.5,1793.4,72.6z M1781.9,75c1.5-0.9,2.7-2.1,3.5-3.6s1.3-3.1,1.3-4.9
			s-0.4-3.4-1.3-4.9s-2.1-2.7-3.6-3.5c-1.5-0.9-3.1-1.3-4.9-1.3c-1.7,0-3.3,0.4-4.8,1.3c-1.5,0.9-2.7,2.1-3.6,3.5
			c-0.9,1.5-1.3,3.1-1.3,4.9c0,1.8,0.4,3.4,1.3,4.9c0.9,1.5,2.1,2.7,3.6,3.5c1.5,0.9,3.1,1.3,4.9,1.3
			C1778.7,76.3,1780.4,75.9,1781.9,75z"/>
		<path d="M1801.5,88.8c-0.1-5.1-0.1-9.8-0.1-14.2c0-3,0-5.9,0.1-8.8c0.1-2.9,0.9-5.5,2.4-7.9c1.5-2.4,3.4-4.2,5.9-5.6
			s5.1-2.1,8-2.1c3,0,5.7,0.7,8.2,2.2s4.5,3.5,5.9,6s2.2,5.2,2.2,8.2s-0.7,5.7-2.2,8.2s-3.4,4.5-5.9,6s-5.2,2.2-8.2,2.2
			c-1.7,0-3.5-0.4-5.4-1.3s-3.2-1.9-4.1-3c0-0.1-0.1-0.1-0.2-0.1s-0.1,0.1-0.1,0.2l-0.1,20c0,0.4-0.1,0.7-0.4,0.9s-0.6,0.4-0.9,0.4
			h-3.5c-0.3,0-0.7-0.1-0.9-0.4s-0.4-0.6-0.4-0.9C1801.6,97.2,1801.6,93.9,1801.5,88.8z M1809.4,71.4c0.9,1.5,2.1,2.7,3.6,3.5
			c1.5,0.9,3.1,1.3,4.9,1.3s3.4-0.4,4.9-1.3c1.5-0.9,2.7-2.1,3.6-3.5c0.9-1.5,1.3-3.1,1.3-4.9c0-1.8-0.4-3.4-1.3-4.9
			s-2.1-2.7-3.6-3.5c-1.5-0.9-3.1-1.3-4.9-1.3s-3.4,0.4-4.9,1.3c-1.5,0.9-2.7,2.1-3.6,3.5c-0.9,1.5-1.3,3.1-1.3,4.9
			C1808,68.3,1808.5,70,1809.4,71.4z"/>
	</g>
</g>
<g>
	<path class="st3" d="M1323-170c-53.7,0.7-97.4,44.9-97.6,98.6c-0.2,38.5,21.7,72,53.7,88.5c13.6,7,29,11,45.3,11s31.8-4,45.3-11
		c31.9-16.4,53.7-49.7,53.7-88C1423.4-126.1,1378.4-170.7,1323-170z M1324.4-125c39.8,0,72,32.2,72,72l-64.7-64.7
		c-4-4-10.5-4-14.6,0L1252.4-53C1252.4-92.7,1284.7-125,1324.4-125z M1254.7-35h15.7l5.9,35.6C1266-8.7,1258.3-21,1254.7-35z
		 M1372.5,0.6l5.9-35.6h15.7C1390.6-21,1382.9-8.7,1372.5,0.6z"/>
	<g>
		<path d="M1235.9,74.9c0.2,0.2,0.3,0.4,0.3,0.7c0,0.4-0.1,0.6-0.3,0.9c-2.3,2.2-4.8,3.8-7.6,4.9c-2.8,1.1-5.7,1.6-8.7,1.6
			c-4.1,0-8-1-11.7-2.9c-3.7-2-6.6-4.7-8.9-8.2s-3.4-7.6-3.4-12.1c0-4.6,1.1-8.7,3.3-12.2c2.2-3.5,5.1-6.3,8.7-8.2s7.4-2.9,11.5-2.9
			c3,0,5.9,0.5,8.7,1.6c2.9,1.1,5.5,2.7,7.9,5c0.3,0.3,0.4,0.5,0.4,0.9s-0.1,0.6-0.3,0.8l-2.9,3.1c-0.2,0.3-0.5,0.4-0.9,0.4
			c-0.3,0-0.5-0.1-0.7-0.3c-1.9-1.5-3.9-2.7-6.1-3.5c-2.2-0.8-4.3-1.2-6.5-1.2c-2.9,0-5.6,0.7-8.1,2c-2.5,1.4-4.4,3.3-5.9,5.8
			s-2.2,5.4-2.2,8.7c0,3.2,0.8,6,2.5,8.5s3.8,4.4,6.5,5.8c2.7,1.4,5.5,2.1,8.5,2.1c4.4,0,8.3-1.4,11.7-4.2c0.2-0.2,0.4-0.3,0.7-0.3
			c0.3,0,0.6,0.1,0.8,0.3L1235.9,74.9z"/>
		<path d="M1274.4,72.6c0,2.2,0,4.2-0.1,5.8s-0.2,2.7-0.2,3.2c0,0.4-0.1,0.7-0.4,0.9s-0.6,0.4-1,0.4h-3.5c-0.3,0-0.6-0.1-0.9-0.4
			s-0.4-0.6-0.5-0.9l-0.1-2.9c0-0.1,0-0.2-0.1-0.2s-0.1,0-0.2,0.1c-0.9,1.2-2.3,2.3-4.1,3.1s-3.7,1.3-5.4,1.3c-3,0-5.7-0.7-8.2-2.2
			s-4.5-3.5-6-6s-2.2-5.3-2.2-8.2s0.7-5.7,2.2-8.2c1.5-2.5,3.5-4.5,6-6c2.5-1.5,5.3-2.2,8.2-2.2c2.9,0,5.5,0.7,8,2.1
			c2.4,1.4,4.4,3.3,5.9,5.6c1.5,2.4,2.3,5,2.4,7.9C1274.4,68.2,1274.4,70.5,1274.4,72.6z M1262.9,75c1.5-0.9,2.7-2.1,3.5-3.6
			s1.3-3.1,1.3-4.9s-0.4-3.4-1.3-4.9s-2.1-2.7-3.6-3.5c-1.5-0.9-3.1-1.3-4.9-1.3c-1.7,0-3.3,0.4-4.8,1.3c-1.5,0.9-2.7,2.1-3.6,3.5
			c-0.9,1.5-1.3,3.1-1.3,4.9c0,1.8,0.4,3.4,1.3,4.9c0.9,1.5,2.1,2.7,3.6,3.5c1.5,0.9,3.1,1.3,4.9,1.3
			C1259.8,76.3,1261.4,75.9,1262.9,75z"/>
		<path d="M1304.3,70.9c0.3,0.9,0.5,1.9,0.5,2.9c0,1.8-0.6,3.4-1.7,4.9s-2.6,2.5-4.4,3.2s-3.8,1.1-5.9,1.1c-2.3,0-4.5-0.5-6.6-1.5
			c-2.1-1-3.8-2.5-5-4.5c-0.1-0.1-0.1-0.4-0.1-0.7c0-0.6,0.2-1,0.6-1.1l3.3-1.8c0.2-0.1,0.3-0.1,0.5-0.1c0.4,0,0.7,0.2,1,0.5
			c0.8,0.8,1.7,1.5,2.9,2.1c1.2,0.5,2.4,0.8,3.5,0.8c1.3,0,2.5-0.3,3.6-0.9c1.1-0.6,1.6-1.4,1.6-2.5s-0.4-1.8-1.3-2.3
			s-2.2-0.9-4.1-1.2c-2.2-0.5-3.8-0.9-4.8-1.3c-2.1-0.8-3.7-2-4.7-3.5c-1.1-1.5-1.6-3.1-1.6-4.9c0-2.3,0.8-4.3,2.6-6.2
			c1.7-1.9,4.1-3,7.1-3.5c0.9-0.1,1.8-0.2,2.7-0.2c4.8,0,8.5,2.1,11.2,6.2c0.1,0.2,0.2,0.4,0.2,0.7c0,0.5-0.2,0.9-0.7,1.1l-2.9,1.7
			c-0.3,0.1-0.5,0.1-0.6,0.1c-0.4,0-0.8-0.2-1.1-0.5c-1.8-2.2-3.9-3.2-6.5-3.2c-0.3,0-0.8,0-1.4,0.1c-1.1,0.2-2,0.5-2.7,1.1
			c-0.8,0.6-1.2,1.2-1.2,1.8c-0.1,1.1,0.1,2,0.7,2.6s1.2,1.2,2.1,1.5s2.2,0.7,3.8,1c1.8,0.4,3.2,0.9,4.3,1.3c1.1,0.4,2.1,1,3.1,1.8
			C1303.2,68.5,1303.9,69.6,1304.3,70.9z"/>
		<path d="M1344.2,72.6c0,2.2,0,4.2-0.1,5.8s-0.2,2.7-0.2,3.2c0,0.4-0.1,0.7-0.4,0.9s-0.6,0.4-1,0.4h-3.5c-0.3,0-0.6-0.1-0.9-0.4
			s-0.4-0.6-0.5-0.9l-0.1-2.9c0-0.1,0-0.2-0.1-0.2s-0.1,0-0.2,0.1c-0.9,1.2-2.3,2.3-4.1,3.1s-3.7,1.3-5.4,1.3c-3,0-5.7-0.7-8.2-2.2
			s-4.5-3.5-6-6s-2.2-5.3-2.2-8.2s0.7-5.7,2.2-8.2s3.4-4.5,6-6s5.3-2.2,8.2-2.2c2.9,0,5.5,0.7,8,2.1c2.4,1.4,4.4,3.3,5.9,5.6
			c1.5,2.4,2.3,5,2.4,7.9C1344.1,68.2,1344.2,70.5,1344.2,72.6z M1332.6,75c1.5-0.9,2.7-2.1,3.5-3.6s1.3-3.1,1.3-4.9
			s-0.4-3.4-1.3-4.9s-2.1-2.7-3.6-3.5c-1.5-0.9-3.1-1.3-4.9-1.3c-1.7,0-3.3,0.4-4.8,1.3c-1.5,0.9-2.7,2.1-3.6,3.5
			c-0.9,1.5-1.3,3.1-1.3,4.9c0,1.8,0.4,3.4,1.3,4.9c0.9,1.5,2.1,2.7,3.6,3.5c1.5,0.9,3.1,1.3,4.9,1.3
			C1329.5,76.3,1331.1,75.9,1332.6,75z"/>
		<path d="M1370.4,82l-9.3-12.4l-3.1,3.8l-0.2,8.4c0,0.3-0.1,0.6-0.3,0.8s-0.5,0.3-0.8,0.3h-3.9c-0.3,0-0.6-0.1-0.8-0.3
			c-0.2-0.2-0.3-0.5-0.3-0.8l-0.2-10.7V57.9l0.2-23.7c0-0.3,0.1-0.6,0.3-0.8s0.5-0.3,0.8-0.3h3.9c0.3,0,0.6,0.1,0.8,0.3
			c0.2,0.2,0.3,0.5,0.3,0.8l0.2,23.7v5.2l10.4-12.1c0.4-0.6,1-0.9,1.7-0.9h4.6c0.3,0,0.6,0.1,0.8,0.4c0.2,0.2,0.3,0.5,0.3,0.8
			c0,0.3-0.1,0.5-0.3,0.7l-9.8,12.1c-0.2,0.2-0.2,0.4-0.1,0.7l11.8,16.3c0.2,0.2,0.3,0.4,0.3,0.7s-0.1,0.6-0.4,0.8
			c-0.2,0.2-0.5,0.3-0.8,0.3h-4.2C1371.5,83,1370.9,82.6,1370.4,82z"/>
		<path d="M1412.6,72.6c0,2.2,0,4.2-0.1,5.8s-0.2,2.7-0.2,3.2c0,0.4-0.1,0.7-0.4,0.9s-0.6,0.4-1,0.4h-3.5c-0.3,0-0.6-0.1-0.9-0.4
			s-0.4-0.6-0.5-0.9l-0.1-2.9c0-0.1,0-0.2-0.1-0.2s-0.1,0-0.2,0.1c-0.9,1.2-2.3,2.3-4.1,3.1s-3.7,1.3-5.4,1.3c-3,0-5.7-0.7-8.2-2.2
			s-4.5-3.5-6-6s-2.2-5.3-2.2-8.2s0.7-5.7,2.2-8.2s3.4-4.5,6-6s5.3-2.2,8.2-2.2c2.9,0,5.5,0.7,8,2.1c2.4,1.4,4.4,3.3,5.9,5.6
			c1.5,2.4,2.3,5,2.4,7.9C1412.5,68.2,1412.6,70.5,1412.6,72.6z M1401,75c1.5-0.9,2.7-2.1,3.5-3.6s1.3-3.1,1.3-4.9s-0.4-3.4-1.3-4.9
			s-2.1-2.7-3.6-3.5c-1.5-0.9-3.1-1.3-4.9-1.3c-1.7,0-3.3,0.4-4.8,1.3c-1.5,0.9-2.7,2.1-3.6,3.5c-0.9,1.5-1.3,3.1-1.3,4.9
			c0,1.8,0.4,3.4,1.3,4.9c0.9,1.5,2.1,2.7,3.6,3.5c1.5,0.9,3.1,1.3,4.9,1.3C1397.9,76.3,1399.5,75.9,1401,75z"/>
		<path d="M1420.6,88.8c-0.1-5.1-0.1-9.8-0.1-14.2c0-3,0-5.9,0.1-8.8c0.1-2.9,0.9-5.5,2.4-7.9c1.5-2.4,3.4-4.2,5.9-5.6
			s5.1-2.1,8-2.1c3,0,5.7,0.7,8.2,2.2s4.5,3.5,5.9,6s2.2,5.2,2.2,8.2s-0.7,5.7-2.2,8.2s-3.4,4.5-5.9,6s-5.2,2.2-8.2,2.2
			c-1.7,0-3.5-0.4-5.4-1.3s-3.2-1.9-4.1-3c0-0.1-0.1-0.1-0.2-0.1s-0.1,0.1-0.1,0.2l-0.1,20c0,0.4-0.1,0.7-0.4,0.9s-0.6,0.4-0.9,0.4
			h-3.5c-0.3,0-0.7-0.1-0.9-0.4s-0.4-0.6-0.4-0.9C1420.8,97.2,1420.7,93.9,1420.6,88.8z M1428.5,71.4c0.9,1.5,2.1,2.7,3.6,3.5
			c1.5,0.9,3.1,1.3,4.9,1.3s3.4-0.4,4.9-1.3c1.5-0.9,2.7-2.1,3.6-3.5c0.9-1.5,1.3-3.1,1.3-4.9c0-1.8-0.4-3.4-1.3-4.9
			s-2.1-2.7-3.6-3.5c-1.5-0.9-3.1-1.3-4.9-1.3s-3.4,0.4-4.9,1.3c-1.5,0.9-2.7,2.1-3.6,3.5c-0.9,1.5-1.3,3.1-1.3,4.9
			C1427.2,68.3,1427.6,70,1428.5,71.4z"/>
	</g>
</g>
<g>
	<path class="st4" d="M2084.7-170c-53.7,0.7-97.4,44.9-97.6,98.6c-0.2,38.5,21.7,72,53.7,88.5c13.6,7,29,11,45.3,11
		c16.3,0,31.8-4,45.3-11c31.9-16.4,53.7-49.7,53.7-88C2185.1-126.1,2140.1-170.7,2084.7-170z M2086.1-125c39.8,0,72,32.2,72,72
		l-64.7-64.7c-4-4-10.5-4-14.6,0L2014.1-53C2014.1-92.7,2046.4-125,2086.1-125z M2016.4-35h15.7l5.9,35.6
		C2027.7-8.7,2020-21,2016.4-35z M2134.2,0.6l5.9-35.6h15.7C2152.3-21,2144.6-8.7,2134.2,0.6z"/>
	<g>
		<path d="M1997.6,74.9c0.2,0.2,0.3,0.4,0.3,0.7c0,0.4-0.1,0.6-0.3,0.9c-2.3,2.2-4.8,3.8-7.6,4.9c-2.8,1.1-5.7,1.6-8.7,1.6
			c-4.1,0-8-1-11.7-2.9s-6.6-4.7-8.9-8.2s-3.4-7.6-3.4-12.1c0-4.6,1.1-8.7,3.3-12.2c2.2-3.5,5.1-6.3,8.7-8.2s7.4-2.9,11.5-2.9
			c3,0,5.9,0.5,8.7,1.6c2.9,1.1,5.5,2.7,7.9,5c0.3,0.3,0.4,0.5,0.4,0.9s-0.1,0.6-0.3,0.8l-2.9,3.1c-0.2,0.3-0.5,0.4-0.9,0.4
			c-0.3,0-0.5-0.1-0.7-0.3c-1.9-1.5-3.9-2.7-6.1-3.5c-2.2-0.8-4.3-1.2-6.5-1.2c-2.9,0-5.6,0.7-8.1,2s-4.4,3.3-5.9,5.8
			s-2.2,5.4-2.2,8.7c0,3.2,0.8,6,2.5,8.5s3.8,4.4,6.5,5.8c2.7,1.4,5.5,2.1,8.5,2.1c4.4,0,8.3-1.4,11.7-4.2c0.2-0.2,0.4-0.3,0.7-0.3
			c0.3,0,0.6,0.1,0.8,0.3L1997.6,74.9z"/>
		<path d="M2036.1,72.6c0,2.2,0,4.2-0.1,5.8s-0.2,2.7-0.2,3.2c0,0.4-0.1,0.7-0.4,0.9s-0.6,0.4-1,0.4h-3.5c-0.3,0-0.6-0.1-0.9-0.4
			s-0.4-0.6-0.5-0.9l-0.1-2.9c0-0.1,0-0.2-0.1-0.2s-0.1,0-0.2,0.1c-0.9,1.2-2.3,2.3-4.1,3.1s-3.7,1.3-5.4,1.3c-3,0-5.7-0.7-8.2-2.2
			s-4.5-3.5-6-6s-2.2-5.3-2.2-8.2s0.7-5.7,2.2-8.2s3.4-4.5,6-6s5.3-2.2,8.2-2.2c2.9,0,5.5,0.7,8,2.1c2.4,1.4,4.4,3.3,5.9,5.6
			c1.5,2.4,2.3,5,2.4,7.9C2036.1,68.2,2036.1,70.5,2036.1,72.6z M2024.6,75c1.5-0.9,2.7-2.1,3.5-3.6s1.3-3.1,1.3-4.9
			s-0.4-3.4-1.3-4.9s-2.1-2.7-3.6-3.5c-1.5-0.9-3.1-1.3-4.9-1.3c-1.7,0-3.3,0.4-4.8,1.3c-1.5,0.9-2.7,2.1-3.6,3.5
			c-0.9,1.5-1.3,3.1-1.3,4.9c0,1.8,0.4,3.4,1.3,4.9c0.9,1.5,2.1,2.7,3.6,3.5c1.5,0.9,3.1,1.3,4.9,1.3
			C2021.5,76.3,2023.1,75.9,2024.6,75z"/>
		<path d="M2066,70.9c0.3,0.9,0.5,1.9,0.5,2.9c0,1.8-0.6,3.4-1.7,4.9s-2.6,2.5-4.4,3.2c-1.8,0.8-3.8,1.1-5.9,1.1
			c-2.3,0-4.5-0.5-6.6-1.5c-2.1-1-3.8-2.5-5-4.5c-0.1-0.1-0.1-0.4-0.1-0.7c0-0.6,0.2-1,0.6-1.1l3.3-1.8c0.2-0.1,0.3-0.1,0.5-0.1
			c0.4,0,0.7,0.2,1,0.5c0.8,0.8,1.7,1.5,2.9,2.1c1.2,0.5,2.4,0.8,3.5,0.8c1.3,0,2.5-0.3,3.6-0.9c1.1-0.6,1.6-1.4,1.6-2.5
			s-0.4-1.8-1.3-2.3c-0.9-0.5-2.2-0.9-4.1-1.2c-2.2-0.5-3.8-0.9-4.8-1.3c-2.1-0.8-3.7-2-4.7-3.5c-1.1-1.5-1.6-3.1-1.6-4.9
			c0-2.3,0.8-4.3,2.6-6.2c1.7-1.9,4.1-3,7.1-3.5c0.9-0.1,1.8-0.2,2.7-0.2c4.8,0,8.5,2.1,11.1,6.2c0.1,0.2,0.2,0.4,0.2,0.7
			c0,0.5-0.2,0.9-0.7,1.1l-2.9,1.7c-0.3,0.1-0.5,0.1-0.6,0.1c-0.4,0-0.8-0.2-1.1-0.5c-1.8-2.2-3.9-3.2-6.5-3.2c-0.3,0-0.8,0-1.4,0.1
			c-1.1,0.2-2,0.5-2.7,1.1c-0.8,0.6-1.1,1.2-1.2,1.8c-0.1,1.1,0.1,2,0.7,2.6s1.2,1.2,2.1,1.5c0.9,0.3,2.2,0.7,3.8,1
			c1.8,0.4,3.2,0.9,4.3,1.3c1.1,0.4,2.1,1,3.1,1.8C2064.9,68.5,2065.6,69.6,2066,70.9z"/>
		<path d="M2105.9,72.6c0,2.2,0,4.2-0.1,5.8c-0.1,1.7-0.2,2.7-0.2,3.2c0,0.4-0.1,0.7-0.4,0.9s-0.6,0.4-1,0.4h-3.5
			c-0.3,0-0.6-0.1-0.9-0.4s-0.4-0.6-0.5-0.9l-0.1-2.9c0-0.1,0-0.2-0.1-0.2c-0.1,0-0.1,0-0.2,0.1c-0.9,1.2-2.3,2.3-4.1,3.1
			c-1.9,0.8-3.6,1.3-5.4,1.3c-3,0-5.7-0.7-8.2-2.2s-4.5-3.5-6-6s-2.2-5.3-2.2-8.2s0.7-5.7,2.2-8.2s3.4-4.5,6-6s5.3-2.2,8.2-2.2
			c2.9,0,5.5,0.7,8,2.1c2.4,1.4,4.4,3.3,5.9,5.6c1.5,2.4,2.3,5,2.4,7.9C2105.9,68.2,2105.9,70.5,2105.9,72.6z M2094.3,75
			c1.5-0.9,2.7-2.1,3.5-3.6c0.9-1.5,1.3-3.1,1.3-4.9s-0.4-3.4-1.3-4.9c-0.9-1.5-2.1-2.7-3.6-3.5s-3.1-1.3-4.9-1.3
			c-1.7,0-3.3,0.4-4.8,1.3c-1.5,0.9-2.7,2.1-3.6,3.5c-0.9,1.5-1.3,3.1-1.3,4.9c0,1.8,0.4,3.4,1.3,4.9c0.9,1.5,2.1,2.7,3.6,3.5
			c1.5,0.9,3.1,1.3,4.9,1.3C2091.2,76.3,2092.9,75.9,2094.3,75z"/>
		<path d="M2132.1,82l-9.3-12.4l-3.1,3.8l-0.2,8.4c0,0.3-0.1,0.6-0.3,0.8s-0.5,0.3-0.8,0.3h-3.9c-0.3,0-0.6-0.1-0.8-0.3
			s-0.3-0.5-0.3-0.8l-0.2-10.7V57.9l0.2-23.7c0-0.3,0.1-0.6,0.3-0.8s0.5-0.3,0.8-0.3h3.9c0.3,0,0.6,0.1,0.8,0.3
			c0.2,0.2,0.3,0.5,0.3,0.8l0.2,23.7v5.2l10.4-12.1c0.4-0.6,1-0.9,1.7-0.9h4.6c0.3,0,0.6,0.1,0.8,0.4c0.2,0.2,0.3,0.5,0.3,0.8
			c0,0.3-0.1,0.5-0.3,0.7l-9.8,12.1c-0.2,0.2-0.2,0.4-0.1,0.7l11.8,16.3c0.2,0.2,0.3,0.4,0.3,0.7s-0.1,0.6-0.4,0.8
			c-0.2,0.2-0.5,0.3-0.8,0.3h-4.2C2133.2,83,2132.6,82.6,2132.1,82z"/>
		<path d="M2174.3,72.6c0,2.2,0,4.2-0.1,5.8c-0.1,1.7-0.2,2.7-0.2,3.2c0,0.4-0.1,0.7-0.4,0.9s-0.6,0.4-1,0.4h-3.5
			c-0.3,0-0.6-0.1-0.9-0.4s-0.4-0.6-0.5-0.9l-0.1-2.9c0-0.1,0-0.2-0.1-0.2c-0.1,0-0.1,0-0.2,0.1c-0.9,1.2-2.3,2.3-4.1,3.1
			c-1.9,0.8-3.7,1.3-5.4,1.3c-3,0-5.7-0.7-8.2-2.2s-4.5-3.5-6-6s-2.2-5.3-2.2-8.2s0.7-5.7,2.2-8.2s3.4-4.5,6-6s5.3-2.2,8.2-2.2
			c2.9,0,5.5,0.7,8,2.1c2.4,1.4,4.4,3.3,5.9,5.6c1.5,2.4,2.3,5,2.4,7.9C2174.2,68.2,2174.3,70.5,2174.3,72.6z M2162.7,75
			c1.5-0.9,2.7-2.1,3.5-3.6c0.9-1.5,1.3-3.1,1.3-4.9s-0.4-3.4-1.3-4.9c-0.9-1.5-2.1-2.7-3.6-3.5s-3.1-1.3-4.9-1.3
			c-1.7,0-3.3,0.4-4.8,1.3c-1.5,0.9-2.7,2.1-3.6,3.5c-0.9,1.5-1.3,3.1-1.3,4.9c0,1.8,0.4,3.4,1.3,4.9c0.9,1.5,2.1,2.7,3.6,3.5
			c1.5,0.9,3.1,1.3,4.9,1.3C2159.6,76.3,2161.2,75.9,2162.7,75z"/>
		<path d="M2182.3,88.8c-0.1-5.1-0.1-9.8-0.1-14.2c0-3,0-5.9,0.1-8.8c0.1-2.9,0.9-5.5,2.4-7.9s3.4-4.2,5.9-5.6
			c2.5-1.4,5.1-2.1,8-2.1c3,0,5.7,0.7,8.2,2.2s4.5,3.5,5.9,6s2.2,5.2,2.2,8.2s-0.7,5.7-2.2,8.2s-3.4,4.5-5.9,6s-5.2,2.2-8.2,2.2
			c-1.7,0-3.5-0.4-5.4-1.3c-1.9-0.8-3.2-1.9-4.1-3c0-0.1-0.1-0.1-0.2-0.1c-0.1,0-0.1,0.1-0.1,0.2l-0.1,20c0,0.4-0.1,0.7-0.4,0.9
			s-0.6,0.4-0.9,0.4h-3.5c-0.4,0-0.7-0.1-0.9-0.4s-0.4-0.6-0.4-0.9C2182.5,97.2,2182.4,93.9,2182.3,88.8z M2190.2,71.4
			c0.9,1.5,2.1,2.7,3.6,3.5c1.5,0.9,3.1,1.3,4.9,1.3s3.4-0.4,4.9-1.3c1.5-0.9,2.7-2.1,3.6-3.5c0.9-1.5,1.3-3.1,1.3-4.9
			c0-1.8-0.4-3.4-1.3-4.9c-0.9-1.5-2.1-2.7-3.6-3.5s-3.1-1.3-4.9-1.3s-3.4,0.4-4.9,1.3c-1.5,0.9-2.7,2.1-3.6,3.5
			c-0.9,1.5-1.3,3.1-1.3,4.9C2188.9,68.3,2189.3,70,2190.2,71.4z"/>
	</g>
</g>
<g>
	<path class="st5" d="M2084.7-548c-53.7,0.7-97.4,44.9-97.6,98.6c-0.2,38.5,21.7,72,53.7,88.5c13.6,7,29,11,45.3,11
		c16.3,0,31.8-4,45.3-11c31.9-16.4,53.7-49.7,53.7-88C2185.1-504.1,2140.1-548.7,2084.7-548z M2086.1-503c39.8,0,72,32.2,72,72
		l-64.7-64.7c-4-4-10.5-4-14.6,0l-64.7,64.7C2014.1-470.7,2046.4-503,2086.1-503z M2016.4-413h15.7l5.9,35.6
		C2027.7-386.7,2020-399,2016.4-413z M2134.2-377.4l5.9-35.6h15.7C2152.3-399,2144.6-386.7,2134.2-377.4z"/>
	<g>
		<path d="M1997.6-303.1c0.2,0.2,0.3,0.4,0.3,0.7c0,0.4-0.1,0.6-0.3,0.9c-2.3,2.2-4.8,3.8-7.6,4.9c-2.8,1.1-5.7,1.6-8.7,1.6
			c-4.1,0-8-1-11.7-2.9c-3.7-1.9-6.6-4.7-8.9-8.2c-2.3-3.5-3.4-7.6-3.4-12.1c0-4.6,1.1-8.7,3.3-12.2c2.2-3.5,5.1-6.3,8.7-8.2
			c3.6-1.9,7.4-2.9,11.5-2.9c3,0,5.9,0.5,8.7,1.6c2.9,1.1,5.5,2.7,7.9,5c0.3,0.3,0.4,0.5,0.4,0.9s-0.1,0.6-0.3,0.8l-2.9,3.1
			c-0.2,0.3-0.5,0.4-0.9,0.4c-0.3,0-0.5-0.1-0.7-0.3c-1.9-1.6-3.9-2.7-6.1-3.5c-2.2-0.8-4.3-1.2-6.5-1.2c-2.9,0-5.6,0.7-8.1,2
			c-2.5,1.4-4.4,3.3-5.9,5.8s-2.2,5.4-2.2,8.7c0,3.2,0.8,6,2.5,8.5s3.8,4.4,6.5,5.8c2.7,1.4,5.5,2.1,8.5,2.1c4.4,0,8.3-1.4,11.7-4.2
			c0.2-0.2,0.4-0.3,0.7-0.3c0.3,0,0.6,0.1,0.8,0.3L1997.6-303.1z"/>
		<path d="M2036.1-305.4c0,2.2,0,4.2-0.1,5.8c-0.1,1.7-0.2,2.7-0.2,3.2c0,0.4-0.1,0.7-0.4,0.9c-0.3,0.3-0.6,0.4-1,0.4h-3.5
			c-0.3,0-0.6-0.1-0.9-0.4c-0.3-0.3-0.4-0.6-0.5-0.9l-0.1-2.9c0-0.1,0-0.2-0.1-0.2c-0.1,0-0.1,0-0.2,0.1c-0.9,1.2-2.3,2.3-4.1,3.1
			s-3.7,1.3-5.4,1.3c-3,0-5.7-0.7-8.2-2.2s-4.5-3.4-6-6c-1.5-2.5-2.2-5.3-2.2-8.2c0-3,0.7-5.7,2.2-8.2s3.4-4.5,6-6s5.3-2.2,8.2-2.2
			c2.9,0,5.5,0.7,8,2.1c2.4,1.4,4.4,3.3,5.9,5.6c1.5,2.4,2.3,5,2.4,7.9C2036.1-309.8,2036.1-307.5,2036.1-305.4z M2024.6-303
			c1.5-0.9,2.7-2.1,3.5-3.6s1.3-3.1,1.3-4.9c0-1.8-0.4-3.4-1.3-4.9c-0.9-1.5-2.1-2.7-3.6-3.5c-1.5-0.9-3.1-1.3-4.9-1.3
			c-1.7,0-3.3,0.4-4.8,1.3c-1.5,0.9-2.7,2.1-3.6,3.6c-0.9,1.5-1.3,3.1-1.3,4.9c0,1.8,0.4,3.4,1.3,4.9c0.9,1.5,2.1,2.7,3.6,3.6
			c1.5,0.9,3.1,1.3,4.9,1.3C2021.5-301.7,2023.1-302.1,2024.6-303z"/>
		<path d="M2066-307.1c0.3,0.9,0.5,1.9,0.5,2.9c0,1.8-0.6,3.4-1.7,4.9c-1.1,1.4-2.6,2.5-4.4,3.2c-1.8,0.8-3.8,1.1-5.9,1.1
			c-2.3,0-4.5-0.5-6.6-1.5c-2.1-1-3.8-2.5-5-4.5c-0.1-0.1-0.1-0.3-0.1-0.7c0-0.6,0.2-0.9,0.6-1.1l3.3-1.8c0.2-0.1,0.3-0.1,0.5-0.1
			c0.4,0,0.7,0.2,1,0.5c0.8,0.8,1.7,1.5,2.9,2.1c1.2,0.5,2.4,0.8,3.5,0.8c1.3,0,2.5-0.3,3.6-0.9c1.1-0.6,1.6-1.4,1.6-2.5
			s-0.4-1.8-1.3-2.3c-0.9-0.5-2.2-0.9-4.1-1.2c-2.2-0.5-3.8-0.9-4.8-1.3c-2.1-0.8-3.7-2-4.7-3.5c-1.1-1.5-1.6-3.1-1.6-4.9
			c0-2.3,0.8-4.3,2.6-6.2c1.7-1.9,4.1-3,7.1-3.5c0.9-0.1,1.8-0.2,2.7-0.2c4.8,0,8.5,2.1,11.1,6.2c0.1,0.2,0.2,0.4,0.2,0.7
			c0,0.5-0.2,0.9-0.7,1.1l-2.9,1.7c-0.3,0.1-0.5,0.1-0.6,0.1c-0.4,0-0.8-0.2-1.1-0.5c-1.8-2.2-3.9-3.2-6.5-3.2c-0.3,0-0.8,0-1.4,0.1
			c-1.1,0.2-2,0.5-2.7,1.1c-0.8,0.6-1.1,1.2-1.2,1.8c-0.1,1.1,0.1,2,0.7,2.7s1.2,1.2,2.1,1.5c0.9,0.3,2.2,0.7,3.8,1
			c1.8,0.4,3.2,0.9,4.3,1.3c1.1,0.4,2.1,1,3.1,1.8C2064.9-309.5,2065.6-308.4,2066-307.1z"/>
		<path d="M2105.9-305.4c0,2.2,0,4.2-0.1,5.8c-0.1,1.7-0.2,2.7-0.2,3.2c0,0.4-0.1,0.7-0.4,0.9c-0.3,0.3-0.6,0.4-1,0.4h-3.5
			c-0.3,0-0.6-0.1-0.9-0.4c-0.3-0.3-0.4-0.6-0.5-0.9l-0.1-2.9c0-0.1,0-0.2-0.1-0.2c-0.1,0-0.1,0-0.2,0.1c-0.9,1.2-2.3,2.3-4.1,3.1
			c-1.9,0.8-3.6,1.3-5.4,1.3c-3,0-5.7-0.7-8.2-2.2s-4.5-3.4-6-6c-1.5-2.5-2.2-5.3-2.2-8.2c0-3,0.7-5.7,2.2-8.2s3.4-4.5,6-6
			s5.3-2.2,8.2-2.2c2.9,0,5.5,0.7,8,2.1c2.4,1.4,4.4,3.3,5.9,5.6c1.5,2.4,2.3,5,2.4,7.9C2105.9-309.8,2105.9-307.5,2105.9-305.4z
			 M2094.3-303c1.5-0.9,2.7-2.1,3.5-3.6c0.9-1.5,1.3-3.1,1.3-4.9c0-1.8-0.4-3.4-1.3-4.9c-0.9-1.5-2.1-2.7-3.6-3.5
			c-1.5-0.9-3.1-1.3-4.9-1.3c-1.7,0-3.3,0.4-4.8,1.3c-1.5,0.9-2.7,2.1-3.6,3.6c-0.9,1.5-1.3,3.1-1.3,4.9c0,1.8,0.4,3.4,1.3,4.9
			c0.9,1.5,2.1,2.7,3.6,3.6c1.5,0.9,3.1,1.3,4.9,1.3C2091.2-301.7,2092.9-302.1,2094.3-303z"/>
		<path d="M2132.1-296l-9.3-12.4l-3.1,3.8l-0.2,8.4c0,0.3-0.1,0.6-0.3,0.8s-0.5,0.3-0.8,0.3h-3.9c-0.3,0-0.6-0.1-0.8-0.3
			s-0.3-0.5-0.3-0.8l-0.2-10.7v-13.2l0.2-23.7c0-0.3,0.1-0.6,0.3-0.8s0.5-0.3,0.8-0.3h3.9c0.3,0,0.6,0.1,0.8,0.3
			c0.2,0.2,0.3,0.5,0.3,0.8l0.2,23.7v5.2l10.4-12.1c0.4-0.6,1-0.9,1.7-0.9h4.6c0.3,0,0.6,0.1,0.8,0.4c0.2,0.2,0.3,0.5,0.3,0.8
			c0,0.3-0.1,0.5-0.3,0.7l-9.8,12.1c-0.2,0.2-0.2,0.4-0.1,0.7l11.8,16.3c0.2,0.2,0.3,0.4,0.3,0.7c0,0.3-0.1,0.6-0.4,0.8
			c-0.2,0.2-0.5,0.3-0.8,0.3h-4.2C2133.2-295,2132.6-295.4,2132.1-296z"/>
		<path d="M2174.3-305.4c0,2.2,0,4.2-0.1,5.8c-0.1,1.7-0.2,2.7-0.2,3.2c0,0.4-0.1,0.7-0.4,0.9c-0.3,0.3-0.6,0.4-1,0.4h-3.5
			c-0.3,0-0.6-0.1-0.9-0.4c-0.3-0.3-0.4-0.6-0.5-0.9l-0.1-2.9c0-0.1,0-0.2-0.1-0.2c-0.1,0-0.1,0-0.2,0.1c-0.9,1.2-2.3,2.3-4.1,3.1
			c-1.9,0.8-3.7,1.3-5.4,1.3c-3,0-5.7-0.7-8.2-2.2s-4.5-3.4-6-6c-1.5-2.5-2.2-5.3-2.2-8.2c0-3,0.7-5.7,2.2-8.2s3.4-4.5,6-6
			s5.3-2.2,8.2-2.2c2.9,0,5.5,0.7,8,2.1c2.4,1.4,4.4,3.3,5.9,5.6c1.5,2.4,2.3,5,2.4,7.9C2174.2-309.8,2174.3-307.5,2174.3-305.4z
			 M2162.7-303c1.5-0.9,2.7-2.1,3.5-3.6c0.9-1.5,1.3-3.1,1.3-4.9c0-1.8-0.4-3.4-1.3-4.9c-0.9-1.5-2.1-2.7-3.6-3.5
			c-1.5-0.9-3.1-1.3-4.9-1.3c-1.7,0-3.3,0.4-4.8,1.3c-1.5,0.9-2.7,2.1-3.6,3.6c-0.9,1.5-1.3,3.1-1.3,4.9c0,1.8,0.4,3.4,1.3,4.9
			c0.9,1.5,2.1,2.7,3.6,3.6c1.5,0.9,3.1,1.3,4.9,1.3C2159.6-301.7,2161.2-302.1,2162.7-303z"/>
		<path d="M2182.3-289.2c-0.1-5.1-0.1-9.8-0.1-14.2c0-3,0-5.9,0.1-8.8c0.1-2.9,0.9-5.5,2.4-7.9s3.4-4.2,5.9-5.6
			c2.5-1.4,5.1-2.1,8-2.1c3,0,5.7,0.7,8.2,2.2c2.5,1.5,4.5,3.5,5.9,6s2.2,5.2,2.2,8.2c0,3-0.7,5.7-2.2,8.2s-3.4,4.5-5.9,6
			s-5.2,2.2-8.2,2.2c-1.7,0-3.5-0.4-5.4-1.3c-1.9-0.8-3.2-1.9-4.1-3c0-0.1-0.1-0.1-0.2-0.1c-0.1,0-0.1,0.1-0.1,0.2l-0.1,20
			c0,0.4-0.1,0.7-0.4,0.9c-0.3,0.3-0.6,0.4-0.9,0.4h-3.5c-0.4,0-0.7-0.1-0.9-0.4c-0.3-0.3-0.4-0.6-0.4-0.9
			C2182.5-280.8,2182.4-284.1,2182.3-289.2z M2190.2-306.6c0.9,1.5,2.1,2.7,3.6,3.6c1.5,0.9,3.1,1.3,4.9,1.3s3.4-0.4,4.9-1.3
			c1.5-0.9,2.7-2.1,3.6-3.6c0.9-1.5,1.3-3.1,1.3-4.9c0-1.8-0.4-3.4-1.3-4.9c-0.9-1.5-2.1-2.7-3.6-3.6c-1.5-0.9-3.1-1.3-4.9-1.3
			s-3.4,0.4-4.9,1.3c-1.5,0.9-2.7,2.1-3.6,3.6c-0.9,1.5-1.3,3.1-1.3,4.9C2188.9-309.7,2189.3-308,2190.2-306.6z"/>
	</g>
</g>
<path class="st6" d="M1703.9-548c-53.7,0.7-97.4,44.9-97.6,98.6c-0.2,38.5,21.7,72,53.7,88.5c13.6,7,29,11,45.3,11s31.8-4,45.3-11
	c31.9-16.4,53.7-49.7,53.7-88C1804.3-504.1,1759.2-548.7,1703.9-548z M1705.3-503c39.8,0,72,32.2,72,72l-64.7-64.7
	c-4-4-10.5-4-14.6,0l-64.7,64.7C1633.3-470.7,1665.5-503,1705.3-503z M1635.6-413h15.7l5.9,35.6C1646.8-386.7,1639.1-399,1635.6-413
	z M1753.4-377.4l5.9-35.6h15.7C1771.4-399,1763.8-386.7,1753.4-377.4z"/>
<g>
	<path class="st6" d="M359.6-369.3c-60.3,0.8-109.3,50.4-109.6,110.7c-0.2,43.2,24.3,80.8,60.2,99.3c15.2,7.9,32.5,12.3,50.9,12.3
		c18.4,0,35.6-4.4,50.9-12.3c35.8-18.5,60.2-55.8,60.2-98.8C472.3-320.1,421.7-370.1,359.6-369.3z M361.1-318.8
		c44.6,0,80.8,36.2,80.8,80.8l-72.7-72.7c-4.5-4.5-11.8-4.5-16.3,0l-72.7,72.7C280.3-282.6,316.5-318.8,361.1-318.8z M282.9-217.7
		h17.7l6.7,40C295.5-188.3,286.9-202.1,282.9-217.7z M415.1-177.8l6.7-40h17.7C435.4-202.1,426.8-188.3,415.1-177.8z"/>
</g>
<g>
	<path class="st6" d="M94.2-500.6C33.9-499.8-15.1-450.3-15.4-390c-0.2,43.2,24.3,80.8,60.2,99.3c15.2,7.9,32.5,12.3,50.9,12.3
		s35.6-4.5,50.9-12.3c35.8-18.5,60.2-55.8,60.2-98.8C206.9-451.4,156.3-501.5,94.2-500.6z M95.8-450.1c44.6,0,80.8,36.2,80.8,80.8
		L103.9-442c-4.5-4.5-11.8-4.5-16.3,0l-72.7,72.7C14.9-413.9,51.1-450.1,95.8-450.1z M17.5-349.1h17.7l6.7,40
		C30.1-319.6,21.5-333.4,17.5-349.1z M149.7-309.1l6.7-40H174C170-333.4,161.4-319.6,149.7-309.1z"/>
</g>
<g>
	<path d="M1616.8-303.1c0.2,0.2,0.3,0.4,0.3,0.7c0,0.4-0.1,0.6-0.3,0.9c-2.3,2.2-4.8,3.8-7.6,4.9c-2.8,1.1-5.7,1.6-8.7,1.6
		c-4.1,0-8-1-11.7-2.9c-3.7-1.9-6.6-4.7-8.9-8.2c-2.3-3.5-3.4-7.6-3.4-12.1c0-4.6,1.1-8.7,3.3-12.2c2.2-3.5,5.1-6.3,8.7-8.2
		c3.6-1.9,7.4-2.9,11.5-2.9c3,0,5.9,0.5,8.7,1.6c2.9,1.1,5.5,2.7,7.9,5c0.3,0.3,0.4,0.5,0.4,0.9s-0.1,0.6-0.3,0.8l-2.9,3.1
		c-0.2,0.3-0.5,0.4-0.9,0.4c-0.3,0-0.5-0.1-0.7-0.3c-1.9-1.6-3.9-2.7-6.1-3.5c-2.2-0.8-4.3-1.2-6.5-1.2c-2.9,0-5.6,0.7-8.1,2
		c-2.5,1.4-4.4,3.3-5.9,5.8s-2.2,5.4-2.2,8.7c0,3.2,0.8,6,2.5,8.5s3.8,4.4,6.5,5.8c2.7,1.4,5.5,2.1,8.5,2.1c4.4,0,8.3-1.4,11.7-4.2
		c0.2-0.2,0.4-0.3,0.7-0.3c0.3,0,0.6,0.1,0.8,0.3L1616.8-303.1z"/>
	<path d="M1655.3-305.4c0,2.2,0,4.2-0.1,5.8c-0.1,1.7-0.2,2.7-0.2,3.2c0,0.4-0.1,0.7-0.4,0.9c-0.3,0.3-0.6,0.4-1,0.4h-3.5
		c-0.3,0-0.6-0.1-0.9-0.4c-0.3-0.3-0.4-0.6-0.5-0.9l-0.1-2.9c0-0.1,0-0.2-0.1-0.2c-0.1,0-0.1,0-0.2,0.1c-0.9,1.2-2.3,2.3-4.1,3.1
		s-3.7,1.3-5.4,1.3c-3,0-5.7-0.7-8.2-2.2s-4.5-3.4-6-6c-1.5-2.5-2.2-5.3-2.2-8.2c0-3,0.7-5.7,2.2-8.2s3.4-4.5,6-6s5.3-2.2,8.2-2.2
		c2.9,0,5.5,0.7,8,2.1c2.4,1.4,4.4,3.3,5.9,5.6c1.5,2.4,2.3,5,2.4,7.9C1655.2-309.8,1655.3-307.5,1655.3-305.4z M1643.7-303
		c1.5-0.9,2.7-2.1,3.5-3.6s1.3-3.1,1.3-4.9c0-1.8-0.4-3.4-1.3-4.9c-0.9-1.5-2.1-2.7-3.6-3.5c-1.5-0.9-3.1-1.3-4.9-1.3
		c-1.7,0-3.3,0.4-4.8,1.3c-1.5,0.9-2.7,2.1-3.6,3.6c-0.9,1.5-1.3,3.1-1.3,4.9c0,1.8,0.4,3.4,1.3,4.9c0.9,1.5,2.1,2.7,3.6,3.6
		c1.5,0.9,3.1,1.3,4.9,1.3C1640.6-301.7,1642.2-302.1,1643.7-303z"/>
	<path d="M1685.2-307.1c0.3,0.9,0.5,1.9,0.5,2.9c0,1.8-0.6,3.4-1.7,4.9c-1.1,1.4-2.6,2.5-4.4,3.2s-3.8,1.1-5.9,1.1
		c-2.3,0-4.5-0.5-6.6-1.5c-2.1-1-3.8-2.5-5-4.5c-0.1-0.1-0.1-0.3-0.1-0.7c0-0.6,0.2-0.9,0.6-1.1l3.3-1.8c0.2-0.1,0.3-0.1,0.5-0.1
		c0.4,0,0.7,0.2,1,0.5c0.8,0.8,1.7,1.5,2.9,2.1c1.2,0.5,2.4,0.8,3.5,0.8c1.3,0,2.5-0.3,3.6-0.9c1.1-0.6,1.6-1.4,1.6-2.5
		s-0.4-1.8-1.3-2.3c-0.9-0.5-2.2-0.9-4.1-1.2c-2.2-0.5-3.8-0.9-4.8-1.3c-2.1-0.8-3.7-2-4.7-3.5c-1.1-1.5-1.6-3.1-1.6-4.9
		c0-2.3,0.8-4.3,2.6-6.2c1.7-1.9,4.1-3,7.1-3.5c0.9-0.1,1.8-0.2,2.7-0.2c4.8,0,8.5,2.1,11.2,6.2c0.1,0.2,0.2,0.4,0.2,0.7
		c0,0.5-0.2,0.9-0.7,1.1l-2.9,1.7c-0.3,0.1-0.5,0.1-0.6,0.1c-0.4,0-0.8-0.2-1.1-0.5c-1.8-2.2-3.9-3.2-6.5-3.2c-0.3,0-0.8,0-1.4,0.1
		c-1.1,0.2-2,0.5-2.7,1.1c-0.8,0.6-1.2,1.2-1.2,1.8c-0.1,1.1,0.1,2,0.7,2.7s1.2,1.2,2.1,1.5s2.2,0.7,3.8,1c1.8,0.4,3.2,0.9,4.3,1.3
		c1.1,0.4,2.1,1,3.1,1.8C1684-309.5,1684.7-308.4,1685.2-307.1z"/>
	<path d="M1725.1-305.4c0,2.2,0,4.2-0.1,5.8c-0.1,1.7-0.2,2.7-0.2,3.2c0,0.4-0.1,0.7-0.4,0.9c-0.3,0.3-0.6,0.4-1,0.4h-3.5
		c-0.3,0-0.6-0.1-0.9-0.4c-0.3-0.3-0.4-0.6-0.5-0.9l-0.1-2.9c0-0.1,0-0.2-0.1-0.2c-0.1,0-0.1,0-0.2,0.1c-0.9,1.2-2.3,2.3-4.1,3.1
		s-3.7,1.3-5.4,1.3c-3,0-5.7-0.7-8.2-2.2s-4.5-3.4-6-6c-1.5-2.5-2.2-5.3-2.2-8.2c0-3,0.7-5.7,2.2-8.2s3.4-4.5,6-6s5.3-2.2,8.2-2.2
		c2.9,0,5.5,0.7,8,2.1c2.4,1.4,4.4,3.3,5.9,5.6c1.5,2.4,2.3,5,2.4,7.9C1725-309.8,1725.1-307.5,1725.1-305.4z M1713.5-303
		c1.5-0.9,2.7-2.1,3.5-3.6s1.3-3.1,1.3-4.9c0-1.8-0.4-3.4-1.3-4.9c-0.9-1.5-2.1-2.7-3.6-3.5c-1.5-0.9-3.1-1.3-4.9-1.3
		c-1.7,0-3.3,0.4-4.8,1.3c-1.5,0.9-2.7,2.1-3.6,3.6c-0.9,1.5-1.3,3.1-1.3,4.9c0,1.8,0.4,3.4,1.3,4.9c0.9,1.5,2.1,2.7,3.6,3.6
		c1.5,0.9,3.1,1.3,4.9,1.3C1710.4-301.7,1712-302.1,1713.5-303z"/>
	<path d="M1751.3-296l-9.3-12.4l-3.1,3.8l-0.2,8.4c0,0.3-0.1,0.6-0.3,0.8s-0.5,0.3-0.8,0.3h-3.9c-0.3,0-0.6-0.1-0.8-0.3
		c-0.2-0.2-0.3-0.5-0.3-0.8l-0.2-10.7v-13.2l0.2-23.7c0-0.3,0.1-0.6,0.3-0.8s0.5-0.3,0.8-0.3h3.9c0.3,0,0.6,0.1,0.8,0.3
		c0.2,0.2,0.3,0.5,0.3,0.8l0.2,23.7v5.2l10.4-12.1c0.4-0.6,1-0.9,1.7-0.9h4.6c0.3,0,0.6,0.1,0.8,0.4c0.2,0.2,0.3,0.5,0.3,0.8
		c0,0.3-0.1,0.5-0.3,0.7l-9.8,12.1c-0.2,0.2-0.2,0.4-0.1,0.7l11.8,16.3c0.2,0.2,0.3,0.4,0.3,0.7c0,0.3-0.1,0.6-0.4,0.8
		c-0.2,0.2-0.5,0.3-0.8,0.3h-4.2C1752.4-295,1751.8-295.4,1751.3-296z"/>
	<path d="M1793.4-305.4c0,2.2,0,4.2-0.1,5.8c-0.1,1.7-0.2,2.7-0.2,3.2c0,0.4-0.1,0.7-0.4,0.9c-0.3,0.3-0.6,0.4-1,0.4h-3.5
		c-0.3,0-0.6-0.1-0.9-0.4c-0.3-0.3-0.4-0.6-0.5-0.9l-0.1-2.9c0-0.1,0-0.2-0.1-0.2c-0.1,0-0.1,0-0.2,0.1c-0.9,1.2-2.3,2.3-4.1,3.1
		s-3.7,1.3-5.4,1.3c-3,0-5.7-0.7-8.2-2.2s-4.5-3.4-6-6c-1.5-2.5-2.2-5.3-2.2-8.2c0-3,0.7-5.7,2.2-8.2s3.4-4.5,6-6s5.3-2.2,8.2-2.2
		c2.9,0,5.5,0.7,8,2.1c2.4,1.4,4.4,3.3,5.9,5.6c1.5,2.4,2.3,5,2.4,7.9C1793.4-309.8,1793.4-307.5,1793.4-305.4z M1781.9-303
		c1.5-0.9,2.7-2.1,3.5-3.6s1.3-3.1,1.3-4.9c0-1.8-0.4-3.4-1.3-4.9c-0.9-1.5-2.1-2.7-3.6-3.5c-1.5-0.9-3.1-1.3-4.9-1.3
		c-1.7,0-3.3,0.4-4.8,1.3c-1.5,0.9-2.7,2.1-3.6,3.6c-0.9,1.5-1.3,3.1-1.3,4.9c0,1.8,0.4,3.4,1.3,4.9c0.9,1.5,2.1,2.7,3.6,3.6
		c1.5,0.9,3.1,1.3,4.9,1.3C1778.7-301.7,1780.4-302.1,1781.9-303z"/>
	<path d="M1801.5-289.2c-0.1-5.1-0.1-9.8-0.1-14.2c0-3,0-5.9,0.1-8.8c0.1-2.9,0.9-5.5,2.4-7.9c1.5-2.4,3.4-4.2,5.9-5.6
		c2.5-1.4,5.1-2.1,8-2.1c3,0,5.7,0.7,8.2,2.2c2.5,1.5,4.5,3.5,5.9,6s2.2,5.2,2.2,8.2c0,3-0.7,5.7-2.2,8.2s-3.4,4.5-5.9,6
		s-5.2,2.2-8.2,2.2c-1.7,0-3.5-0.4-5.4-1.3c-1.9-0.8-3.2-1.9-4.1-3c0-0.1-0.1-0.1-0.2-0.1s-0.1,0.1-0.1,0.2l-0.1,20
		c0,0.4-0.1,0.7-0.4,0.9c-0.3,0.3-0.6,0.4-0.9,0.4h-3.5c-0.3,0-0.7-0.1-0.9-0.4c-0.3-0.3-0.4-0.6-0.4-0.9
		C1801.6-280.8,1801.6-284.1,1801.5-289.2z M1809.4-306.6c0.9,1.5,2.1,2.7,3.6,3.6c1.5,0.9,3.1,1.3,4.9,1.3s3.4-0.4,4.9-1.3
		c1.5-0.9,2.7-2.1,3.6-3.6c0.9-1.5,1.3-3.1,1.3-4.9c0-1.8-0.4-3.4-1.3-4.9s-2.1-2.7-3.6-3.6c-1.5-0.9-3.1-1.3-4.9-1.3
		s-3.4,0.4-4.9,1.3c-1.5,0.9-2.7,2.1-3.6,3.6c-0.9,1.5-1.3,3.1-1.3,4.9C1808-309.7,1808.5-308,1809.4-306.6z"/>
</g>
<g>
	<g>
		<path class="st6" d="M144,16.4C83.7,17.2,34.7,66.7,34.4,127c-0.2,43.2,24.3,80.8,60.2,99.3c15.2,7.9,32.5,12.3,50.9,12.3
			s35.6-4.4,50.9-12.3c35.8-18.5,60.2-55.8,60.2-98.8C256.7,65.6,206.1,15.5,144,16.4z M145.6,66.9c44.6,0,80.8,36.2,80.8,80.8
			L153.8,75c-4.5-4.5-11.8-4.5-16.3,0l-72.7,72.7C64.8,103.1,101,66.9,145.6,66.9z M67.3,167.9H85l6.7,40
			C79.9,197.4,71.3,183.6,67.3,167.9z M199.5,207.9l6.7-40h17.7C219.8,183.6,211.2,197.4,199.5,207.9z"/>
	</g>
	<g>
		<path class="st6" d="M373.5,165.2c0.4,0.4,0.6,1,0.6,1.7c0,0.9-0.3,1.5-0.8,2c-5.4,5.1-11.5,9-18.1,11.5
			c-6.6,2.6-13.5,3.9-20.6,3.9c-9.7,0-19-2.3-27.6-6.9c-8.7-4.6-15.7-11.1-21.1-19.5s-8-18-8-28.7c0-10.9,2.6-20.5,7.8-28.9
			c5.2-8.4,12-14.8,20.5-19.4s17.5-6.8,27.2-6.8c7,0,13.9,1.3,20.7,3.9c6.8,2.6,13,6.5,18.6,11.7c0.6,0.6,0.9,1.3,0.9,2
			c0,0.7-0.3,1.4-0.8,1.9l-6.9,7.4c-0.4,0.6-1.1,0.9-2,0.9c-0.6,0-1.2-0.2-1.6-0.6c-4.5-3.7-9.3-6.4-14.4-8.3
			c-5.1-1.8-10.2-2.7-15.3-2.7c-6.9,0-13.3,1.6-19.1,4.8c-5.8,3.2-10.5,7.8-14,13.7c-3.5,5.9-5.3,12.8-5.3,20.7
			c0,7.5,1.9,14.2,5.8,20.1c3.9,5.9,9,10.4,15.3,13.7c6.3,3.2,13.1,4.9,20.2,4.9c10.5,0,19.7-3.3,27.6-9.9c0.4-0.4,0.9-0.6,1.6-0.6
			c0.7,0,1.3,0.3,1.9,0.8L373.5,165.2z"/>
		<path class="st6" d="M464.6,159.8c0,5.2-0.1,9.8-0.3,13.8c-0.2,4-0.4,6.5-0.5,7.5c0,0.9-0.3,1.6-0.9,2.2s-1.4,0.9-2.4,0.9h-8.3
			c-0.7,0-1.4-0.3-2-0.9c-0.6-0.6-1-1.3-1.1-2.2l-0.2-6.9c0-0.2-0.1-0.4-0.2-0.5c-0.2-0.1-0.3,0-0.5,0.2c-2.1,2.9-5.3,5.4-9.7,7.4
			c-4.4,2-8.6,3-12.7,3c-7,0-13.5-1.7-19.5-5.2c-6-3.5-10.7-8.2-14.1-14.1c-3.5-6-5.2-12.5-5.2-19.5c0-7,1.7-13.5,5.2-19.4
			c3.5-5.9,8.2-10.6,14.1-14.1c6-3.5,12.5-5.3,19.5-5.3c6.8,0,13.1,1.7,18.9,4.9c5.7,3.3,10.4,7.8,13.9,13.3
			c3.5,5.6,5.4,11.8,5.7,18.6C464.5,149.4,464.6,154.8,464.6,159.8z M437.2,165.5c3.5-2.1,6.3-4.9,8.3-8.5c2-3.5,3.1-7.4,3.1-11.6
			s-1-8-3.1-11.5c-2.1-3.5-4.9-6.3-8.4-8.3c-3.5-2-7.4-3.1-11.5-3.1c-4.1,0-7.9,1-11.4,3.1c-3.5,2.1-6.3,4.9-8.4,8.4
			c-2.1,3.5-3.1,7.4-3.1,11.5s1,8,3.1,11.5c2.1,3.5,4.9,6.3,8.4,8.4c3.5,2.1,7.4,3.1,11.5,3.1C429.8,168.6,433.7,167.6,437.2,165.5z
			"/>
		<path class="st6" d="M535.3,155.9c0.7,2.2,1.1,4.4,1.1,6.7c0,4.3-1.3,8.1-4,11.5c-2.7,3.4-6.2,5.9-10.5,7.7
			c-4.4,1.8-9,2.7-13.9,2.7c-5.4,0-10.6-1.2-15.5-3.5c-4.9-2.4-8.9-5.9-11.9-10.6c-0.2-0.3-0.3-0.8-0.3-1.6c0-1.3,0.5-2.2,1.4-2.7
			l7.9-4.2c0.4-0.2,0.8-0.3,1.3-0.3c0.9,0,1.7,0.4,2.4,1.1c1.8,2,4.1,3.6,6.9,4.9c2.8,1.3,5.6,1.9,8.3,1.9c3,0,5.8-0.7,8.4-2
			c2.6-1.3,3.9-3.3,3.9-5.8c0-2.5-1-4.3-3.1-5.4c-2-1.1-5.3-2.1-9.7-2.9c-5.2-1.2-9-2.2-11.3-3.1c-4.9-2-8.6-4.8-11.1-8.3
			c-2.5-3.5-3.8-7.4-3.8-11.5c0-5.3,2-10.2,6.1-14.6c4-4.4,9.6-7.2,16.7-8.3c2.2-0.3,4.4-0.5,6.4-0.5c11.4,0,20.2,4.9,26.4,14.6
			c0.3,0.4,0.5,0.9,0.5,1.6c0,1.2-0.5,2-1.6,2.7l-6.9,4.1c-0.6,0.2-1.1,0.3-1.4,0.3c-1,0-1.9-0.4-2.5-1.1c-4.2-5.1-9.3-7.7-15.4-7.7
			c-0.7,0-1.8,0.1-3.3,0.3c-2.5,0.4-4.7,1.3-6.4,2.7c-1.8,1.4-2.7,2.8-2.8,4.2c-0.2,2.6,0.3,4.7,1.6,6.3c1.3,1.6,2.9,2.7,5,3.5
			c2.1,0.8,5.1,1.6,8.9,2.4c4.2,1,7.6,2,10.2,3c2.6,0.9,5,2.4,7.3,4.3C532.6,150.1,534.2,152.7,535.3,155.9z"/>
		<path class="st6" d="M629.7,159.8c0,5.2-0.1,9.8-0.3,13.8c-0.2,4-0.4,6.5-0.5,7.5c0,0.9-0.3,1.6-0.9,2.2c-0.6,0.6-1.4,0.9-2.4,0.9
			h-8.3c-0.7,0-1.4-0.3-2-0.9c-0.6-0.6-1-1.3-1.1-2.2l-0.2-6.9c0-0.2-0.1-0.4-0.2-0.5c-0.2-0.1-0.3,0-0.5,0.2
			c-2.1,2.9-5.3,5.4-9.7,7.4c-4.4,2-8.6,3-12.7,3c-7,0-13.5-1.7-19.5-5.2c-6-3.5-10.7-8.2-14.1-14.1c-3.5-6-5.2-12.5-5.2-19.5
			c0-7,1.7-13.5,5.2-19.4c3.5-5.9,8.2-10.6,14.1-14.1c6-3.5,12.5-5.3,19.5-5.3c6.8,0,13.1,1.7,18.9,4.9c5.7,3.3,10.4,7.8,13.9,13.3
			c3.5,5.6,5.4,11.8,5.7,18.6C629.5,149.4,629.7,154.8,629.7,159.8z M602.3,165.5c3.5-2.1,6.3-4.9,8.3-8.5c2-3.5,3.1-7.4,3.1-11.6
			s-1-8-3.1-11.5c-2.1-3.5-4.9-6.3-8.4-8.3c-3.5-2-7.4-3.1-11.5-3.1c-4.1,0-7.9,1-11.4,3.1c-3.5,2.1-6.3,4.9-8.4,8.4
			c-2.1,3.5-3.1,7.4-3.1,11.5s1,8,3.1,11.5c2.1,3.5,4.9,6.3,8.4,8.4c3.5,2.1,7.4,3.1,11.5,3.1C594.9,168.6,598.8,167.6,602.3,165.5z
			"/>
		<path class="st6" d="M691.7,182.1l-22-29.2l-7.4,8.9l-0.5,19.8c0,0.7-0.3,1.4-0.8,1.9c-0.5,0.5-1.2,0.8-1.9,0.8h-9.3
			c-0.7,0-1.4-0.3-1.9-0.8c-0.5-0.5-0.8-1.2-0.8-1.9l-0.5-25.3v-31.2l0.5-56.1c0-0.7,0.3-1.4,0.8-1.9c0.5-0.5,1.2-0.8,1.9-0.8h9.3
			c0.7,0,1.3,0.3,1.9,0.8c0.5,0.5,0.8,1.2,0.8,1.9l0.5,56.1v12.4l24.5-28.7c1-1.3,2.4-2,4.1-2h10.8c0.7,0,1.4,0.3,1.9,0.9
			c0.5,0.6,0.8,1.2,0.8,2c0,0.6-0.2,1.2-0.6,1.7l-23.3,28.6c-0.5,0.5-0.6,1-0.2,1.6l27.8,38.5c0.4,0.4,0.6,1,0.6,1.7
			c0,0.7-0.3,1.4-0.9,1.9c-0.6,0.5-1.2,0.8-2,0.8h-9.9C694.4,184.3,692.9,183.6,691.7,182.1z"/>
		<path class="st6" d="M791.5,159.8c0,5.2-0.1,9.8-0.3,13.8c-0.2,4-0.4,6.5-0.5,7.5c0,0.9-0.3,1.6-0.9,2.2c-0.6,0.6-1.4,0.9-2.4,0.9
			h-8.3c-0.7,0-1.4-0.3-2-0.9c-0.6-0.6-1-1.3-1.1-2.2l-0.2-6.9c0-0.2-0.1-0.4-0.2-0.5c-0.2-0.1-0.3,0-0.5,0.2
			c-2.1,2.9-5.3,5.4-9.7,7.4c-4.4,2-8.6,3-12.7,3c-7,0-13.5-1.7-19.5-5.2c-6-3.5-10.7-8.2-14.1-14.1c-3.5-6-5.2-12.5-5.2-19.5
			c0-7,1.7-13.5,5.2-19.4c3.5-5.9,8.2-10.6,14.1-14.1c6-3.5,12.5-5.3,19.5-5.3c6.8,0,13.1,1.7,18.9,4.9c5.7,3.3,10.4,7.8,13.9,13.3
			c3.5,5.6,5.4,11.8,5.7,18.6C791.3,149.4,791.5,154.8,791.5,159.8z M764.1,165.5c3.5-2.1,6.3-4.9,8.3-8.5c2-3.5,3.1-7.4,3.1-11.6
			s-1-8-3.1-11.5c-2.1-3.5-4.9-6.3-8.4-8.3c-3.5-2-7.4-3.1-11.5-3.1c-4.1,0-7.9,1-11.4,3.1c-3.5,2.1-6.3,4.9-8.4,8.4
			c-2.1,3.5-3.1,7.4-3.1,11.5s1,8,3.1,11.5c2.1,3.5,4.9,6.3,8.4,8.4c3.5,2.1,7.4,3.1,11.5,3.1C756.7,168.6,760.6,167.6,764.1,165.5z
			"/>
		<path class="st6" d="M810.5,198.1c-0.2-12-0.3-23.2-0.3-33.6c0-7,0.1-14,0.3-20.9c0.3-6.8,2.2-13,5.7-18.6
			c3.5-5.6,8.2-10.1,14-13.3c5.8-3.3,12.1-4.9,18.9-4.9c7,0,13.5,1.8,19.4,5.3c5.9,3.5,10.6,8.2,14.1,14.1
			c3.5,5.9,5.2,12.4,5.2,19.4s-1.7,13.5-5.2,19.4c-3.5,5.9-8.1,10.6-14.1,14.1c-5.9,3.5-12.4,5.3-19.4,5.3c-4.1,0-8.3-1-12.7-3
			s-7.6-4.4-9.7-7.2c-0.1-0.2-0.3-0.3-0.5-0.2c-0.2,0-0.3,0.2-0.3,0.4l-0.3,47.3c0,0.8-0.3,1.6-0.9,2.2c-0.6,0.6-1.4,0.9-2.2,0.9
			h-8.3c-0.8,0-1.6-0.3-2.2-0.9c-0.6-0.6-0.9-1.4-0.9-2.2C810.8,218,810.7,210.2,810.5,198.1z M829.2,157.1c2.1,3.5,4.9,6.3,8.4,8.4
			c3.5,2.1,7.4,3.1,11.5,3.1c4.2,0,8-1,11.5-3.1c3.5-2.1,6.3-4.9,8.4-8.4c2.1-3.5,3.1-7.4,3.1-11.5s-1-8.1-3.1-11.6
			c-2.1-3.5-4.9-6.4-8.4-8.4c-3.5-2-7.4-3.1-11.5-3.1c-4.2,0-8,1-11.5,3.1s-6.3,4.9-8.4,8.4c-2.1,3.5-3.1,7.4-3.1,11.5
			C826,149.7,827.1,153.6,829.2,157.1z"/>
	</g>
</g>
<path class="st1" d="M2569.3-404c-54.7,0-99,44.3-99,99c0,38.3,21.8,71.6,53.7,88c13.6,7,29,11,45.3,11s31.8-4,45.3-11
	c31.9-16.4,53.7-49.7,53.7-88C2668.3-359.7,2624-404,2569.3-404z M2569.3-359c39.8,0,72,32.2,72,72L2569.3-359l-72,72
	C2497.3-326.7,2529.5-359,2569.3-359z M2499.6-269h15.7l5.9,35.6C2510.8-242.7,2503.1-255,2499.6-269z M2617.4-233.4l5.9-35.6h15.7
	C2635.4-255,2627.8-242.7,2617.4-233.4z"/>
<text transform="matrix(1 0 0 1 2436.7756 -142.9828)" style="font-family:'cream-DEMO'; font-size:66.3855px;">Casakap</text>
</svg>
